<svg width="16" height="16" viewBox="0 0 16 16" fill="none" xmlns="http://www.w3.org/2000/svg">
<path d="M4.3999 2.40002C3.86947 2.40002 3.36076 2.61074 2.98569 2.98581C2.61062 3.36088 2.3999 3.86959 2.3999 4.40002V4.80002H13.5999V4.40002C13.5999 3.86959 13.3892 3.36088 13.0141 2.98581C12.639 2.61074 12.1303 2.40002 11.5999 2.40002H4.3999ZM13.5999 5.60002H2.3999V11.6C2.3999 12.1305 2.61062 12.6392 2.98569 13.0142C3.36076 13.3893 3.86947 13.6 4.3999 13.6H11.5999C12.1303 13.6 12.639 13.3893 13.0141 13.0142C13.3892 12.6392 13.5999 12.1305 13.5999 11.6V5.60002ZM6.3999 8.00002C6.3999 8.2122 6.31562 8.41568 6.16559 8.56571C6.01556 8.71574 5.81208 8.80002 5.5999 8.80002C5.38773 8.80002 5.18425 8.71574 5.03422 8.56571C4.88419 8.41568 4.7999 8.2122 4.7999 8.00002C4.7999 7.78785 4.88419 7.58437 5.03422 7.43434C5.18425 7.28431 5.38773 7.20002 5.5999 7.20002C5.81208 7.20002 6.01556 7.28431 6.16559 7.43434C6.31562 7.58437 6.3999 7.78785 6.3999 8.00002ZM5.5999 11.2C5.38773 11.2 5.18425 11.1157 5.03422 10.9657C4.88419 10.8157 4.7999 10.6122 4.7999 10.4C4.7999 10.1879 4.88419 9.98437 5.03422 9.83434C5.18425 9.68431 5.38773 9.60003 5.5999 9.60003C5.81208 9.60003 6.01556 9.68431 6.16559 9.83434C6.31562 9.98437 6.3999 10.1879 6.3999 10.4C6.3999 10.6122 6.31562 10.8157 6.16559 10.9657C6.01556 11.1157 5.81208 11.2 5.5999 11.2ZM8.7999 8.00002C8.7999 8.2122 8.71562 8.41568 8.56559 8.56571C8.41556 8.71574 8.21208 8.80002 7.9999 8.80002C7.78773 8.80002 7.58425 8.71574 7.43422 8.56571C7.28419 8.41568 7.1999 8.2122 7.1999 8.00002C7.1999 7.78785 7.28419 7.58437 7.43422 7.43434C7.58425 7.28431 7.78773 7.20002 7.9999 7.20002C8.21208 7.20002 8.41556 7.28431 8.56559 7.43434C8.71562 7.58437 8.7999 7.78785 8.7999 8.00002ZM7.9999 11.2C7.78773 11.2 7.58425 11.1157 7.43422 10.9657C7.28419 10.8157 7.1999 10.6122 7.1999 10.4C7.1999 10.1879 7.28419 9.98437 7.43422 9.83434C7.58425 9.68431 7.78773 9.60003 7.9999 9.60003C8.21208 9.60003 8.41556 9.68431 8.56559 9.83434C8.71562 9.98437 8.7999 10.1879 8.7999 10.4C8.7999 10.6122 8.71562 10.8157 8.56559 10.9657C8.41556 11.1157 8.21208 11.2 7.9999 11.2ZM11.1999 8.00002C11.1999 8.2122 11.1156 8.41568 10.9656 8.56571C10.8156 8.71574 10.6121 8.80002 10.3999 8.80002C10.1877 8.80002 9.98425 8.71574 9.83422 8.56571C9.68419 8.41568 9.5999 8.2122 9.5999 8.00002C9.5999 7.78785 9.68419 7.58437 9.83422 7.43434C9.98425 7.28431 10.1877 7.20002 10.3999 7.20002C10.6121 7.20002 10.8156 7.28431 10.9656 7.43434C11.1156 7.58437 11.1999 7.78785 11.1999 8.00002Z" fill="#9497A1"/>
</svg>
