<svg width="16" height="16" viewBox="0 0 16 16" fill="none" xmlns="http://www.w3.org/2000/svg">
<path d="M9.9023 4.56638V2.86238C9.9023 2.47838 10.3263 2.27198 10.6143 2.48638L10.6639 2.52957L14.2615 6.06557C14.4295 6.23117 14.4447 6.49678 14.3071 6.67998L14.2615 6.73198L10.6639 10.2704C10.3935 10.536 9.9543 10.3656 9.9063 10.0032L9.9023 9.93757V8.26078L9.6959 8.27917C8.2559 8.43357 6.8751 9.09837 5.5463 10.2848C5.2343 10.5632 4.7527 10.3008 4.8039 9.87998C5.2023 6.60798 6.8719 4.80398 9.7223 4.57838L9.9023 4.56638ZM4.3999 3.19998C3.86947 3.19998 3.36076 3.41069 2.98569 3.78576C2.61062 4.16083 2.3999 4.66954 2.3999 5.19998V11.6C2.3999 12.1304 2.61062 12.6391 2.98569 13.0142C3.36076 13.3893 3.86947 13.6 4.3999 13.6H10.7999C11.3303 13.6 11.839 13.3893 12.2141 13.0142C12.5892 12.6391 12.7999 12.1304 12.7999 11.6V10.8C12.7999 10.6939 12.7578 10.5921 12.6827 10.5171C12.6077 10.4421 12.506 10.4 12.3999 10.4C12.2938 10.4 12.1921 10.4421 12.1171 10.5171C12.042 10.5921 11.9999 10.6939 11.9999 10.8V11.6C11.9999 11.9182 11.8735 12.2235 11.6484 12.4485C11.4234 12.6735 11.1182 12.8 10.7999 12.8H4.3999C4.08164 12.8 3.77642 12.6735 3.55137 12.4485C3.32633 12.2235 3.1999 11.9182 3.1999 11.6V5.19998C3.1999 4.88172 3.32633 4.57649 3.55137 4.35145C3.77642 4.1264 4.08164 3.99998 4.3999 3.99998H6.7999C6.90599 3.99998 7.00773 3.95783 7.08275 3.88282C7.15776 3.8078 7.1999 3.70606 7.1999 3.59997C7.1999 3.49389 7.15776 3.39215 7.08275 3.31713C7.00773 3.24212 6.90599 3.19998 6.7999 3.19998H4.3999Z" fill="#9497A1"/>
</svg>
