<svg width="20" height="20" viewBox="0 0 20 20" fill="none" xmlns="http://www.w3.org/2000/svg">
<path d="M18.0683 2.76033L11.1933 17.7603C11.1357 17.886 11.0382 17.989 10.9159 18.0533C10.7936 18.1177 10.6534 18.1396 10.5173 18.1158C10.3811 18.092 10.2567 18.0237 10.1635 17.9217C10.0703 17.8197 10.0136 17.6896 10.0021 17.5519L9.42089 10.579L2.44795 9.99771C2.31024 9.98627 2.18019 9.92951 2.07816 9.8363C1.97613 9.7431 1.90787 9.61871 1.88405 9.48258C1.86023 9.34646 1.8822 9.20628 1.94651 9.08397C2.01083 8.96166 2.11387 8.86411 2.23952 8.80658L17.2395 1.93158C17.3555 1.87844 17.4849 1.86205 17.6105 1.88461C17.736 1.90718 17.8516 1.96762 17.9418 2.05781C18.032 2.14801 18.0925 2.26365 18.115 2.38919C18.1376 2.51474 18.1212 2.64418 18.0681 2.76014L18.0683 2.76033Z" fill="#080809"/>
</svg>
