<svg width="16" height="13" viewBox="0 0 16 13" fill="none" xmlns="http://www.w3.org/2000/svg">
<path fill-rule="evenodd" clip-rule="evenodd" d="M9.41437 5.85343H11.2596C11.5394 5.85343 11.7592 5.67263 11.7592 5.4546C11.7592 5.23125 11.5394 5.05576 11.2596 5.05576H9.41437C9.13459 5.05576 8.91476 5.23125 8.91476 5.4546C8.91476 5.67263 9.13459 5.85343 9.41437 5.85343ZM13.4513 3.08868C13.8576 3.08868 14.1241 3.20036 14.3906 3.44498C14.657 3.6896 14.7036 4.04057 14.6437 4.35911L14.0108 7.84759C13.8909 8.51816 13.1715 9.01219 12.3255 9.01219H5.05772C4.17173 9.01219 3.43896 8.4703 3.36569 7.76835L2.75282 1.97141L1.74693 1.83315C1.48047 1.79592 1.29394 1.58853 1.34057 1.37582C1.3872 1.15832 1.647 1.01421 1.92013 1.04665L3.50891 1.23756C3.7354 1.26999 3.90194 1.41836 3.92192 1.59917L4.04849 2.79035C4.06848 2.96106 4.24168 3.08868 4.45485 3.08868H13.4513ZM4.951 9.85268C4.39143 9.85268 3.93845 10.2143 3.93845 10.661C3.93845 11.1024 4.39143 11.464 4.951 11.464C5.50391 11.464 5.9569 11.1024 5.9569 10.661C5.9569 10.2143 5.50391 9.85268 4.951 9.85268ZM12.4452 9.85268C11.8857 9.85268 11.4327 10.2143 11.4327 10.661C11.4327 11.1024 11.8857 11.464 12.4452 11.464C12.9982 11.464 13.4511 11.1024 13.4511 10.661C13.4511 10.2143 12.9982 9.85268 12.4452 9.85268Z" fill="#2076FF"/>
</svg>
