<svg width="60" height="60" viewBox="0 0 60 60" fill="none" xmlns="http://www.w3.org/2000/svg">
<path d="M53.9989 12C53.9989 16.971 45.9409 21 35.9989 21C26.0569 21 17.9989 16.971 17.9989 12C17.9989 7.029 26.0569 3 35.9989 3C45.9409 3 53.9989 7.029 53.9989 12ZM53.9989 18.36C52.8499 19.446 51.4789 20.343 50.0689 21.048C46.3129 22.926 41.3329 24 35.9989 24C34.1299 24 32.3089 23.868 30.5659 23.616C33.3709 25.2 35.7379 27.639 35.9779 30.942L36.0079 30.918L35.9989 37.659V49.5C35.9989 50.022 35.9449 50.52 35.8459 51H35.9989C45.9409 51 53.9989 46.971 53.9989 42V18.36ZM21.9289 21.048L22.0789 21.123C20.7228 20.994 19.359 20.9669 17.9989 21.042V18.36C19.1479 19.446 20.5189 20.343 21.9289 21.048ZM26.9989 25.26C25.908 24.8596 24.7835 24.5574 23.6389 24.357C22.2721 24.1164 20.8867 23.9969 19.4989 24C12.0439 24 5.9989 27.36 5.9989 31.5C5.9989 35.64 12.0439 39 19.4989 39C26.9539 39 32.9989 35.64 32.9989 31.5C32.9989 28.899 30.6169 26.61 26.9989 25.26ZM30.5029 39.42C27.5329 41.07 23.6389 41.997 19.4989 41.997C15.3589 41.997 11.4619 41.07 8.4949 39.423C7.59971 38.9311 6.76249 38.3404 5.9989 37.662V49.497C5.9989 53.64 12.0439 57 19.4989 57C26.9539 57 32.9989 53.64 32.9989 49.5L33.0019 37.662C32.2379 38.343 31.3996 38.9358 30.5029 39.429V39.42Z" fill="#185CFF"/>
</svg>
