<svg width="19" height="19" viewBox="0 0 19 19" fill="none" xmlns="http://www.w3.org/2000/svg">
<path d="M13.665 0.398976L4.58016 3.4172C-1.52672 5.45954 -1.52672 8.78965 4.58016 10.8219L7.27644 11.7173L8.17185 14.4136C10.2041 20.5205 13.5443 20.5205 15.5766 14.4136L18.6049 5.33881C19.953 1.2642 17.7396 -0.959227 13.665 0.398976ZM13.987 5.81166L10.1639 9.65487C10.013 9.80579 9.82182 9.87621 9.63066 9.87621C9.43951 9.87621 9.24835 9.80579 9.09744 9.65487C8.80568 9.36311 8.80568 8.8802 9.09744 8.58843L12.9205 4.74522C13.2123 4.45346 13.6952 4.45346 13.987 4.74522C14.2787 5.03699 14.2787 5.5199 13.987 5.81166Z" fill="white"/>
</svg>
