<svg width="25" height="25" viewBox="0 0 25 25" fill="none" xmlns="http://www.w3.org/2000/svg">
<g clip-path="url(#clip0_0_421)">
<path d="M12.5 0.5C5.8725 0.5 0.5 5.8725 0.5 12.5C0.5 19.1275 5.8725 24.5 12.5 24.5C19.1275 24.5 24.5 19.1275 24.5 12.5C24.5 5.8725 19.1275 0.5 12.5 0.5ZM9.5625 17.4738H7.1325V9.65375H9.5625V17.4738ZM8.3325 8.69375C7.565 8.69375 7.06875 8.15 7.06875 7.4775C7.06875 6.79125 7.58 6.26375 8.36375 6.26375C9.1475 6.26375 9.6275 6.79125 9.6425 7.4775C9.6425 8.15 9.1475 8.69375 8.3325 8.69375ZM18.4375 17.4738H16.0075V13.14C16.0075 12.1313 15.655 11.4462 14.7763 11.4462C14.105 11.4462 13.7063 11.91 13.53 12.3563C13.465 12.515 13.4488 12.74 13.4488 12.9638V17.4725H11.0175V12.1475C11.0175 11.1713 10.9862 10.355 10.9537 9.6525H13.065L13.1763 10.7388H13.225C13.545 10.2288 14.3288 9.47625 15.64 9.47625C17.2388 9.47625 18.4375 10.5475 18.4375 12.85V17.4738Z" fill="#185CFF"/>
</g>
<defs>
<clipPath id="clip0_0_421">
<rect width="25" height="25" fill="white"/>
</clipPath>
</defs>
</svg>
