<svg width="25" height="25" viewBox="0 0 25 25" fill="none" xmlns="http://www.w3.org/2000/svg">
<g clip-path="url(#clip0_0_419)">
<path d="M12.5 0.5C5.8725 0.5 0.5 5.8725 0.5 12.5C0.5 19.1275 5.8725 24.5 12.5 24.5C19.1275 24.5 24.5 19.1275 24.5 12.5C24.5 5.8725 19.1275 0.5 12.5 0.5ZM17.3813 10.33C17.3862 10.4325 17.3875 10.535 17.3875 10.635C17.3875 13.76 15.0113 17.3612 10.6638 17.3612C9.37912 17.3634 8.12121 16.9944 7.04125 16.2987C7.225 16.3212 7.41375 16.33 7.605 16.33C8.7125 16.33 9.73125 15.9538 10.54 15.3188C10.0471 15.3091 9.56959 15.1459 9.17389 14.8519C8.77819 14.5579 8.48406 14.1478 8.3325 13.6788C8.68644 13.7461 9.05106 13.7319 9.39875 13.6375C8.86381 13.5293 8.38275 13.2395 8.03714 12.8171C7.69152 12.3947 7.50263 11.8658 7.5025 11.32V11.2913C7.82125 11.4675 8.18625 11.575 8.57375 11.5875C8.07225 11.2537 7.71723 10.7408 7.58131 10.1539C7.44538 9.56699 7.53881 8.95032 7.8425 8.43C8.43619 9.16 9.17658 9.75718 10.0157 10.1829C10.8548 10.6086 11.774 10.8533 12.7137 10.9012C12.5943 10.3941 12.6457 9.86176 12.86 9.38688C13.0743 8.912 13.4395 8.52124 13.8988 8.27533C14.3582 8.02942 14.8858 7.94215 15.3999 8.02709C15.9139 8.11203 16.3855 8.36441 16.7412 8.745C17.2702 8.64034 17.7775 8.44632 18.2413 8.17125C18.065 8.71892 17.6958 9.18397 17.2025 9.48C17.6711 9.42356 18.1286 9.2976 18.56 9.10625C18.2431 9.58112 17.8439 9.99555 17.3813 10.33Z" fill="#185CFF"/>
</g>
<defs>
<clipPath id="clip0_0_419">
<rect width="25" height="25" fill="white"/>
</clipPath>
</defs>
</svg>
