<svg width="20" height="20" viewBox="0 0 20 20" fill="none" xmlns="http://www.w3.org/2000/svg">
<g clip-path="url(#clip0_115_3267)">
<path d="M11.5073 10.0033L1.46381 19.6745C0.993483 19.3531 0.714243 18.8184 0.719181 18.2488V1.75773C0.714243 1.1881 0.993483 0.653455 1.46381 0.332031L11.5073 10.0033Z" fill="#2196F3"/>
<path d="M15.0217 6.62364L11.5074 10.0018L1.46387 0.330532C1.50171 0.301203 1.54113 0.273918 1.58191 0.248803C2.11272 -0.0729183 2.77574 -0.0833047 3.31639 0.22156L15.0217 6.62364Z" fill="#4CAF50"/>
<path d="M19.2807 10.0031C19.2873 10.6462 18.9379 11.2402 18.3727 11.5469L15.0218 13.3812L11.5074 10.0031L15.0218 6.625L18.3727 8.45934C18.9379 8.76608 19.2873 9.36006 19.2807 10.0031Z" fill="#F0BB1F"/>
<path d="M15.0217 13.3781L3.31639 19.7802C2.77455 20.0803 2.11404 20.07 1.58191 19.753C1.54113 19.7278 1.50171 19.7006 1.46387 19.6712L11.5074 10L15.0217 13.3781Z" fill="#F15A2B"/>
</g>
<defs>
<clipPath id="clip0_115_3267">
<rect width="20" height="20" fill="white"/>
</clipPath>
</defs>
</svg>
