<svg width="16" height="16" viewBox="0 0 16 16" fill="none" xmlns="http://www.w3.org/2000/svg">
<g clip-path="url(#clip0_32_1130)">
<path d="M8.00031 0.320068C3.75871 0.320068 0.320312 3.75847 0.320312 8.00007C0.320312 12.2417 3.75871 15.6801 8.00031 15.6801C12.2419 15.6801 15.6803 12.2417 15.6803 8.00007C15.6803 3.75847 12.2419 0.320068 8.00031 0.320068ZM6.12031 11.1833H4.56511V6.17847H6.12031V11.1833ZM5.33311 5.56407C4.84191 5.56407 4.52431 5.21607 4.52431 4.78567C4.52431 4.34647 4.85151 4.00887 5.35311 4.00887C5.85471 4.00887 6.16191 4.34647 6.17151 4.78567C6.17151 5.21607 5.85471 5.56407 5.33311 5.56407ZM11.8003 11.1833H10.2451V8.40967C10.2451 7.76407 10.0195 7.32567 9.45711 7.32567C9.02751 7.32567 8.77231 7.62247 8.65951 7.90807C8.61791 8.00967 8.60751 8.15367 8.60751 8.29687V11.1825H7.05151V7.77447C7.05151 7.14967 7.03151 6.62727 7.01071 6.17767H8.36191L8.43311 6.87287H8.46431C8.66911 6.54647 9.17071 6.06487 10.0099 6.06487C11.0331 6.06487 11.8003 6.75047 11.8003 8.22407V11.1833Z" fill="#9497A1"/>
</g>
<defs>
<clipPath id="clip0_32_1130">
<rect width="16" height="16" fill="white"/>
</clipPath>
</defs>
</svg>
