<svg width="36" height="36" viewBox="0 0 36 36" fill="none" xmlns="http://www.w3.org/2000/svg">
<path opacity="0.8" d="M31.5 27.0001H28.5V22.5001C28.5 22.1022 28.342 21.7207 28.0607 21.4394C27.7794 21.1581 27.3978 21.0001 27 21.0001H19.5V16.9351L21.195 17.8201C21.4422 17.9494 21.7205 18.0072 21.9988 17.987C22.277 17.9668 22.5441 17.8695 22.7701 17.7059C22.996 17.5422 23.1718 17.3189 23.2778 17.0608C23.3838 16.8027 23.4157 16.5203 23.37 16.2451L22.77 12.6901L25.35 10.1551C25.5454 9.96424 25.685 9.72368 25.7537 9.45933C25.8225 9.19499 25.8177 8.9169 25.74 8.65506C25.6531 8.38847 25.4931 8.15159 25.2784 7.9713C25.0636 7.79101 24.8026 7.67452 24.525 7.63506L21 7.08006L19.35 3.84006C19.2272 3.58645 19.0354 3.37257 18.7966 3.22292C18.5579 3.07327 18.2818 2.9939 18 2.9939C17.7182 2.9939 17.4421 3.07327 17.2034 3.22292C16.9646 3.37257 16.7728 3.58645 16.65 3.84006L15 7.08006L11.415 7.60506C11.1374 7.64452 10.8764 7.76101 10.6616 7.9413C10.4469 8.12159 10.2869 8.35847 10.2 8.62506C10.1223 8.8869 10.1175 9.16499 10.1863 9.42933C10.255 9.69368 10.3946 9.93424 10.59 10.1251L13.23 12.6901L12.63 16.2451C12.5843 16.5203 12.6162 16.8027 12.7222 17.0608C12.8282 17.3189 13.004 17.5422 13.2299 17.7059C13.4559 17.8695 13.723 17.9668 14.0012 17.987C14.2795 18.0072 14.5578 17.9494 14.805 17.8201L16.5 16.9351V21.0001H9C8.60218 21.0001 8.22064 21.1581 7.93934 21.4394C7.65804 21.7207 7.5 22.1022 7.5 22.5001V27.0001H4.5C4.10218 27.0001 3.72064 27.1581 3.43934 27.4394C3.15804 27.7207 3 28.1022 3 28.5001V31.5001C3 31.8979 3.15804 32.2794 3.43934 32.5607C3.72064 32.842 4.10218 33.0001 4.5 33.0001C4.89782 33.0001 5.27936 32.842 5.56066 32.5607C5.84196 32.2794 6 31.8979 6 31.5001V30.0001H12V31.5001C12 31.8979 12.158 32.2794 12.4393 32.5607C12.7206 32.842 13.1022 33.0001 13.5 33.0001C13.8978 33.0001 14.2794 32.842 14.5607 32.5607C14.842 32.2794 15 31.8979 15 31.5001V28.5001C15 28.1022 14.842 27.7207 14.5607 27.4394C14.2794 27.1581 13.8978 27.0001 13.5 27.0001H10.5V24.0001H25.5V27.0001H22.5C22.1022 27.0001 21.7206 27.1581 21.4393 27.4394C21.158 27.7207 21 28.1022 21 28.5001V31.5001C21 31.8979 21.158 32.2794 21.4393 32.5607C21.7206 32.842 22.1022 33.0001 22.5 33.0001C22.8978 33.0001 23.2794 32.842 23.5607 32.5607C23.842 32.2794 24 31.8979 24 31.5001V30.0001H30V31.5001C30 31.8979 30.158 32.2794 30.4393 32.5607C30.7206 32.842 31.1022 33.0001 31.5 33.0001C31.8978 33.0001 32.2794 32.842 32.5607 32.5607C32.842 32.2794 33 31.8979 33 31.5001V28.5001C33 28.1022 32.842 27.7207 32.5607 27.4394C32.2794 27.1581 31.8978 27.0001 31.5 27.0001ZM18 12.9451C17.7538 12.9463 17.5117 13.0081 17.295 13.1251L16.095 13.7551L16.32 12.4051C16.3594 12.1663 16.3404 11.9215 16.2646 11.6916C16.1889 11.4618 16.0586 11.2537 15.885 11.0851L14.91 10.1251L16.26 9.93006C16.5015 9.89779 16.7315 9.80717 16.9302 9.66604C17.1288 9.52491 17.2901 9.33751 17.4 9.12006L18 7.89006L18.6 9.12006C18.7099 9.33751 18.8712 9.52491 19.0698 9.66604C19.2685 9.80717 19.4985 9.89779 19.74 9.93006L21.09 10.1251L20.115 11.0851C19.9414 11.2537 19.8111 11.4618 19.7354 11.6916C19.6596 11.9215 19.6406 12.1663 19.68 12.4051L19.905 13.7551L18.705 13.1251C18.4883 13.0081 18.2462 12.9463 18 12.9451Z" fill="#101130"/>
</svg>
