<svg width="97" height="253" viewBox="0 0 97 253" fill="none" xmlns="http://www.w3.org/2000/svg">
<path d="M8.45828 13.7343C15.4851 5.21794 33.2528 -7.87603 48.1095 7.87932C62.9661 23.6347 42.923 53.1227 31.0444 65.8973C25.1887 69.4458 12.9755 75.4783 10.9678 71.2201C8.45827 65.8973 6.95253 54.7196 27.531 45.1386C40.7481 39.461 69.2902 33.4285 77.7224 54.7196C81.5704 63.9457 82.2396 85.3786 54.1324 97.3016L18.9985 112.738M18.9985 112.738C5.61409 113.274 -13.6259 106.892 16.4889 77.0751C26.0253 72.4621 49.1134 63.1295 65.1746 62.7037C74.3764 64.6554 92.0772 74.3073 89.2665 97.3016C89.6011 101.915 83.3439 113.376 55.6382 122.318C49.2807 123.738 35.0598 126.683 29.0368 127.109L7.4545 130.303L18.9985 112.738ZM18.9985 112.738C27.7809 110.254 48.5085 106.031 61.1593 109.012C76.9727 112.738 83.2435 109.544 95.7913 130.303C97.9663 140.948 96.3936 162.771 72.7033 164.901C49.013 167.03 33.7213 162.949 29.0368 160.642V140.948M29.0368 140.948C46.2692 142.545 83.2435 141.374 93.2818 123.915C98.1336 111.496 98.5017 86.1238 61.1593 83.9947C52.1248 84.3495 32.8513 85.4851 28.033 87.1883L29.0368 124.98C46.6038 126.577 83.5446 134.135 90.7722 151.594C94.6202 161.707 95.8917 182.998 70.1937 187.256C60.6574 187.611 39.0751 186.298 29.0368 178.207M29.0368 140.948V178.207M29.0368 140.948C39.9116 143.609 63.8696 150.955 72.7033 159.045C83.4108 167.917 99.104 189.917 76.2167 206.95C69.0226 209.612 49.9163 211.741 31.0444 198.966M29.0368 178.207L31.0444 198.966M29.0368 178.207C41.0827 186.724 65.6765 207.376 67.6842 221.854C68.5207 230.725 66.2789 249.213 50.6191 252.194C46.6038 252.903 36.6659 252.832 29.0368 246.871L31.0444 198.966" stroke="#84829A"/>
</svg>
