<svg width="30" height="30" viewBox="0 0 30 30" fill="none" xmlns="http://www.w3.org/2000/svg">
<path d="M17.1675 27.27C20.4356 24.3938 26.25 18.5175 26.25 13.125C26.25 10.1413 25.0647 7.27983 22.955 5.17005C20.8452 3.06026 17.9837 1.875 15 1.875C12.0163 1.875 9.15483 3.06026 7.04505 5.17005C4.93526 7.27983 3.75 10.1413 3.75 13.125C3.75 18.5175 9.5625 24.3938 12.8325 27.27C13.429 27.8024 14.2005 28.0966 15 28.0966C15.7995 28.0966 16.571 27.8024 17.1675 27.27ZM11.25 13.125C11.25 12.1304 11.6451 11.1766 12.3483 10.4733C13.0516 9.77009 14.0054 9.375 15 9.375C15.9946 9.375 16.9484 9.77009 17.6516 10.4733C18.3549 11.1766 18.75 12.1304 18.75 13.125C18.75 14.1196 18.3549 15.0734 17.6516 15.7767C16.9484 16.4799 15.9946 16.875 15 16.875C14.0054 16.875 13.0516 16.4799 12.3483 15.7767C11.6451 15.0734 11.25 14.1196 11.25 13.125Z" fill="#185CFF"/>
</svg>
