<svg width="54" height="15" viewBox="0 0 54 15" fill="none" xmlns="http://www.w3.org/2000/svg">
<path d="M5.82272 2.60935H2.99592V3.73685H4.50194C4.3006 4.27644 3.80933 4.60664 3.06035 4.60664C1.96507 4.60664 1.28857 3.90598 1.28857 2.9476C1.28857 1.95702 1.99728 1.25636 2.9476 1.25636C3.58383 1.25636 4.09121 1.54628 4.32476 1.91675L5.42005 1.28857C4.94489 0.531535 4.03483 0 2.95566 0C1.29662 0 0 1.30468 0 2.93955C0 4.55832 1.27246 5.86299 3.04425 5.86299C4.62274 5.86299 5.82272 4.81603 5.82272 3.09257V2.60935Z" fill="white"/>
<path d="M7.43507 4.50999V3.51135H9.44846V2.28721H7.43507V1.353H9.6498V0.11275H6.1465V5.75024H9.69007V4.50999H7.43507Z" fill="white"/>
<path d="M13.7996 0.11275H9.61174V1.353H11.0614V5.75024H12.3499V1.353H13.7996V0.11275Z" fill="white"/>
<path d="M15.5717 0.11275V5.75024H16.8603V0.11275H15.5717Z" fill="white"/>
<path d="M21.2114 0.11275H17.0235V1.353H18.4732V5.75024H19.7617V1.353H21.2114V0.11275Z" fill="white"/>
<path d="M25.6734 5.86299C27.2921 5.86299 28.6049 4.59053 28.6049 2.9315C28.6049 1.27246 27.2921 0 25.6734 0C24.0546 0 22.7419 1.27246 22.7419 2.9315C22.7419 4.59053 24.0546 5.86299 25.6734 5.86299ZM25.6734 4.60664C24.7553 4.60664 24.0304 3.93819 24.0304 2.9315C24.0304 1.9248 24.7553 1.25636 25.6734 1.25636C26.5915 1.25636 27.3163 1.9248 27.3163 2.9315C27.3163 3.93819 26.5915 4.60664 25.6734 4.60664Z" fill="white"/>
<path d="M32.0686 0.11275V3.1731L29.8941 0.11275H28.9277V5.75024H30.2163V2.68989L32.3907 5.75024H33.3572V0.11275H32.0686Z" fill="white"/>
<path d="M5.82272 12.185V12.4025C5.82272 13.1058 5.57306 13.6991 5.07374 14.1823C4.57442 14.6602 3.91672 14.8991 3.10062 14.8991C2.24157 14.8991 1.53286 14.6199 0.974481 14.0615C0.416101 13.4978 0.136911 12.8078 0.136911 11.9918C0.136911 11.1757 0.413416 10.4884 0.966427 9.93004C1.51944 9.36629 2.2201 9.08442 3.06841 9.08442C3.58383 9.08442 4.05631 9.2079 4.48583 9.45488C4.92073 9.70186 5.25629 10.0321 5.49253 10.4455L5.11401 10.671C4.92609 10.3166 4.6469 10.0321 4.27644 9.81729C3.91135 9.60253 3.50867 9.49515 3.06841 9.49515C2.33822 9.49515 1.73688 9.73676 1.26441 10.22C0.797303 10.6978 0.563749 11.2884 0.563749 11.9918C0.563749 12.6951 0.799987 13.2884 1.27246 13.7716C1.74494 14.2494 2.35432 14.4884 3.10062 14.4884C3.76101 14.4884 4.29523 14.3085 4.70328 13.9488C5.11133 13.589 5.33951 13.1354 5.38783 12.5877H2.99592V12.185H5.82272Z" fill="white"/>
<path d="M11.5394 14.0535C10.9756 14.6172 10.2884 14.8991 9.47766 14.8991C8.66693 14.8991 7.97969 14.6172 7.41595 14.0535C6.8522 13.4843 6.57032 12.7971 6.57032 11.9918C6.57032 11.1864 6.8522 10.5018 7.41595 9.93809C7.97969 9.36898 8.66693 9.08442 9.47766 9.08442C10.2884 9.08442 10.9756 9.36898 11.5394 9.93809C12.1031 10.5018 12.385 11.1864 12.385 11.9918C12.385 12.7971 12.1031 13.4843 11.5394 14.0535ZM7.71393 13.7635C8.19714 14.2467 8.78505 14.4884 9.47766 14.4884C10.1703 14.4884 10.7555 14.2467 11.2333 13.7635C11.7165 13.275 11.9582 12.6844 11.9582 11.9918C11.9582 11.2991 11.7165 10.7112 11.2333 10.228C10.7555 9.73944 10.1703 9.49515 9.47766 9.49515C8.78505 9.49515 8.19714 9.73944 7.71393 10.228C7.23608 10.7112 6.99716 11.2991 6.99716 11.9918C6.99716 12.6844 7.23608 13.275 7.71393 13.7635Z" fill="white"/>
<path d="M18.1143 14.0535C17.5506 14.6172 16.8634 14.8991 16.0526 14.8991C15.2419 14.8991 14.5547 14.6172 13.9909 14.0535C13.4272 13.4843 13.1453 12.7971 13.1453 11.9918C13.1453 11.1864 13.4272 10.5018 13.9909 9.93809C14.5547 9.36898 15.2419 9.08442 16.0526 9.08442C16.8634 9.08442 17.5506 9.36898 18.1143 9.93809C18.6781 10.5018 18.96 11.1864 18.96 11.9918C18.96 12.7971 18.6781 13.4843 18.1143 14.0535ZM14.2889 13.7635C14.7721 14.2467 15.36 14.4884 16.0526 14.4884C16.7452 14.4884 17.3305 14.2467 17.8083 13.7635C18.2915 13.275 18.5331 12.6844 18.5331 11.9918C18.5331 11.2991 18.2915 10.7112 17.8083 10.228C17.3305 9.73944 16.7452 9.49515 16.0526 9.49515C15.36 9.49515 14.7721 9.73944 14.2889 10.228C13.8111 10.7112 13.5721 11.2991 13.5721 11.9918C13.5721 12.6844 13.8111 13.275 14.2889 13.7635Z" fill="white"/>
<path d="M25.4061 12.185V12.4025C25.4061 13.1058 25.1564 13.6991 24.6571 14.1823C24.1578 14.6602 23.5001 14.8991 22.684 14.8991C21.8249 14.8991 21.1162 14.6199 20.5578 14.0615C19.9995 13.4978 19.7203 12.8078 19.7203 11.9918C19.7203 11.1757 19.9968 10.4884 20.5498 9.93004C21.1028 9.36629 21.8035 9.08442 22.6518 9.08442C23.1672 9.08442 23.6397 9.2079 24.0692 9.45488C24.5041 9.70186 24.8397 10.0321 25.0759 10.4455L24.6974 10.671C24.5095 10.3166 24.2303 10.0321 23.8598 9.81729C23.4947 9.60253 23.092 9.49515 22.6518 9.49515C21.9216 9.49515 21.3203 9.73676 20.8478 10.22C20.3807 10.6978 20.1471 11.2884 20.1471 11.9918C20.1471 12.6951 20.3834 13.2884 20.8558 13.7716C21.3283 14.2494 21.9377 14.4884 22.684 14.4884C23.3444 14.4884 23.8786 14.3085 24.2866 13.9488C24.6947 13.589 24.9229 13.1354 24.9712 12.5877H22.5793V12.185H25.4061Z" fill="white"/>
<path d="M26.9027 14.4078H29.5603V14.8105H26.4758V9.17301H26.9027V14.4078Z" fill="white"/>
<path d="M30.8744 14.4078H33.6931V14.8105H30.4476V9.17301H33.6529V9.57568H30.8744V11.7663H33.4515V12.1689H30.8744V14.4078Z" fill="white"/>
<path d="M38.8056 9.17301C39.3103 9.17301 39.7291 9.33945 40.0619 9.67233C40.3948 10.0052 40.5613 10.4213 40.5613 10.9206C40.5613 11.42 40.3948 11.8361 40.0619 12.1689C39.7291 12.4964 39.3103 12.6602 38.8056 12.6602H37.3157V14.8105H36.8888V9.17301H38.8056ZM38.8056 12.2575C39.1921 12.2575 39.5089 12.1313 39.7559 11.879C40.0082 11.6267 40.1344 11.3072 40.1344 10.9206C40.1344 10.5287 40.0082 10.2065 39.7559 9.9542C39.5089 9.70186 39.1921 9.57568 38.8056 9.57568H37.3157V12.2575H38.8056Z" fill="white"/>
<path d="M42.0424 14.4078H44.7001V14.8105H41.6156V9.17301H42.0424V14.4078Z" fill="white"/>
<path d="M49.5378 14.8105L48.9902 13.377H46.1634L45.6157 14.8105H45.1647L47.3553 9.17301H47.8063L49.9888 14.8105H49.5378ZM46.3245 12.9743H48.8372L47.5808 9.69649L46.3245 12.9743Z" fill="white"/>
<path d="M54 9.17301L51.9463 12.4911V14.8105H51.5195V12.4911L49.4659 9.17301H49.9491L51.737 12.0803L53.5168 9.17301H54Z" fill="white"/>
</svg>
