<svg width="17" height="17" viewBox="0 0 17 17" fill="none" xmlns="http://www.w3.org/2000/svg">
<path d="M13.4157 12.2324L17 15.8158L15.8158 17L12.2324 13.4157C10.8991 14.4846 9.24062 15.0659 7.53175 15.0635C3.37422 15.0635 0 11.6893 0 7.53175C0 3.37422 3.37422 0 7.53175 0C11.6893 0 15.0635 3.37422 15.0635 7.53175C15.0659 9.24062 14.4846 10.8991 13.4157 12.2324ZM11.737 11.6114C12.799 10.5192 13.3922 9.05519 13.3898 7.53175C13.3898 4.29477 10.7679 1.67372 7.53175 1.67372C4.29477 1.67372 1.67372 4.29477 1.67372 7.53175C1.67372 10.7679 4.29477 13.3898 7.53175 13.3898C9.05519 13.3922 10.5192 12.799 11.6114 11.737L11.737 11.6114Z" fill="#CBD5E0"/>
</svg>
