<svg width="22" height="22" viewBox="0 0 22 22" fill="none" xmlns="http://www.w3.org/2000/svg">
<path d="M11.2045 10.7953L9.76171 12.2381C8.96357 13.0363 8.96357 14.3358 9.76171 15.1339C10.5598 15.9321 11.8594 15.9321 12.6575 15.1339L14.9292 12.8623C16.5255 11.266 16.5255 8.6772 14.9292 7.07069C13.3329 5.47441 10.744 5.47441 9.13754 7.07069L6.66128 9.54695C5.29011 10.9181 5.29011 13.1386 6.66128 14.5097" stroke="#9C9CA4" stroke-width="1.5" stroke-linecap="round" stroke-linejoin="round"/>
<path d="M11 21.2326C16.6513 21.2326 21.2326 16.6513 21.2326 11C21.2326 5.34871 16.6513 0.767442 11 0.767442C5.34871 0.767442 0.767442 5.34871 0.767442 11C0.767442 16.6513 5.34871 21.2326 11 21.2326Z" stroke="#9C9CA4" stroke-width="1.5" stroke-linecap="round" stroke-linejoin="round"/>
</svg>
