<svg width="19" height="19" viewBox="0 0 19 19" fill="none" xmlns="http://www.w3.org/2000/svg">
<path d="M6.88532 18.2156H12.1147C16.4725 18.2156 18.2156 16.4725 18.2156 12.1147V6.88532C18.2156 2.52752 16.4725 0.784403 12.1147 0.784403H6.88532C2.52752 0.784403 0.784403 2.52752 0.784403 6.88532V12.1147C0.784403 16.4725 2.52752 18.2156 6.88532 18.2156Z" stroke="#54577A" stroke-width="1.5" stroke-linecap="round" stroke-linejoin="round"/>
<path d="M10.0229 15.1651H13.3349C14.6422 15.1651 15.1651 14.6422 15.1651 13.3349V11.7661C15.1651 10.4587 14.6422 9.93578 13.3349 9.93578H10.0229C8.71559 9.93578 8.19265 10.4587 8.19265 11.7661V13.3349C8.19265 14.6422 8.71559 15.1651 10.0229 15.1651Z" stroke="#54577A" stroke-width="1.5" stroke-linecap="round" stroke-linejoin="round"/>
</svg>
