<svg width="15" height="15" viewBox="0 0 15 15" fill="none" xmlns="http://www.w3.org/2000/svg">
<path d="M5.39886 6.79623C5.33087 6.78943 5.24927 6.78943 5.17448 6.79623C3.55616 6.74183 2.27103 5.41591 2.27103 3.78399C2.27103 2.11809 3.61736 0.764958 5.29007 0.764958C6.95598 0.764958 8.3091 2.11809 8.3091 3.78399C8.30231 5.41591 7.01718 6.74183 5.39886 6.79623Z" stroke="#54577A" stroke-width="1.5" stroke-linecap="round" stroke-linejoin="round"/>
<path d="M10.3286 2.1249C11.6477 2.1249 12.7085 3.19244 12.7085 4.50477C12.7085 5.7899 11.6885 6.83704 10.417 6.88464C10.3626 6.87784 10.3014 6.87784 10.2402 6.88464" stroke="#54577A" stroke-width="1.5" stroke-linecap="round" stroke-linejoin="round"/>
<path d="M1.99909 9.30531C0.353581 10.4068 0.353581 12.2019 1.99909 13.2967C3.86899 14.5478 6.93562 14.5478 8.80552 13.2967C10.451 12.1951 10.451 10.4 8.80552 9.30531C6.94242 8.06097 3.87579 8.06097 1.99909 9.30531Z" stroke="#54577A" stroke-width="1.5" stroke-linecap="round" stroke-linejoin="round"/>
<path d="M11.641 13.0043C12.1305 12.9023 12.5929 12.7051 12.9737 12.4127C14.0344 11.6172 14.0344 10.3048 12.9737 9.50928C12.5997 9.2237 12.1441 9.03331 11.6614 8.92452" stroke="#54577A" stroke-width="1.5" stroke-linecap="round" stroke-linejoin="round"/>
</svg>
