<svg width="16" height="16" viewBox="0 0 16 16" fill="none" xmlns="http://www.w3.org/2000/svg">
<path d="M14.3998 4.39999C14.3999 4.72794 14.3193 5.05087 14.1652 5.34035C14.0111 5.62984 13.7882 5.87698 13.5161 6.06002C13.244 6.24306 12.931 6.35638 12.6048 6.39C12.2786 6.42361 11.9491 6.37649 11.6454 6.25279L10.6198 7.79119C10.8148 7.98822 10.9667 8.22364 11.0659 8.4825C11.1651 8.74136 11.2094 9.01802 11.196 9.29492C11.1826 9.57181 11.1118 9.8429 10.988 10.091C10.8643 10.339 10.6903 10.5587 10.4771 10.7359C10.264 10.9132 10.0163 11.0442 9.74985 11.1206C9.48338 11.197 9.20392 11.2173 8.92923 11.18C8.65453 11.1427 8.39058 11.0487 8.15415 10.9039C7.91771 10.7592 7.71395 10.5669 7.55579 10.3392L5.55899 11.1952C5.65896 11.6806 5.57514 12.1859 5.32378 12.613C5.07241 13.0401 4.67142 13.3587 4.19852 13.507C3.72563 13.6553 3.21451 13.6227 2.76427 13.4156C2.31402 13.2085 1.95671 12.8416 1.7616 12.386C1.56649 11.9304 1.54749 11.4186 1.70826 10.9498C1.86904 10.481 2.19815 10.0886 2.6318 9.84865C3.06544 9.6087 3.57273 9.53831 4.05532 9.65111C4.53792 9.76392 4.96144 10.0519 5.24379 10.4592L7.24059 9.60399C7.16705 9.24895 7.19141 8.88059 7.31106 8.53832C7.43072 8.19606 7.64117 7.89275 7.9199 7.66086C8.19863 7.42897 8.53516 7.27721 8.89348 7.22182C9.2518 7.16643 9.61845 7.20949 9.95419 7.34639L10.9798 5.80879C10.7484 5.57553 10.5781 5.28887 10.4839 4.97414C10.3896 4.65941 10.3743 4.32631 10.4394 4.00428C10.5045 3.68225 10.6479 3.38121 10.8569 3.12776C11.066 2.87432 11.3343 2.67628 11.638 2.55114C11.9418 2.42601 12.2717 2.37764 12.5986 2.4103C12.9255 2.44297 13.2394 2.55566 13.5124 2.73843C13.7854 2.92119 14.0092 3.1684 14.1639 3.4582C14.3187 3.74799 14.3997 4.07146 14.3998 4.39999Z" fill="#9497A1"/>
</svg>
