<svg width="84" height="140" viewBox="0 0 84 140" fill="none" xmlns="http://www.w3.org/2000/svg">
<circle cx="67.837" cy="15.5556" r="14.5199" fill="#3A0000" stroke="black" stroke-width="2.07141"/>
<path d="M8.72571 67.4072C8.72571 20.948 43.985 12.7899 61.6146 14.5183V67.4072H8.72571Z" fill="#995C5C" stroke="black" stroke-width="2.07141"/>
<path d="M61.6143 138.963V67.4074H28.4291L5.61427 138.963H61.6143Z" fill="#2D796B" stroke="black" stroke-width="2.07141"/>
<path d="M37.7629 126.518V67.4074H61.6147V126.518H37.7629Z" fill="#1B574C" stroke="black" stroke-width="2.07141"/>
<path d="M49.1701 34.2222H32.5775H30.5034L39.8367 43.5555L49.1701 34.2222Z" fill="black" stroke="black" stroke-width="2.07141"/>
<path d="M21.1703 34.2222H4.57772H2.50364L11.837 43.5555L21.1703 34.2222Z" fill="black" stroke="black" stroke-width="2.07141"/>
<path d="M20.1329 34.2222H30.5032" stroke="black" stroke-width="2.07141"/>
<path d="M50.2073 27.9998H22.616C35.0604 15.5554 53.6641 13.827 61.6147 14.5183V46.6665H54.3554V50.8146H50.2073V27.9998Z" fill="#3A0000" stroke="black" stroke-width="2.07141"/>
</svg>
