<svg width="21" height="20" viewBox="0 0 21 20" fill="none" xmlns="http://www.w3.org/2000/svg">
<path d="M8.77985 2.6403L4.34992 0.450341C1.95997 -0.719638 0 0.470341 0 3.09029V17.93C0 19.07 0.949983 20 2.10996 20H9.52983C10.0798 20 10.5298 19.55 10.5298 19V5.41025C10.5298 4.36027 9.73983 3.11029 8.77985 2.6403ZM6.99988 11.7501H3.52994C3.11995 11.7501 2.77995 11.4101 2.77995 11.0002C2.77995 10.5902 3.11995 10.2502 3.52994 10.2502H6.99988C7.40987 10.2502 7.74986 10.5902 7.74986 11.0002C7.74986 11.4101 7.41987 11.7501 6.99988 11.7501ZM6.99988 7.75021H3.52994C3.11995 7.75021 2.77995 7.41022 2.77995 7.00023C2.77995 6.59023 3.11995 6.25024 3.52994 6.25024H6.99988C7.40987 6.25024 7.74986 6.59023 7.74986 7.00023C7.74986 7.41022 7.41987 7.75021 6.99988 7.75021Z" fill="#6F6F6F"/>
<path d="M20.0294 16.0401V17.5C20.0294 18.88 18.9095 20 17.5295 20H12.9996C12.4596 20 12.0296 19.57 12.0296 19.03V16.8701C13.0996 17.0001 14.2295 16.6901 15.0395 16.0401C15.7195 16.5901 16.5895 16.9201 17.5395 16.9201C18.4695 16.9201 19.3394 16.5901 20.0294 16.0401Z" fill="#6F6F6F"/>
<path d="M20.0294 13.0501V13.0601C19.9494 14.3701 18.8795 15.4201 17.5395 15.4201C16.1495 15.4201 15.0395 14.2901 15.0395 12.9201C15.0395 14.4501 13.6295 15.6801 12.0296 15.3701V10.0002C12.0296 9.36019 12.6196 8.8802 13.2496 9.0202L15.0395 9.42019L15.5195 9.53019L17.5595 9.99018C18.0495 10.0902 18.4995 10.2602 18.8895 10.5102C18.8895 10.5202 18.8995 10.5202 18.8995 10.5202C18.9995 10.5902 19.0994 10.6702 19.1894 10.7602C19.6494 11.2202 19.9494 11.8901 20.0194 12.8701C20.0194 12.9301 20.0294 12.9901 20.0294 13.0501Z" fill="#6F6F6F"/>
</svg>
