<svg width="10" height="6" viewBox="0 0 10 6" fill="none" xmlns="http://www.w3.org/2000/svg">
<path d="M0.200091 0.225609C0.267059 0.157732 0.3476 0.102917 0.437115 0.0642925C0.52663 0.0256681 0.623365 0.00399161 0.721796 0.00050127C0.820227 -0.00298907 0.918425 0.011775 1.01078 0.0439501C1.10314 0.0761253 1.18785 0.125081 1.26007 0.188022L5 3.50224L8.73993 0.188022C8.81216 0.125089 8.89687 0.0761394 8.98923 0.0439689C9.08158 0.0117984 9.17978 -0.002963 9.27821 0.000527258C9.37664 0.00401751 9.47337 0.0256912 9.56288 0.0643108C9.6524 0.10293 9.73294 0.15774 9.79992 0.225609C9.86689 0.293479 9.91898 0.37308 9.95321 0.459866C9.98745 0.546653 10.0032 0.638927 9.99944 0.731418C9.99573 0.82391 9.97267 0.914809 9.93157 0.998925C9.89047 1.08304 9.83214 1.15873 9.75992 1.22166L5.50999 4.98034C5.37131 5.1012 5.18915 5.16836 5 5.16836C4.81086 5.16836 4.6287 5.1012 4.49001 4.98034L0.24009 1.22166C0.167856 1.15873 0.109522 1.08305 0.0684188 0.99893C0.0273154 0.914814 0.00424781 0.823914 0.000533444 0.73142C-0.00318092 0.638926 0.0125307 0.54665 0.046771 0.459862C0.0810113 0.373074 0.13311 0.293475 0.200091 0.225609Z" fill="#9497A1"/>
</svg>
