<svg width="128" height="52" viewBox="0 0 128 52" fill="none" xmlns="http://www.w3.org/2000/svg">
<path d="M26.53 34.42H20.21C17.05 34.42 16 32.32 16 30.21V21.79C16 18.63 17.05 17.58 20.21 17.58H26.53C29.69 17.58 30.74 18.63 30.74 21.79V30.21C30.74 33.37 29.68 34.42 26.53 34.42Z" stroke="#8E92BC" stroke-width="1.5" stroke-linecap="round" stroke-linejoin="round"/>
<path d="M33.52 31.1L30.74 29.15V22.84L33.52 20.89C34.88 19.94 36 20.52 36 22.19V29.81C36 31.48 34.88 32.06 33.52 31.1Z" stroke="#8E92BC" stroke-width="1.5" stroke-linecap="round" stroke-linejoin="round"/>
<path d="M25.5 25C26.3284 25 27 24.3284 27 23.5C27 22.6716 26.3284 22 25.5 22C24.6716 22 24 22.6716 24 23.5C24 24.3284 24.6716 25 25.5 25Z" stroke="#8E92BC" stroke-width="1.5" stroke-linecap="round" stroke-linejoin="round"/>
<rect x="0.5" y="0.5" width="51" height="51" rx="25.5" stroke="#F5F5F7"/>
<path d="M111.97 32.33C111.97 32.69 111.89 33.06 111.72 33.42C111.55 33.78 111.33 34.12 111.04 34.44C110.55 34.98 110.01 35.37 109.4 35.62C108.8 35.87 108.15 36 107.45 36C106.43 36 105.34 35.76 104.19 35.27C103.04 34.78 101.89 34.12 100.75 33.29C99.6 32.45 98.51 31.52 97.47 30.49C96.44 29.45 95.51 28.36 94.68 27.22C93.86 26.08 93.2 24.94 92.72 23.81C92.24 22.67 92 21.58 92 20.54C92 19.86 92.12 19.21 92.36 18.61C92.6 18 92.98 17.44 93.51 16.94C94.15 16.31 94.85 16 95.59 16C95.87 16 96.15 16.06 96.4 16.18C96.66 16.3 96.89 16.48 97.07 16.74L99.39 20.01C99.57 20.26 99.7 20.49 99.79 20.71C99.88 20.92 99.93 21.13 99.93 21.32C99.93 21.56 99.86 21.8 99.72 22.03C99.59 22.26 99.4 22.5 99.16 22.74L98.4 23.53C98.29 23.64 98.24 23.77 98.24 23.93C98.24 24.01 98.25 24.08 98.27 24.16C98.3 24.24 98.33 24.3 98.35 24.36C98.53 24.69 98.84 25.12 99.28 25.64C99.73 26.16 100.21 26.69 100.73 27.22C101.27 27.75 101.79 28.24 102.32 28.69C102.84 29.13 103.27 29.43 103.61 29.61C103.66 29.63 103.72 29.66 103.79 29.69C103.87 29.72 103.95 29.73 104.04 29.73C104.21 29.73 104.34 29.67 104.45 29.56L105.21 28.81C105.46 28.56 105.7 28.37 105.93 28.25C106.16 28.11 106.39 28.04 106.64 28.04C106.83 28.04 107.03 28.08 107.25 28.17C107.47 28.26 107.7 28.39 107.95 28.56L111.26 30.91C111.52 31.09 111.7 31.3 111.81 31.55C111.91 31.8 111.97 32.05 111.97 32.33Z" stroke="#8E92BC" stroke-width="1.5" stroke-miterlimit="10"/>
<rect x="76.5" y="0.5" width="51" height="51" rx="25.5" stroke="#F5F5F7"/>
</svg>
