<svg width="30" height="30" viewBox="0 0 30 30" fill="none" xmlns="http://www.w3.org/2000/svg">
<path d="M25.5 15.3737C25.5003 15.2046 25.4631 15.0374 25.391 14.8844C25.3189 14.7313 25.2137 14.5962 25.083 14.4887L20.664 10.0787C20.4531 9.86806 20.1671 9.74973 19.869 9.74973C19.5709 9.74973 19.2849 9.86806 19.074 10.0787C18.9698 10.1829 18.8871 10.3066 18.8307 10.4428C18.7743 10.5789 18.7452 10.7249 18.7452 10.8722C18.7452 11.0196 18.7743 11.1655 18.8307 11.3017C18.8871 11.4378 18.9698 11.5615 19.074 11.6657L21.651 14.2487L5.625 14.2487C5.32663 14.2487 5.04048 14.3673 4.8295 14.5782C4.61853 14.7892 4.5 15.0754 4.5 15.3737C4.5 15.6721 4.61853 15.9583 4.8295 16.1692C5.04048 16.3802 5.32663 16.4987 5.625 16.4987L21.666 16.4987L19.0665 19.0817C18.9621 19.186 18.8792 19.3098 18.8226 19.446C18.7661 19.5823 18.737 19.7284 18.737 19.876C18.737 20.0235 18.7661 20.1696 18.8226 20.3059C18.8792 20.4422 18.9621 20.566 19.0665 20.6702C19.171 20.7748 19.295 20.8577 19.4316 20.9143C19.5681 20.9709 19.7145 21 19.8622 21C20.01 21 20.1564 20.9709 20.2929 20.9143C20.4295 20.8577 20.5535 20.7748 20.658 20.6702L25.17 16.1642C25.2753 16.0614 25.3588 15.9384 25.4155 15.8026C25.4722 15.6668 25.5009 15.5209 25.5 15.3737Z" fill="#002B4E"/>
</svg>
