<svg width="19" height="15" viewBox="0 0 19 15" fill="none" xmlns="http://www.w3.org/2000/svg">
<path d="M0.77217 5.7849V9.21677C0.77217 10.9327 1.63014 11.7907 3.34607 11.7907H4.57296C4.89041 11.7907 5.20786 11.885 5.4824 12.0481L7.98767 13.6181C10.1497 14.9737 11.9257 13.9871 11.9257 11.4389V3.56277C11.9257 1.00603 10.1497 0.0279481 7.98767 1.38353L5.4824 2.95361C5.20786 3.11663 4.89041 3.211 4.57296 3.211H3.34607C1.63014 3.211 0.77217 4.06897 0.77217 5.7849Z" stroke="#54577A" stroke-width="1.5"/>
<path d="M14.4996 4.06897C16.0268 6.10235 16.0268 8.89932 14.4996 10.9327" stroke="#54577A" stroke-width="1.5" stroke-linecap="round" stroke-linejoin="round"/>
<path d="M16.0697 1.92405C18.5492 5.22722 18.5492 9.77444 16.0697 13.0776" stroke="#54577A" stroke-width="1.5" stroke-linecap="round" stroke-linejoin="round"/>
</svg>
