<svg width="16" height="16" viewBox="0 0 16 16" fill="none" xmlns="http://www.w3.org/2000/svg">
<g clip-path="url(#clip0_32_1134)">
<path d="M9.28271 7.86647L7.48591 7.02807C7.32911 6.95527 7.20031 7.03687 7.20031 7.21047V8.78967C7.20031 8.96327 7.32911 9.04487 7.48591 8.97207L9.28191 8.13367C9.43951 8.06007 9.43951 7.94007 9.28271 7.86647ZM8.00031 0.320068C3.75871 0.320068 0.320312 3.75847 0.320312 8.00007C0.320312 12.2417 3.75871 15.6801 8.00031 15.6801C12.2419 15.6801 15.6803 12.2417 15.6803 8.00007C15.6803 3.75847 12.2419 0.320068 8.00031 0.320068ZM8.00031 11.1201C4.06911 11.1201 4.00031 10.7657 4.00031 8.00007C4.00031 5.23447 4.06911 4.88007 8.00031 4.88007C11.9315 4.88007 12.0003 5.23447 12.0003 8.00007C12.0003 10.7657 11.9315 11.1201 8.00031 11.1201Z" fill="#9497A1"/>
</g>
<defs>
<clipPath id="clip0_32_1134">
<rect width="16" height="16" fill="white"/>
</clipPath>
</defs>
</svg>
