<svg width="17" height="19" viewBox="0 0 17 19" fill="none" xmlns="http://www.w3.org/2000/svg">
<path d="M14.0401 5.92C15.6748 5.92 17.0001 4.59476 17.0001 2.96C17.0001 1.32524 15.6748 0 14.0401 0C12.4053 0 11.0801 1.32524 11.0801 2.96C11.0801 4.59476 12.4053 5.92 14.0401 5.92Z" fill="#0C0507"/>
<path d="M2.96 5.92C4.59476 5.92 5.92 4.59476 5.92 2.96C5.92 1.32524 4.59476 0 2.96 0C1.32524 0 0 1.32524 0 2.96C0 4.59476 1.32524 5.92 2.96 5.92Z" fill="#0C0507"/>
<path d="M14.0401 18.22C15.6748 18.22 17.0001 16.8948 17.0001 15.26C17.0001 13.6252 15.6748 12.3 14.0401 12.3C12.4053 12.3 11.0801 13.6252 11.0801 15.26C11.0801 16.8948 12.4053 18.22 14.0401 18.22Z" fill="#0C0507"/>
<path d="M2.96 18.22C4.59476 18.22 5.92 16.8948 5.92 15.26C5.92 13.6252 4.59476 12.3 2.96 12.3C1.32524 12.3 0 13.6252 0 15.26C0 16.8948 1.32524 18.22 2.96 18.22Z" fill="#0C0507"/>
</svg>
