<svg width="25" height="25" viewBox="0 0 25 25" fill="none" xmlns="http://www.w3.org/2000/svg">
<path d="M20.499 6.40958C20.8068 6.68283 20.9864 7.05968 20.9984 7.45728C21.0104 7.85487 20.8537 8.24066 20.5629 8.52982L11.5102 17.5309C11.3635 17.6765 11.1872 17.793 10.9917 17.8736C10.7962 17.9541 10.5855 17.9971 10.372 17.9999C10.1586 18.0027 9.94668 17.9652 9.74888 17.8898C9.55107 17.8144 9.37137 17.7026 9.22038 17.5609L4.42778 13.0603C4.1456 12.776 3.99197 12.3998 3.99927 12.0112C4.00657 11.6225 4.17423 11.2517 4.46693 10.9769C4.75963 10.702 5.1545 10.5446 5.56837 10.5377C5.98224 10.5308 6.38279 10.6751 6.68563 10.9401L10.3174 14.3485L18.2411 6.46958C18.5321 6.18054 18.9334 6.01185 19.3568 6.0006C19.7802 5.98935 20.191 6.13646 20.499 6.40958Z" fill="#185CFF"/>
</svg>
