<svg width="20" height="20" viewBox="0 0 20 20" fill="none" xmlns="http://www.w3.org/2000/svg">
<path d="M7.73318 4.20703C7.87723 4.06997 8.0698 3.99572 8.26857 4.00059C8.46733 4.00547 8.65603 4.08907 8.79318 4.23303L13.7942 9.48303C13.9272 9.62251 14.0013 9.80782 14.0013 10.0005C14.0013 10.1932 13.9272 10.3785 13.7942 10.518L8.79418 15.768C8.72629 15.8394 8.645 15.8967 8.55496 15.9367C8.46493 15.9766 8.3679 15.9985 8.26942 16.0009C8.17095 16.0034 8.07295 15.9864 7.98103 15.951C7.8891 15.9156 7.80506 15.8624 7.73368 15.7945C7.66231 15.7266 7.60501 15.6453 7.56505 15.5553C7.52509 15.4653 7.50326 15.3682 7.5008 15.2698C7.49834 15.1713 7.5153 15.0733 7.55071 14.9814C7.58612 14.8894 7.63929 14.8054 7.70718 14.734L12.2162 10L7.70618 5.26603C7.56925 5.12185 7.49518 4.92921 7.50024 4.73044C7.50531 4.53167 7.58909 4.34304 7.73318 4.20603V4.20703Z" fill="#292D33"/>
</svg>
