<svg width="24" height="24" viewBox="0 0 24 24" fill="none" xmlns="http://www.w3.org/2000/svg">
<path d="M4.29279 8.29308C4.48031 8.10561 4.73462 8.00029 4.99979 8.00029C5.26495 8.00029 5.51926 8.10561 5.70679 8.29308L11.9998 14.5861L18.2928 8.29308C18.385 8.19757 18.4954 8.12139 18.6174 8.06898C18.7394 8.01657 18.8706 7.98898 19.0034 7.98783C19.1362 7.98668 19.2678 8.01198 19.3907 8.06226C19.5136 8.11254 19.6253 8.18679 19.7192 8.28069C19.8131 8.37458 19.8873 8.48623 19.9376 8.60913C19.9879 8.73202 20.0132 8.8637 20.012 8.99648C20.0109 9.12926 19.9833 9.26048 19.9309 9.38249C19.8785 9.50449 19.8023 9.61483 19.7068 9.70708L12.7068 16.7071C12.5193 16.8946 12.265 16.9999 11.9998 16.9999C11.7346 16.9999 11.4803 16.8946 11.2928 16.7071L4.29279 9.70708C4.10532 9.51955 4 9.26525 4 9.00008C4 8.73492 4.10532 8.48061 4.29279 8.29308Z" fill="#292D33"/>
</svg>
