<svg width="60" height="60" viewBox="0 0 60 60" fill="none" xmlns="http://www.w3.org/2000/svg">
<path d="M16.5011 51H30.0011V45C30.0011 43.9468 30.2784 42.9121 30.805 42.0001C31.3316 41.088 32.0891 40.3306 33.0012 39.804C33.9133 39.2774 34.9479 39.0001 36.0011 39.0002C37.0543 39.0002 38.089 39.2774 39.0011 39.804V33C39.0011 31.4087 39.6332 29.8826 40.7585 28.7574C41.8837 27.6321 43.4098 27 45.0011 27C46.5924 27 48.1185 27.6321 49.2437 28.7574C50.369 29.8826 51.0011 31.4087 51.0011 33V21H9.0011V43.5C9.0011 45.4891 9.79127 47.3968 11.1978 48.8033C12.6043 50.2098 14.512 51 16.5011 51ZM43.5011 9C45.4902 9 47.3979 9.79018 48.8044 11.1967C50.2109 12.6032 51.0011 14.5109 51.0011 16.5V18H9.0011V16.5C9.0011 14.5109 9.79127 12.6032 11.1978 11.1967C12.6043 9.79018 14.512 9 16.5011 9H43.5011ZM45.0011 30C44.2054 30 43.4424 30.3161 42.8798 30.8787C42.3172 31.4413 42.0011 32.2044 42.0011 33V54C42.0011 54.7957 42.3172 55.5587 42.8798 56.1213C43.4424 56.6839 44.2054 57 45.0011 57C45.7967 57 46.5598 56.6839 47.1224 56.1213C47.685 55.5587 48.0011 54.7957 48.0011 54V33C48.0011 32.2044 47.685 31.4413 47.1224 30.8787C46.5598 30.3161 45.7967 30 45.0011 30ZM36.0011 42C35.2055 42 34.4424 42.3161 33.8798 42.8787C33.3172 43.4413 33.0011 44.2043 33.0011 45V54C33.0011 54.7957 33.3172 55.5587 33.8798 56.1213C34.4424 56.6839 35.2055 57 36.0011 57C36.7967 57 37.5598 56.6839 38.1224 56.1213C38.685 55.5587 39.0011 54.7957 39.0011 54V45C39.0011 44.2043 38.685 43.4413 38.1224 42.8787C37.5598 42.3161 36.7967 42 36.0011 42ZM51.0011 39C51.0011 38.2044 51.3172 37.4413 51.8798 36.8787C52.4424 36.3161 53.2054 36 54.0011 36C54.7967 36 55.5598 36.3161 56.1224 36.8787C56.685 37.4413 57.0011 38.2044 57.0011 39V54C57.0011 54.7957 56.685 55.5587 56.1224 56.1213C55.5598 56.6839 54.7967 57 54.0011 57C53.2054 57 52.4424 56.6839 51.8798 56.1213C51.3172 55.5587 51.0011 54.7957 51.0011 54V39Z" fill="#185CFF"/>
</svg>
