<svg width="16" height="16" viewBox="0 0 16 16" fill="none" xmlns="http://www.w3.org/2000/svg">
<path d="M7.9999 1.59998C7.15121 1.59998 6.33728 1.93712 5.73716 2.53723C5.13704 3.13735 4.7999 3.95128 4.7999 4.79998C4.7999 5.64867 5.13704 6.4626 5.73716 7.06272C6.33728 7.66283 7.15121 7.99998 7.9999 7.99998C8.8486 7.99998 9.66253 7.66283 10.2626 7.06272C10.8628 6.4626 11.1999 5.64867 11.1999 4.79998C11.1999 3.95128 10.8628 3.13735 10.2626 2.53723C9.66253 1.93712 8.8486 1.59998 7.9999 1.59998ZM4.0071 8.79998C3.79641 8.79913 3.58763 8.83989 3.39272 8.91991C3.19782 8.99993 3.02063 9.11764 2.87131 9.26629C2.72199 9.41493 2.60349 9.5916 2.5226 9.78614C2.4417 9.98068 2.40001 10.1893 2.3999 10.4C2.3999 11.7528 3.0663 12.7728 4.1079 13.4376C5.1335 14.0912 6.5159 14.4 7.9999 14.4C9.4839 14.4 10.8663 14.0912 11.8919 13.4376C12.9335 12.7736 13.5999 11.752 13.5999 10.4C13.5999 9.97563 13.4313 9.56866 13.1313 9.2686C12.8312 8.96855 12.4242 8.79998 11.9999 8.79998H4.0071Z" fill="#9497A1"/>
</svg>
