<svg width="36" height="36" viewBox="0 0 36 36" fill="none" xmlns="http://www.w3.org/2000/svg">
<path opacity="0.8" d="M24 21H12C11.6022 21 11.2206 21.158 10.9393 21.4393C10.658 21.7206 10.5 22.1022 10.5 22.5C10.5 22.8978 10.658 23.2794 10.9393 23.5607C11.2206 23.842 11.6022 24 12 24H24C24.3978 24 24.7794 23.842 25.0607 23.5607C25.342 23.2794 25.5 22.8978 25.5 22.5C25.5 22.1022 25.342 21.7206 25.0607 21.4393C24.7794 21.158 24.3978 21 24 21ZM24 15H15C14.6022 15 14.2206 15.158 13.9393 15.4393C13.658 15.7206 13.5 16.1022 13.5 16.5C13.5 16.8978 13.658 17.2794 13.9393 17.5607C14.2206 17.842 14.6022 18 15 18H24C24.3978 18 24.7794 17.842 25.0607 17.5607C25.342 17.2794 25.5 16.8978 25.5 16.5C25.5 16.1022 25.342 15.7206 25.0607 15.4393C24.7794 15.158 24.3978 15 24 15ZM30 6H25.5V4.5C25.5 4.10218 25.342 3.72064 25.0607 3.43934C24.7794 3.15804 24.3978 3 24 3C23.6022 3 23.2206 3.15804 22.9393 3.43934C22.658 3.72064 22.5 4.10218 22.5 4.5V6H19.5V4.5C19.5 4.10218 19.342 3.72064 19.0607 3.43934C18.7794 3.15804 18.3978 3 18 3C17.6022 3 17.2206 3.15804 16.9393 3.43934C16.658 3.72064 16.5 4.10218 16.5 4.5V6H13.5V4.5C13.5 4.10218 13.342 3.72064 13.0607 3.43934C12.7794 3.15804 12.3978 3 12 3C11.6022 3 11.2206 3.15804 10.9393 3.43934C10.658 3.72064 10.5 4.10218 10.5 4.5V6H6C5.60218 6 5.22064 6.15804 4.93934 6.43934C4.65804 6.72064 4.5 7.10218 4.5 7.5V28.5C4.5 29.6935 4.97411 30.8381 5.81802 31.682C6.66193 32.5259 7.80653 33 9 33H27C28.1935 33 29.3381 32.5259 30.182 31.682C31.0259 30.8381 31.5 29.6935 31.5 28.5V7.5C31.5 7.10218 31.342 6.72064 31.0607 6.43934C30.7794 6.15804 30.3978 6 30 6ZM28.5 28.5C28.5 28.8978 28.342 29.2794 28.0607 29.5607C27.7794 29.842 27.3978 30 27 30H9C8.60218 30 8.22064 29.842 7.93934 29.5607C7.65804 29.2794 7.5 28.8978 7.5 28.5V9H10.5V10.5C10.5 10.8978 10.658 11.2794 10.9393 11.5607C11.2206 11.842 11.6022 12 12 12C12.3978 12 12.7794 11.842 13.0607 11.5607C13.342 11.2794 13.5 10.8978 13.5 10.5V9H16.5V10.5C16.5 10.8978 16.658 11.2794 16.9393 11.5607C17.2206 11.842 17.6022 12 18 12C18.3978 12 18.7794 11.842 19.0607 11.5607C19.342 11.2794 19.5 10.8978 19.5 10.5V9H22.5V10.5C22.5 10.8978 22.658 11.2794 22.9393 11.5607C23.2206 11.842 23.6022 12 24 12C24.3978 12 24.7794 11.842 25.0607 11.5607C25.342 11.2794 25.5 10.8978 25.5 10.5V9H28.5V28.5Z" fill="#101130"/>
</svg>
