<svg width="20" height="20" viewBox="0 0 20 20" fill="none" xmlns="http://www.w3.org/2000/svg">
<path d="M14.7976 0H12.1976C8.99756 0 6.99756 2 6.99756 5.2V9.25H13.2476C13.6576 9.25 13.9976 9.59 13.9976 10C13.9976 10.41 13.6576 10.75 13.2476 10.75H6.99756V14.8C6.99756 18 8.99756 20 12.1976 20H14.7876C17.9876 20 19.9876 18 19.9876 14.8V5.2C19.9976 2 17.9976 0 14.7976 0Z" fill="#0C0507"/>
<path d="M2.5575 9.25003L4.6275 7.18003C4.7775 7.03003 4.8475 6.84003 4.8475 6.65003C4.8475 6.46003 4.7775 6.26003 4.6275 6.12003C4.3375 5.83003 3.8575 5.83003 3.5675 6.12003L0.2175 9.47003C-0.0725 9.76003 -0.0725 10.24 0.2175 10.53L3.5675 13.88C3.8575 14.17 4.3375 14.17 4.6275 13.88C4.9175 13.59 4.9175 13.11 4.6275 12.82L2.5575 10.75H6.9975V9.25003H2.5575Z" fill="#0C0507"/>
</svg>
