<svg width="23" height="19" viewBox="0 0 23 19" fill="none" xmlns="http://www.w3.org/2000/svg">
<path d="M3.8 10.64C3.49937 10.64 3.2055 10.7291 2.95553 10.8962C2.70557 11.0632 2.51075 11.3006 2.3957 11.5783C2.28066 11.8561 2.25056 12.1617 2.30921 12.4565C2.36786 12.7514 2.51262 13.0222 2.7252 13.2348C2.93777 13.4474 3.20861 13.5922 3.50346 13.6508C3.79832 13.7095 4.10394 13.6793 4.38168 13.5643C4.65942 13.4493 4.89682 13.2544 5.06384 13.0045C5.23086 12.7545 5.32 12.4606 5.32 12.16C5.32 11.7569 5.15986 11.3703 4.8748 11.0852C4.58975 10.8001 4.20313 10.64 3.8 10.64ZM3.8 12.92C3.64969 12.92 3.50275 12.8754 3.37777 12.7919C3.25279 12.7084 3.15538 12.5897 3.09785 12.4508C3.04033 12.312 3.02528 12.1592 3.0546 12.0117C3.08393 11.8643 3.15631 11.7289 3.2626 11.6226C3.36889 11.5163 3.50431 11.4439 3.65173 11.4146C3.79916 11.3853 3.95197 11.4003 4.09084 11.4579C4.22971 11.5154 4.34841 11.6128 4.43192 11.7378C4.51543 11.8628 4.56 12.0097 4.56 12.16C4.56 12.3616 4.47993 12.5549 4.3374 12.6974C4.19487 12.8399 4.00157 12.92 3.8 12.92Z" fill="white"/>
<path d="M19 10.64C18.6994 10.64 18.4055 10.7291 18.1555 10.8962C17.9056 11.0632 17.7107 11.3006 17.5957 11.5783C17.4807 11.8561 17.4506 12.1617 17.5092 12.4565C17.5679 12.7514 17.7126 13.0222 17.9252 13.2348C18.1378 13.4474 18.4086 13.5922 18.7035 13.6508C18.9983 13.7095 19.3039 13.6793 19.5817 13.5643C19.8594 13.4493 20.0968 13.2544 20.2638 13.0045C20.4308 12.7545 20.52 12.4606 20.52 12.16C20.52 11.7569 20.3599 11.3703 20.0748 11.0852C19.7897 10.8001 19.4031 10.64 19 10.64ZM19 12.92C18.8497 12.92 18.7027 12.8754 18.5778 12.7919C18.4528 12.7084 18.3554 12.5897 18.2979 12.4508C18.2403 12.312 18.2253 12.1592 18.2546 12.0117C18.2839 11.8643 18.3563 11.7289 18.4626 11.6226C18.5689 11.5163 18.7043 11.4439 18.8517 11.4146C18.9992 11.3853 19.152 11.4003 19.2908 11.4579C19.4297 11.5154 19.5484 11.6128 19.6319 11.7378C19.7154 11.8628 19.76 12.0097 19.76 12.16C19.76 12.3616 19.6799 12.5549 19.5374 12.6974C19.3949 12.8399 19.2016 12.92 19 12.92Z" fill="white"/>
<path d="M7.98 12.54H14.82V13.3H7.98V12.54Z" fill="white"/>
<path d="M7.98 11.02H14.82V11.78H7.98V11.02Z" fill="white"/>
<path d="M10.26 5.32H12.54V6.08H10.26V5.32Z" fill="white"/>
<path d="M22.8 8.74V7.98C22.7991 7.67793 22.6787 7.38849 22.4651 7.17489C22.2515 6.9613 21.9621 6.8409 21.66 6.84H20.1552L19.3686 4.0812L19.133 3.1426C19.0712 2.89615 18.9288 2.67742 18.7284 2.52114C18.5281 2.36486 18.2813 2.27999 18.0272 2.28H14.82V0.76C14.8194 0.55862 14.7391 0.365661 14.5967 0.223263C14.4543 0.0808658 14.2614 0.000601436 14.06 0H8.74C8.53862 0.000601436 8.34566 0.0808658 8.20326 0.223263C8.06087 0.365661 7.9806 0.55862 7.98 0.76V2.28H4.7728C4.51871 2.27999 4.2719 2.36486 4.07156 2.52114C3.87122 2.67742 3.72883 2.89615 3.667 3.1426L3.4352 4.0774L2.6448 6.84H1.14C0.837931 6.8409 0.548491 6.9613 0.334895 7.17489C0.121299 7.38849 0.000902154 7.67793 0 7.98V8.74C0.000615387 8.9325 0.0500994 9.1217 0.143814 9.28985C0.237528 9.45801 0.372404 9.59961 0.5358 9.7014C0.19228 10.0544 4.73514e-05 10.5275 0 11.02V15.58C0.000523882 15.7394 0.0346347 15.8969 0.100109 16.0423C0.165584 16.1876 0.260953 16.3176 0.38 16.4236V17.86C0.380902 18.1621 0.501299 18.4515 0.714895 18.6651C0.928491 18.8787 1.21793 18.9991 1.52 19H4.56C4.86207 18.9991 5.15151 18.8787 5.36511 18.6651C5.5787 18.4515 5.6991 18.1621 5.7 17.86V16.72H17.1V17.86C17.1009 18.1621 17.2213 18.4515 17.4349 18.6651C17.6485 18.8787 17.9379 18.9991 18.24 19H21.28C21.5821 18.9991 21.8715 18.8787 22.0851 18.6651C22.2987 18.4515 22.4191 18.1621 22.42 17.86V16.4236C22.539 16.3176 22.6344 16.1876 22.6999 16.0423C22.7654 15.8969 22.7995 15.7394 22.8 15.58V11.02C22.8 10.5275 22.6077 10.0544 22.2642 9.7014C22.4276 9.59961 22.5625 9.45801 22.6562 9.28985C22.7499 9.1217 22.7994 8.9325 22.8 8.74ZM8.74 0.76H14.06V2.28H8.74V0.76ZM4.4042 3.3288C4.42457 3.24641 4.47193 3.17322 4.53873 3.12088C4.60553 3.06854 4.68793 3.04007 4.7728 3.04H18.0272C18.1121 3.04007 18.1945 3.06854 18.2613 3.12088C18.3281 3.17322 18.3754 3.24641 18.3958 3.3288L18.5136 3.8H4.2864L4.4042 3.3288ZM4.085 4.56H18.715L20.0146 9.12H9.0858C8.99649 8.58895 8.72188 8.10674 8.31073 7.75896C7.89959 7.41119 7.3785 7.22036 6.84 7.22036C6.3015 7.22036 5.78041 7.41119 5.36927 7.75896C4.95812 8.10674 4.68351 8.58895 4.5942 9.12H2.7854L4.085 4.56ZM8.3068 9.12H5.3732C5.45617 8.79393 5.64542 8.50481 5.91105 8.2983C6.17668 8.0918 6.50354 7.97969 6.84 7.97969C7.17646 7.97969 7.50332 8.0918 7.76895 8.2983C8.03458 8.50481 8.22383 8.79393 8.3068 9.12ZM0.76 7.98C0.76 7.87922 0.800036 7.78256 0.871299 7.7113C0.942563 7.64004 1.03922 7.6 1.14 7.6H2.4282L1.995 9.12H1.14C1.03922 9.12 0.942563 9.07996 0.871299 9.0087C0.800036 8.93744 0.76 8.84078 0.76 8.74V7.98ZM4.94 17.86C4.94 17.9608 4.89996 18.0574 4.8287 18.1287C4.75744 18.2 4.66078 18.24 4.56 18.24H1.52C1.41922 18.24 1.32256 18.2 1.2513 18.1287C1.18004 18.0574 1.14 17.9608 1.14 17.86V16.72H4.94V17.86ZM21.66 17.86C21.66 17.9608 21.62 18.0574 21.5487 18.1287C21.4774 18.2 21.3808 18.24 21.28 18.24H18.24C18.1392 18.24 18.0426 18.2 17.9713 18.1287C17.9 18.0574 17.86 17.9608 17.86 17.86V16.72H21.66V17.86ZM22.04 15.58C22.04 15.6808 22 15.7774 21.9287 15.8487C21.8574 15.92 21.7608 15.96 21.66 15.96H1.14C1.03922 15.96 0.942563 15.92 0.871299 15.8487C0.800036 15.7774 0.76 15.6808 0.76 15.58V15.2H22.04V15.58ZM22.04 14.44H0.76V11.02C0.760902 10.7179 0.881299 10.4285 1.09489 10.2149C1.30849 10.0013 1.59793 9.8809 1.9 9.88H20.9C21.2021 9.8809 21.4915 10.0013 21.7051 10.2149C21.9187 10.4285 22.0391 10.7179 22.04 11.02V14.44ZM22.04 8.74C22.04 8.84078 22 8.93744 21.9287 9.0087C21.8574 9.07996 21.7608 9.12 21.66 9.12H20.805L20.3718 7.6H21.66C21.7608 7.6 21.8574 7.64004 21.9287 7.7113C22 7.78256 22.04 7.87922 22.04 7.98V8.74Z" fill="white"/>
</svg>
