<svg width="36" height="36" viewBox="0 0 36 36" fill="none" xmlns="http://www.w3.org/2000/svg">
<path opacity="0.8" d="M31.5 21H30V6H31.5C31.8978 6 32.2794 5.84196 32.5607 5.56066C32.842 5.27936 33 4.89782 33 4.5C33 4.10218 32.842 3.72064 32.5607 3.43934C32.2794 3.15804 31.8978 3 31.5 3H4.5C4.10218 3 3.72064 3.15804 3.43934 3.43934C3.15804 3.72064 3 4.10218 3 4.5C3 4.89782 3.15804 5.27936 3.43934 5.56066C3.72064 5.84196 4.10218 6 4.5 6H6V21H4.5C4.10218 21 3.72064 21.158 3.43934 21.4393C3.15804 21.7206 3 22.1022 3 22.5C3 22.8978 3.15804 23.2794 3.43934 23.5607C3.72064 23.842 4.10218 24 4.5 24H16.5V25.725L9.675 30.225C9.395 30.3983 9.17982 30.659 9.06265 30.9667C8.94549 31.2745 8.93285 31.6122 9.02669 31.9279C9.12053 32.2435 9.31564 32.5195 9.5819 32.7133C9.84816 32.907 10.1708 33.0078 10.5 33C10.7949 33.0034 11.0834 32.9142 11.325 32.745L16.5 29.325V31.5C16.5 31.8978 16.658 32.2794 16.9393 32.5607C17.2206 32.842 17.6022 33 18 33C18.3978 33 18.7794 32.842 19.0607 32.5607C19.342 32.2794 19.5 31.8978 19.5 31.5V29.325L24.675 32.745C24.9166 32.9142 25.2051 33.0034 25.5 33C25.8205 32.9975 26.1317 32.8925 26.3882 32.7002C26.6446 32.508 26.8327 32.2387 26.9249 31.9318C27.0172 31.6249 27.0087 31.2965 26.9007 30.9947C26.7928 30.693 26.591 30.4337 26.325 30.255L19.5 25.755V24H31.5C31.8978 24 32.2794 23.842 32.5607 23.5607C32.842 23.2794 33 22.8978 33 22.5C33 22.1022 32.842 21.7206 32.5607 21.4393C32.2794 21.158 31.8978 21 31.5 21ZM27 21H9V6H27V21ZM14.415 18.39C14.8148 18.6262 15.2706 18.7508 15.735 18.7508C16.1994 18.7508 16.6552 18.6262 17.055 18.39L21.555 15.78C21.9397 15.5439 22.2574 15.2131 22.4779 14.8192C22.6983 14.4252 22.814 13.9814 22.814 13.53C22.814 13.0786 22.6983 12.6348 22.4779 12.2408C22.2574 11.8469 21.9397 11.5161 21.555 11.28L17.055 8.67C16.6552 8.4338 16.1994 8.30919 15.735 8.30919C15.2706 8.30919 14.8148 8.4338 14.415 8.67C14.0121 8.8971 13.6782 9.22889 13.4485 9.63025C13.2187 10.0316 13.1018 10.4876 13.11 10.95V16.17C13.1125 16.6222 13.2345 17.0658 13.4637 17.4556C13.6929 17.8455 14.0211 18.1679 14.415 18.39ZM16.11 11.52L19.5 13.5L16.08 15.48L16.11 11.52Z" fill="#101130"/>
</svg>
