<svg width="36" height="36" viewBox="0 0 36 36" fill="none" xmlns="http://www.w3.org/2000/svg">
<path opacity="0.8" d="M31.755 3.09006C30.6798 2.90486 29.591 2.80953 28.5 2.80506C24.7776 2.80201 21.1327 3.86942 18 5.88006C14.8592 3.89582 11.215 2.85461 7.5 2.88006C6.40897 2.88453 5.32021 2.97986 4.245 3.16506C3.89281 3.22578 3.57388 3.41025 3.34562 3.68525C3.11737 3.96025 2.99481 4.30771 3 4.66506V22.6651C2.99679 22.8855 3.04219 23.1039 3.13298 23.3047C3.22377 23.5056 3.3577 23.684 3.52526 23.8272C3.69283 23.9704 3.88989 24.0749 4.10244 24.1333C4.31499 24.1917 4.53779 24.2026 4.75501 24.1651C6.90453 23.7929 9.10681 23.8546 11.2321 24.3467C13.3574 24.8387 15.3627 25.7511 17.13 27.0301L17.31 27.1351H17.475C17.6414 27.2044 17.8198 27.2401 18 27.2401C18.1802 27.2401 18.3587 27.2044 18.525 27.1351H18.69L18.87 27.0301C20.6249 25.7225 22.6245 24.7806 24.7502 24.2601C26.8759 23.7396 29.0845 23.6512 31.245 24.0001C31.4622 24.0376 31.685 24.0267 31.8976 23.9683C32.1101 23.9099 32.3072 23.8054 32.4747 23.6622C32.6423 23.519 32.7762 23.3406 32.867 23.1397C32.9578 22.9389 33.0032 22.7205 33 22.5001V4.50006C32.9844 4.15829 32.8524 3.83213 32.626 3.57567C32.3995 3.31921 32.0922 3.14787 31.755 3.09006ZM16.5 23.0251C13.7248 21.5651 10.6358 20.8031 7.5 20.8051C7.005 20.8051 6.51 20.8051 6 20.8051V5.80506C6.49959 5.77627 7.00042 5.77627 7.5 5.80506C10.7001 5.80152 13.8303 6.7406 16.5 8.50506V23.0251ZM30 20.8651C29.49 20.8651 28.995 20.8651 28.5 20.8651C25.3642 20.8631 22.2752 21.6251 19.5 23.0851V8.50506C22.1697 6.7406 25.2999 5.80152 28.5 5.80506C28.9996 5.77627 29.5004 5.77627 30 5.80506V20.8651ZM31.755 27.0901C30.6798 26.9049 29.591 26.8095 28.5 26.8051C24.7776 26.802 21.1327 27.8694 18 29.8801C14.8673 27.8694 11.2225 26.802 7.5 26.8051C6.40897 26.8095 5.32021 26.9049 4.245 27.0901C4.04975 27.121 3.86254 27.1903 3.69415 27.2939C3.52576 27.3975 3.37951 27.5334 3.2638 27.6937C3.1481 27.854 3.06523 28.0356 3.01996 28.228C2.97469 28.4205 2.96791 28.62 3 28.8151C3.07623 29.2046 3.30374 29.548 3.63269 29.7701C3.96164 29.9922 4.36521 30.0749 4.75501 30.0001C6.90453 29.6279 9.10681 29.6896 11.2321 30.1817C13.3574 30.6737 15.3627 31.5861 17.13 32.8651C17.384 33.0459 17.6881 33.1431 18 33.1431C18.3119 33.1431 18.616 33.0459 18.87 32.8651C20.6373 31.5861 22.6426 30.6737 24.7679 30.1817C26.8932 29.6896 29.0955 29.6279 31.245 30.0001C31.6348 30.0749 32.0384 29.9922 32.3673 29.7701C32.6963 29.548 32.9238 29.2046 33 28.8151C33.0321 28.62 33.0253 28.4205 32.98 28.228C32.9348 28.0356 32.8519 27.854 32.7362 27.6937C32.6205 27.5334 32.4743 27.3975 32.3059 27.2939C32.1375 27.1903 31.9503 27.121 31.755 27.0901Z" fill="#101130"/>
</svg>
