<svg width="20" height="20" viewBox="0 0 20 20" fill="none" xmlns="http://www.w3.org/2000/svg">
<path d="M17 10.25C17.0002 10.1372 16.9754 10.0258 16.9273 9.92377C16.8792 9.82174 16.8091 9.73165 16.722 9.66001L13.776 6.72001C13.6354 6.57956 13.4448 6.50067 13.246 6.50067C13.0472 6.50067 12.8566 6.57956 12.716 6.72001C12.6465 6.78948 12.5914 6.87195 12.5538 6.96271C12.5162 7.05348 12.4968 7.15077 12.4968 7.24901C12.4968 7.34726 12.5162 7.44455 12.5538 7.53532C12.5914 7.62608 12.6465 7.70855 12.716 7.77801L14.434 9.50001L3.75 9.50001C3.55109 9.50001 3.36032 9.57903 3.21967 9.71969C3.07902 9.86034 3 10.0511 3 10.25C3 10.4489 3.07902 10.6397 3.21967 10.7803C3.36032 10.921 3.55109 11 3.75 11L14.444 11L12.711 12.722C12.6414 12.7915 12.5861 12.874 12.5484 12.9649C12.5107 13.0557 12.4913 13.1531 12.4913 13.2515C12.4913 13.3499 12.5107 13.4473 12.5484 13.5381C12.5861 13.629 12.6414 13.7115 12.711 13.781C12.7807 13.8507 12.8634 13.906 12.9544 13.9437C13.0454 13.9814 13.143 14.0009 13.2415 14.0009C13.34 14.0009 13.4376 13.9814 13.5286 13.9437C13.6196 13.906 13.7023 13.8507 13.772 13.781L16.78 10.777C16.8502 10.7085 16.9059 10.6265 16.9437 10.5359C16.9815 10.4454 17.0006 10.3481 17 10.25Z" fill="#185CFF"/>
</svg>
