<svg width="30" height="30" viewBox="0 0 30 30" fill="none" xmlns="http://www.w3.org/2000/svg">
<path d="M4.5 15.3737C4.49968 15.2046 4.53692 15.0374 4.60903 14.8844C4.68114 14.7313 4.78633 14.5962 4.917 14.4887L9.336 10.0787C9.54694 9.86806 9.83287 9.74973 10.131 9.74973C10.4291 9.74973 10.7151 9.86806 10.926 10.0787C11.0302 10.1829 11.1129 10.3066 11.1693 10.4428C11.2257 10.5789 11.2548 10.7249 11.2548 10.8722C11.2548 11.0196 11.2257 11.1655 11.1693 11.3017C11.1129 11.4378 11.0302 11.5615 10.926 11.6657L8.349 14.2487L24.375 14.2487C24.6734 14.2487 24.9595 14.3673 25.1705 14.5782C25.3815 14.7892 25.5 15.0754 25.5 15.3737C25.5 15.6721 25.3815 15.9583 25.1705 16.1692C24.9595 16.3802 24.6734 16.4987 24.375 16.4987L8.334 16.4987L10.9335 19.0817C11.0379 19.186 11.1208 19.3098 11.1774 19.446C11.2339 19.5823 11.263 19.7284 11.263 19.876C11.263 20.0235 11.2339 20.1696 11.1774 20.3059C11.1208 20.4422 11.0379 20.566 10.9335 20.6702C10.829 20.7748 10.705 20.8577 10.5684 20.9143C10.4319 20.9709 10.2855 21 10.1378 21C9.98995 21 9.8436 20.9709 9.70706 20.9143C9.57053 20.8577 9.44647 20.7748 9.342 20.6702L4.83 16.1642C4.72469 16.0614 4.64119 15.9384 4.58449 15.8026C4.52779 15.6668 4.49906 15.5209 4.5 15.3737Z" fill="#C9DCEC"/>
</svg>
