<svg width="60" height="60" viewBox="0 0 60 60" fill="none" xmlns="http://www.w3.org/2000/svg">
<path d="M25.5006 6C24.5696 5.99951 23.6614 6.28778 22.9011 6.82508C22.1408 7.36239 21.5659 8.12227 21.2556 9H16.5005C15.3071 9 14.1625 9.47411 13.3186 10.318C12.4747 11.1619 12.0005 12.3065 12.0005 13.5V49.5C12.0005 50.6935 12.4747 51.8381 13.3186 52.682C14.1625 53.5259 15.3071 54 16.5005 54H43.5006C44.694 54 45.8386 53.5259 46.6825 52.682C47.5264 51.8381 48.0006 50.6935 48.0006 49.5V13.5C48.0006 12.3065 47.5264 11.1619 46.6825 10.318C45.8386 9.47411 44.694 9 43.5006 9H38.7456C38.4352 8.12227 37.8603 7.36239 37.1 6.82508C36.3397 6.28778 35.4315 5.99951 34.5006 6H25.5006ZM24.0006 10.5C24.0006 10.1022 24.1586 9.72065 24.4399 9.43934C24.7212 9.15804 25.1027 9 25.5006 9H34.5006C34.8984 9 35.2799 9.15804 35.5612 9.43934C35.8425 9.72065 36.0006 10.1022 36.0006 10.5C36.0006 10.8978 35.8425 11.2794 35.5612 11.5607C35.2799 11.842 34.8984 12 34.5006 12H25.5006C25.1027 12 24.7212 11.842 24.4399 11.5607C24.1586 11.2794 24.0006 10.8978 24.0006 10.5ZM39.0006 36V43.5C39.0006 43.8978 38.8425 44.2794 38.5612 44.5607C38.2799 44.842 37.8984 45 37.5006 45C37.1027 45 36.7212 44.842 36.4399 44.5607C36.1586 44.2794 36.0006 43.8978 36.0006 43.5V36C36.0006 35.6022 36.1586 35.2206 36.4399 34.9393C36.7212 34.658 37.1027 34.5 37.5006 34.5C37.8984 34.5 38.2799 34.658 38.5612 34.9393C38.8425 35.2206 39.0006 35.6022 39.0006 36ZM30.0006 27C30.3984 27 30.7799 27.158 31.0612 27.4393C31.3425 27.7206 31.5006 28.1022 31.5006 28.5V43.5C31.5006 43.8978 31.3425 44.2794 31.0612 44.5607C30.7799 44.842 30.3984 45 30.0006 45C29.6027 45 29.2212 44.842 28.9399 44.5607C28.6586 44.2794 28.5006 43.8978 28.5006 43.5V28.5C28.5006 28.1022 28.6586 27.7206 28.9399 27.4393C29.2212 27.158 29.6027 27 30.0006 27ZM24.0006 22.5V43.5C24.0006 43.8978 23.8425 44.2794 23.5612 44.5607C23.2799 44.842 22.8984 45 22.5006 45C22.1027 45 21.7212 44.842 21.4399 44.5607C21.1586 44.2794 21.0006 43.8978 21.0006 43.5V22.5C21.0006 22.1022 21.1586 21.7206 21.4399 21.4393C21.7212 21.158 22.1027 21 22.5006 21C22.8984 21 23.2799 21.158 23.5612 21.4393C23.8425 21.7206 24.0006 22.1022 24.0006 22.5Z" fill="#185CFF"/>
</svg>
