<svg width="16" height="16" viewBox="0 0 16 16" fill="none" xmlns="http://www.w3.org/2000/svg">
<path d="M3.19997 5.74009C3.26694 5.66786 3.34748 5.60952 3.437 5.56842C3.52652 5.52732 3.62325 5.50425 3.72169 5.50053C3.82012 5.49682 3.91832 5.51253 4.01068 5.54677C4.10304 5.58101 4.18775 5.63311 4.25997 5.70009L7.99997 9.22709L11.74 5.70009C11.8122 5.63312 11.8969 5.58103 11.9893 5.54679C12.0816 5.51256 12.1798 5.49685 12.2783 5.50056C12.3767 5.50428 12.4734 5.52734 12.5629 5.56844C12.6525 5.60954 12.733 5.66787 12.8 5.74009C12.8669 5.81232 12.919 5.89703 12.9533 5.98939C12.9875 6.08175 13.0032 6.17995 12.9995 6.27838C12.9958 6.37681 12.9727 6.47354 12.9316 6.56306C12.8905 6.65258 12.8322 6.73312 12.76 6.80009L8.50997 10.8001C8.37129 10.9287 8.18912 11.0002 7.99997 11.0002C7.81082 11.0002 7.62866 10.9287 7.48997 10.8001L3.23997 6.80009C3.16774 6.73313 3.1094 6.65258 3.0683 6.56307C3.02719 6.47355 3.00413 6.37681 3.00041 6.27838C2.9967 6.17995 3.01241 6.08175 3.04665 5.98939C3.08089 5.89703 3.13299 5.81232 3.19997 5.74009Z" fill="#9497A1"/>
</svg>
