<svg width="60" height="60" viewBox="0 0 60 60" fill="none" xmlns="http://www.w3.org/2000/svg">
<path d="M12.0005 12C12.0005 10.4087 12.6327 8.88258 13.7579 7.75736C14.8831 6.63214 16.4093 6 18.0005 6H42.0006C43.5919 6 45.118 6.63214 46.2432 7.75736C47.3684 8.88258 48.0006 10.4087 48.0006 12V45C48.0006 45.7956 47.6845 46.5587 47.1219 47.1213C46.5593 47.6839 45.7962 48 45.0006 48H15.0005C15.0005 48.7956 15.3166 49.5587 15.8792 50.1213C16.4418 50.6839 17.2049 51 18.0005 51H46.5006C46.8984 51 47.2799 51.158 47.5612 51.4393C47.8425 51.7206 48.0006 52.1022 48.0006 52.5C48.0006 52.8978 47.8425 53.2794 47.5612 53.5607C47.2799 53.842 46.8984 54 46.5006 54H18.0005C16.4093 54 14.8831 53.3679 13.7579 52.2426C12.6327 51.1174 12.0005 49.5913 12.0005 48V12ZM25.4495 19.035C24.3785 19.656 24.0006 20.361 24.0006 21C24.0006 21.639 24.3785 22.344 25.4495 22.965C26.5236 23.589 28.1226 24 30.0006 24C31.8786 24 33.4776 23.589 34.5516 22.965C35.6226 22.344 36.0006 21.639 36.0006 21C36.0006 20.361 35.6226 19.656 34.5516 19.035C33.4776 18.411 31.8786 18 30.0006 18C28.1226 18 26.5236 18.411 25.4495 19.035ZM23.9436 16.44C22.3026 17.394 21.0006 18.939 21.0006 21V33C21.0006 34.881 22.3566 36.405 23.9045 37.368C25.5185 38.37 27.6726 39 30.0006 39C32.3286 39 34.4825 38.37 36.0965 37.368C37.6446 36.408 39.0006 34.881 39.0006 33V21C39.0006 18.939 37.6986 17.394 36.0576 16.44C34.4166 15.489 32.2656 15 30.0006 15C27.7356 15 25.5845 15.489 23.9436 16.44ZM36.0006 33V25.59C34.3686 26.52 32.2386 27 30.0006 27C27.7596 27 25.6326 26.52 24.0006 25.59V33C24.0006 33.369 24.3216 34.095 25.4886 34.821C26.5896 35.505 28.1886 36 30.0006 36C31.8126 36 33.4116 35.505 34.5126 34.821C35.6796 34.095 36.0006 33.369 36.0006 33Z" fill="#185CFF"/>
</svg>
