<svg width="20" height="21" viewBox="0 0 20 21" fill="none" xmlns="http://www.w3.org/2000/svg">
<path d="M15.5573 5.77832C15.4872 5.76831 15.4171 5.76831 15.347 5.77832C13.7948 5.72825 12.563 4.45642 12.563 2.89417C12.563 1.30188 13.8549 0 15.4572 0C17.0495 0 18.3514 1.29186 18.3514 2.89417C18.3413 4.45642 17.1096 5.72825 15.5573 5.77832Z" fill="#6F6F6F"/>
<path d="M18.8221 12.7183C17.7005 13.4694 16.1282 13.7498 14.6761 13.5595C15.0567 12.7383 15.257 11.827 15.267 10.8656C15.267 9.86419 15.0467 8.91281 14.626 8.08162C16.1082 7.88133 17.6804 8.16173 18.8121 8.91281C20.3944 9.95431 20.3944 11.6668 18.8221 12.7183Z" fill="#6F6F6F"/>
<path d="M4.45145 5.77832C4.52155 5.76831 4.59165 5.76831 4.66175 5.77832C6.21399 5.72825 7.44576 4.45642 7.44576 2.89417C7.44576 1.29186 6.1539 0 4.5516 0C2.9593 0 1.66744 1.29186 1.66744 2.89417C1.66744 4.45642 2.89922 5.72825 4.45145 5.77832Z" fill="#6F6F6F"/>
<path d="M4.56157 10.8656C4.56157 11.837 4.77187 12.7584 5.15242 13.5896C3.74039 13.7398 2.26827 13.4393 1.18671 12.7283C-0.39557 11.6768 -0.39557 9.96433 1.18671 8.91282C2.25825 8.19178 3.77043 7.90136 5.19248 8.06159C4.78189 8.90281 4.56157 9.85418 4.56157 10.8656Z" fill="#6F6F6F"/>
<path d="M10.1393 13.89C10.0592 13.88 9.96905 13.88 9.87892 13.89C8.03626 13.8299 6.56414 12.3177 6.56414 10.4551C6.57416 8.55232 8.10636 7.0101 10.0191 7.0101C11.9219 7.0101 13.4641 8.55232 13.4641 10.4551C13.4541 12.3177 11.992 13.8299 10.1393 13.89Z" fill="#6F6F6F"/>
<path d="M6.8846 15.963C5.37243 16.9745 5.37243 18.6369 6.8846 19.6383C8.60709 20.79 11.4312 20.79 13.1536 19.6383C14.6658 18.6268 14.6658 16.9645 13.1536 15.963C11.4412 14.8113 8.6171 14.8113 6.8846 15.963Z" fill="#6F6F6F"/>
</svg>
