<svg width="16" height="16" viewBox="0 0 16 16" fill="none" xmlns="http://www.w3.org/2000/svg">
<path d="M3.20009 5.74C3.26706 5.66777 3.34761 5.60943 3.43712 5.56833C3.52664 5.52722 3.62338 5.50416 3.72181 5.50044C3.82024 5.49673 3.91844 5.51244 4.0108 5.54668C4.10316 5.58092 4.18787 5.63302 4.26009 5.7L8.00009 9.227L11.7401 5.7C11.8123 5.63303 11.897 5.58094 11.9894 5.5467C12.0817 5.51246 12.1799 5.49676 12.2784 5.50047C12.3768 5.50418 12.4735 5.52725 12.5631 5.56835C12.6526 5.60945 12.7331 5.66778 12.8001 5.74C12.8671 5.81223 12.9192 5.89694 12.9534 5.9893C12.9876 6.08166 13.0033 6.17986 12.9996 6.27829C12.9959 6.37672 12.9728 6.47345 12.9317 6.56297C12.8906 6.65248 12.8323 6.73303 12.7601 6.8L8.51009 10.8C8.37141 10.9286 8.18924 11.0001 8.00009 11.0001C7.81095 11.0001 7.62878 10.9286 7.49009 10.8L3.24009 6.8C3.16786 6.73303 3.10952 6.65249 3.06842 6.56297C3.02732 6.47346 3.00425 6.37672 3.00053 6.27829C2.99682 6.17986 3.01253 6.08166 3.04677 5.9893C3.08101 5.89694 3.13311 5.81223 3.20009 5.74Z" fill="#9497A1"/>
</svg>
