<svg width="21" height="20" viewBox="0 0 21 20" fill="none" xmlns="http://www.w3.org/2000/svg">
<path d="M18.052 4.81828L12.2914 0.787829C10.7212 -0.312295 8.31094 -0.252288 6.80077 0.917844L1.7902 4.82829C0.790089 5.60837 0 7.20855 0 8.4687V15.3695C0 17.9198 2.07023 20 4.62052 20H15.4017C17.952 20 20.0223 17.9298 20.0223 15.3795V8.59871C20.0223 7.24856 19.1522 5.58837 18.052 4.81828ZM14.8917 11.399C14.8917 11.7891 14.5816 12.0991 14.1916 12.0991C13.8016 12.0991 13.4915 11.7891 13.4915 11.399V11.219L10.7712 13.9393C10.6212 14.0893 10.4212 14.1593 10.2112 14.1393C10.0111 14.1193 9.82111 13.9993 9.7111 13.8293L8.69098 12.3091L6.31071 14.6894C6.1707 14.8294 6.00068 14.8894 5.82066 14.8894C5.64064 14.8894 5.46062 14.8194 5.3306 14.6894C5.06057 14.4194 5.06057 13.9793 5.3306 13.6993L8.31094 10.719C8.46096 10.5689 8.66098 10.4989 8.871 10.5189C9.08103 10.5389 9.27105 10.6489 9.38106 10.829L10.4012 12.3491L12.5114 10.2389H12.3314C11.9413 10.2389 11.6313 9.92886 11.6313 9.53882C11.6313 9.14877 11.9413 8.83874 12.3314 8.83874H14.1916C14.2816 8.83874 14.3716 8.85874 14.4616 8.88874C14.6317 8.95875 14.7717 9.09877 14.8417 9.26879C14.8817 9.3588 14.8917 9.44881 14.8917 9.53882V11.399Z" fill="#6F6F6F"/>
</svg>
