<svg width="16" height="16" viewBox="0 0 16 16" fill="none" xmlns="http://www.w3.org/2000/svg">
<path d="M14.404 3.22651C14.4034 2.80451 14.2361 2.39985 13.9385 2.10063C13.641 1.80141 13.2372 1.63186 12.8152 1.62891L8.90324 1.60331C8.69164 1.60188 8.48185 1.64243 8.28604 1.72263C8.09022 1.80282 7.91225 1.92107 7.76244 2.07051L2.41684 7.40171C2.26797 7.5502 2.14983 7.72658 2.06917 7.92076C1.98852 8.11494 1.94693 8.32311 1.94678 8.53338C1.94663 8.74364 1.98793 8.95187 2.06831 9.14617C2.14869 9.34046 2.26658 9.51701 2.41524 9.66571L6.37444 13.6257C6.67448 13.9257 7.08137 14.0942 7.50564 14.0942C7.9299 14.0942 8.33679 13.9257 8.63684 13.6257L13.9416 8.32011C14.0905 8.17128 14.2085 7.99454 14.289 7.80002C14.3694 7.6055 14.4107 7.39701 14.4104 7.18651L14.404 3.22651ZM11.1992 5.60011C10.9871 5.60011 10.7836 5.51582 10.6336 5.36579C10.4835 5.21576 10.3992 5.01228 10.3992 4.80011C10.3992 4.58793 10.4835 4.38445 10.6336 4.23442C10.7836 4.08439 10.9871 4.00011 11.1992 4.00011C11.4114 4.00011 11.6149 4.08439 11.7649 4.23442C11.915 4.38445 11.9992 4.58793 11.9992 4.80011C11.9992 5.01228 11.915 5.21576 11.7649 5.36579C11.6149 5.51582 11.4114 5.60011 11.1992 5.60011Z" fill="#9497A1"/>
</svg>
