<svg width="100" height="35" viewBox="0 0 100 35" fill="none" xmlns="http://www.w3.org/2000/svg">
<rect width="100" height="35" rx="17.5" fill="#080809"/>
<path d="M21.7893 24.0013C19.408 23.9876 17.4382 19.1266 17.4382 16.651C17.4382 12.6071 20.4718 11.7218 21.641 11.7218C22.1678 11.7218 22.7304 11.9287 23.2266 12.1118C23.5736 12.2395 23.9325 12.3714 24.1321 12.3714C24.2516 12.3714 24.5331 12.2592 24.7817 12.1608C25.3118 11.9498 25.9714 11.6875 26.7395 11.6875C26.7409 11.6875 26.7427 11.6875 26.7441 11.6875C27.3176 11.6875 29.0567 11.8134 30.1022 13.3835L30.3471 13.7515L29.9947 14.0175C29.4911 14.3974 28.5724 15.0905 28.5724 16.4633C28.5724 18.0893 29.6129 18.7146 30.1128 19.0154C30.3334 19.1481 30.5618 19.285 30.5618 19.5844C30.5618 19.7798 29.0018 23.9771 26.7363 23.9771C26.182 23.9771 25.7901 23.8104 25.4445 23.6635C25.0948 23.5147 24.7931 23.3866 24.2946 23.3866C24.0419 23.3866 23.7224 23.506 23.3841 23.6328C22.9218 23.8054 22.3985 24.0013 21.8048 24.0013H21.7893Z" fill="white"/>
<path d="M26.9795 8C27.0385 10.1274 25.5171 11.6033 23.9975 11.5107C23.7471 9.81297 25.5169 8 26.9795 8Z" fill="white"/>
<path d="M39.03 13.0011H40.08L38.652 8.80109H37.428L36 13.0011H37.05L37.26 12.3411H38.82L39.03 13.0011ZM37.548 11.4411L38.04 9.89909L38.532 11.4411H37.548Z" fill="white"/>
<path d="M42.2049 10.0011L41.5809 11.9031L40.9569 10.0011H39.9609L41.0709 13.0011H42.0909L43.2009 10.0011H42.2049Z" fill="white"/>
<path d="M45.592 10.0011V10.2831C45.394 10.0551 45.1 9.91709 44.698 9.91709C43.912 9.91709 43.264 10.6071 43.264 11.5011C43.264 12.3951 43.912 13.0851 44.698 13.0851C45.1 13.0851 45.394 12.9471 45.592 12.7191V13.0011H46.492V10.0011H45.592ZM44.878 12.2331C44.464 12.2331 44.164 11.9511 44.164 11.5011C44.164 11.0511 44.464 10.7691 44.878 10.7691C45.292 10.7691 45.592 11.0511 45.592 11.5011C45.592 11.9511 45.292 12.2331 44.878 12.2331Z" fill="white"/>
<path d="M47.1523 13.0011H48.0523V8.62109H47.1523V13.0011Z" fill="white"/>
<path d="M49.1609 9.73709C49.4549 9.73709 49.7009 9.49109 49.7009 9.19709C49.7009 8.90309 49.4549 8.65709 49.1609 8.65709C48.8669 8.65709 48.6209 8.90309 48.6209 9.19709C48.6209 9.49109 48.8669 9.73709 49.1609 9.73709ZM48.7109 13.0011H49.6109V10.0011H48.7109V13.0011Z" fill="white"/>
<path d="M52.0635 9.91709C51.6615 9.91709 51.3675 10.0551 51.1695 10.2831V8.80109H50.2695V13.0011H51.1695V12.7191C51.3675 12.9471 51.6615 13.0851 52.0635 13.0851C52.8495 13.0851 53.4975 12.3951 53.4975 11.5011C53.4975 10.6071 52.8495 9.91709 52.0635 9.91709ZM51.8835 12.2331C51.4695 12.2331 51.1695 11.9511 51.1695 11.5011C51.1695 11.0511 51.4695 10.7691 51.8835 10.7691C52.2975 10.7691 52.5975 11.0511 52.5975 11.5011C52.5975 11.9511 52.2975 12.2331 51.8835 12.2331Z" fill="white"/>
<path d="M54.0077 13.0011H54.9077V8.62109H54.0077V13.0011Z" fill="white"/>
<path d="M56.3703 11.8611H58.5003C58.5243 11.7471 58.5363 11.6271 58.5363 11.5011C58.5363 10.5951 57.8883 9.91709 57.0123 9.91709C56.0643 9.91709 55.4163 10.6071 55.4163 11.5011C55.4163 12.3951 56.0523 13.0851 57.0783 13.0851C57.6483 13.0851 58.0923 12.8751 58.3863 12.4671L57.6663 12.0531C57.5463 12.1851 57.3363 12.2811 57.0903 12.2811C56.7603 12.2811 56.4843 12.1731 56.3703 11.8611ZM56.3523 11.1891C56.4363 10.8831 56.6643 10.7151 57.0063 10.7151C57.2763 10.7151 57.5463 10.8411 57.6423 11.1891H56.3523Z" fill="white"/>
<path d="M61.9868 13.0851C62.8688 13.0851 63.5768 12.3951 63.5768 11.5011C63.5768 10.6071 62.8688 9.91709 61.9868 9.91709C61.1048 9.91709 60.3968 10.6071 60.3968 11.5011C60.3968 12.3951 61.1048 13.0851 61.9868 13.0851ZM61.9868 12.2091C61.5968 12.2091 61.2968 11.9271 61.2968 11.5011C61.2968 11.0751 61.5968 10.7931 61.9868 10.7931C62.3768 10.7931 62.6768 11.0751 62.6768 11.5011C62.6768 11.9271 62.3768 12.2091 61.9868 12.2091Z" fill="white"/>
<path d="M65.8439 9.91709C65.4479 9.91709 65.1479 10.0611 64.9859 10.2831V10.0011H64.0859V13.0011H64.9859V11.3631C64.9859 10.9371 65.2139 10.7451 65.5439 10.7451C65.8319 10.7451 66.0659 10.9191 66.0659 11.2911V13.0011H66.9659V11.1591C66.9659 10.3491 66.4499 9.91709 65.8439 9.91709Z" fill="white"/>
<path d="M70.8419 10.8651V10.0011H70.2239V9.16109L69.3239 9.43109V10.0011H68.8439V10.8651H69.3239V11.9271C69.3239 12.7671 69.6659 13.1211 70.8419 13.0011V12.1851C70.4459 12.2091 70.2239 12.1851 70.2239 11.9271V10.8651H70.8419Z" fill="white"/>
<path d="M73.1095 9.91709C72.7135 9.91709 72.4135 10.0611 72.2515 10.2831V8.80109H71.3515V13.0011H72.2515V11.3631C72.2515 10.9371 72.4795 10.7451 72.8095 10.7451C73.0975 10.7451 73.3315 10.9191 73.3315 11.2911V13.0011H74.2315V11.1591C74.2315 10.3491 73.7155 9.91709 73.1095 9.91709Z" fill="white"/>
<path d="M75.6535 11.8611H77.7835C77.8075 11.7471 77.8195 11.6271 77.8195 11.5011C77.8195 10.5951 77.1715 9.91709 76.2955 9.91709C75.3475 9.91709 74.6995 10.6071 74.6995 11.5011C74.6995 12.3951 75.3355 13.0851 76.3615 13.0851C76.9315 13.0851 77.3755 12.8751 77.6695 12.4671L76.9495 12.0531C76.8295 12.1851 76.6195 12.2811 76.3735 12.2811C76.0435 12.2811 75.7675 12.1731 75.6535 11.8611ZM75.6355 11.1891C75.7195 10.8831 75.9475 10.7151 76.2895 10.7151C76.5595 10.7151 76.8295 10.8411 76.9255 11.1891H75.6355Z" fill="white"/>
<path d="M41.05 24.0011H42.8L40.42 17.0011H38.38L36 24.0011H37.75L38.1 22.9011H40.7L41.05 24.0011ZM38.58 21.4011L39.4 18.8311L40.22 21.4011H38.58Z" fill="white"/>
<path d="M46.3369 18.8611C45.6669 18.8611 45.1769 19.0911 44.8469 19.4711V19.0011H43.3469V26.0011H44.8469V23.5311C45.1769 23.9111 45.6669 24.1411 46.3369 24.1411C47.6469 24.1411 48.7269 22.9911 48.7269 21.5011C48.7269 20.0111 47.6469 18.8611 46.3369 18.8611ZM46.0369 22.7211C45.3469 22.7211 44.8469 22.2511 44.8469 21.5011C44.8469 20.7511 45.3469 20.2811 46.0369 20.2811C46.7269 20.2811 47.2269 20.7511 47.2269 21.5011C47.2269 22.2511 46.7269 22.7211 46.0369 22.7211Z" fill="white"/>
<path d="M52.5673 18.8611C51.8973 18.8611 51.4073 19.0911 51.0773 19.4711V19.0011H49.5773V26.0011H51.0773V23.5311C51.4073 23.9111 51.8973 24.1411 52.5673 24.1411C53.8773 24.1411 54.9573 22.9911 54.9573 21.5011C54.9573 20.0111 53.8773 18.8611 52.5673 18.8611ZM52.2673 22.7211C51.5773 22.7211 51.0773 22.2511 51.0773 21.5011C51.0773 20.7511 51.5773 20.2811 52.2673 20.2811C52.9573 20.2811 53.4573 20.7511 53.4573 21.5011C53.4573 22.2511 52.9573 22.7211 52.2673 22.7211Z" fill="white"/>
<path d="M55.8078 24.0011H57.3078V16.7011H55.8078V24.0011Z" fill="white"/>
<path d="M59.7455 22.1011H63.2955C63.3355 21.9111 63.3555 21.7111 63.3555 21.5011C63.3555 19.9911 62.2755 18.8611 60.8155 18.8611C59.2355 18.8611 58.1555 20.0111 58.1555 21.5011C58.1555 22.9911 59.2155 24.1411 60.9255 24.1411C61.8755 24.1411 62.6155 23.7911 63.1055 23.1111L61.9055 22.4211C61.7055 22.6411 61.3555 22.8011 60.9455 22.8011C60.3955 22.8011 59.9355 22.6211 59.7455 22.1011ZM59.7155 20.9811C59.8555 20.4711 60.2355 20.1911 60.8055 20.1911C61.2555 20.1911 61.7055 20.4011 61.8655 20.9811H59.7155Z" fill="white"/>
<path d="M69.2062 24.1411C70.7262 24.1411 71.8063 23.3411 71.8063 21.9911C71.8063 20.5111 70.6163 20.1411 69.5563 19.8211C68.4663 19.4911 68.2962 19.2711 68.2962 18.9511C68.2962 18.6711 68.5462 18.4211 69.0462 18.4211C69.6862 18.4211 70.0162 18.7311 70.2562 19.2311L71.6063 18.4411C71.0963 17.4111 70.1963 16.8611 69.0462 16.8611C67.8363 16.8611 66.6963 17.6411 66.6963 18.9911C66.6963 20.3311 67.7162 20.8311 68.7562 21.1211C69.8062 21.4111 70.2062 21.5811 70.2062 22.0111C70.2062 22.2811 70.0162 22.5811 69.2562 22.5811C68.4662 22.5811 68.0363 22.1911 67.7862 21.6111L66.4062 22.4111C66.7962 23.4411 67.7362 24.1411 69.2062 24.1411Z" fill="white"/>
<path d="M75.3394 20.4411V19.0011H74.3094V17.6011L72.8094 18.0511V19.0011H72.0094V20.4411H72.8094V22.2111C72.8094 23.6111 73.3794 24.2011 75.3394 24.0011V22.6411C74.6794 22.6811 74.3094 22.6411 74.3094 22.2111V20.4411H75.3394Z" fill="white"/>
<path d="M78.491 24.1411C79.961 24.1411 81.141 22.9911 81.141 21.5011C81.141 20.0111 79.961 18.8611 78.491 18.8611C77.021 18.8611 75.841 20.0111 75.841 21.5011C75.841 22.9911 77.021 24.1411 78.491 24.1411ZM78.491 22.6811C77.841 22.6811 77.341 22.2111 77.341 21.5011C77.341 20.7911 77.841 20.3211 78.491 20.3211C79.141 20.3211 79.641 20.7911 79.641 21.5011C79.641 22.2111 79.141 22.6811 78.491 22.6811Z" fill="white"/>
<path d="M83.4895 19.8911V19.0011H81.9895V24.0011H83.4895V21.7411C83.4895 20.7511 84.3695 20.5011 84.9895 20.6011V18.9011C84.3595 18.9011 83.6895 19.2211 83.4895 19.8911Z" fill="white"/>
<path d="M86.8841 22.1011H90.4341C90.4741 21.9111 90.4941 21.7111 90.4941 21.5011C90.4941 19.9911 89.4141 18.8611 87.9541 18.8611C86.3741 18.8611 85.2941 20.0111 85.2941 21.5011C85.2941 22.9911 86.3541 24.1411 88.0641 24.1411C89.0141 24.1411 89.7541 23.7911 90.2441 23.1111L89.0441 22.4211C88.8441 22.6411 88.4941 22.8011 88.0841 22.8011C87.5341 22.8011 87.0741 22.6211 86.8841 22.1011ZM86.8541 20.9811C86.9941 20.4711 87.3741 20.1911 87.9441 20.1911C88.3941 20.1911 88.8441 20.4011 89.0041 20.9811H86.8541Z" fill="white"/>
</svg>
