<svg width="571" height="12" viewBox="0 0 571 12" fill="none" xmlns="http://www.w3.org/2000/svg">
<mask id="mask0_3_816" style="mask-type:alpha" maskUnits="userSpaceOnUse" x="-6" y="0" width="586" height="12">
<rect x="-5.32935" width="585" height="12" fill="#C4C4C4"/>
</mask>
<g mask="url(#mask0_3_816)">
<path d="M82.5394 -2.53796L83.9691 -2.69614L81.1869 -2.92292L82.5206 -3.08892C83.858 -3.0874 85.5908 -2.83866 86.5337 -2.97083C86.6489 -3.09879 85.1926 -3.13986 84.821 -3.24181C84.4922 -3.34631 84.2238 -3.45013 84.0191 -3.55202C84.7474 -3.55092 85.5482 -3.52628 86.3738 -3.47953C87.4842 -3.40318 88.5734 -3.36607 89.5212 -3.37229C91.4593 -3.35167 93.3316 -3.37224 95.4387 -3.3677L94.7376 -3.67567L97.4532 -3.60362C97.741 -3.58016 98.084 -3.61789 98.3668 -3.58887C100.72 -3.34329 101.716 -3.47711 102.846 -3.58807C103.078 -3.61678 103.357 -3.63822 103.676 -3.65182C106.815 -3.59299 109.646 -3.24878 112.473 -3.07207C113.006 -3.02695 113.516 -2.96904 113.968 -2.90243C114.952 -2.77295 116.046 -2.66724 117.15 -2.59496C118.254 -2.52269 119.334 -2.48616 120.29 -2.48871C122.404 -2.49157 124.792 -2.40593 127.223 -2.24008C127.946 -2.18545 128.67 -2.14941 129.348 -2.13426C130.025 -2.1191 130.643 -2.12517 131.16 -2.15207L132.804 -1.97627C133.517 -2.0476 134.42 -2.08674 135.46 -2.09131C136.5 -2.09587 137.654 -2.06577 138.852 -2.00283C140.13 -1.93455 141.427 -1.88852 142.752 -1.81633C145.49 -1.67832 148.154 -1.59392 150.662 -1.56574C154.397 -1.48225 158.047 -1.4177 161.815 -1.31361C164.172 -1.26336 166.469 -1.23573 168.692 -1.23085C171.354 -1.21119 174.234 -1.11605 177.192 -0.950017C177.052 -0.794238 175.755 -0.840259 174.884 -0.845532C172.075 -0.871423 169.201 -0.938517 166.311 -0.988921C165.009 -1.00859 163.744 -1.01605 162.521 -1.01122C160.477 -1.01768 158.322 -1.05919 156.093 -1.13504C152.572 -1.21849 149.164 -1.25861 145.903 -1.25498C145.647 -1.24881 145.413 -1.23788 145.204 -1.22236C145.16 -1.20892 145.152 -1.19198 145.179 -1.17315C145.206 -1.15433 145.268 -1.13424 145.359 -1.11484C145.45 -1.09543 145.567 -1.07735 145.699 -1.06231C145.83 -1.04728 145.973 -1.03579 146.111 -1.02897C147.406 -0.9234 148.797 -0.810012 150.019 -0.794061C150.066 -0.79287 150.116 -0.790147 150.166 -0.78609C150.216 -0.782033 150.264 -0.776742 150.307 -0.770602C153.041 -0.547728 155.289 -0.585444 157.419 -0.549183C160.955 -0.451183 164.364 -0.405407 167.594 -0.412547C168.083 -0.412061 168.61 -0.399321 169.157 -0.374787C172.539 -0.275339 175.703 -0.264216 178.498 -0.341922C179.649 -0.361609 180.718 -0.405804 181.955 -0.406542C182.716 -0.409584 183.379 -0.437786 183.904 -0.489461C184.428 -0.541138 184.803 -0.615217 185.006 -0.707245C185.528 -0.658793 186.058 -0.615613 186.589 -0.578218C186.907 -0.556838 187.211 -0.551159 187.441 -0.562348C187.671 -0.573535 187.809 -0.600755 187.828 -0.638499C187.923 -0.744206 187.198 -0.797293 186.57 -0.842561C186.949 -0.86523 187.376 -0.878568 187.841 -0.882249C190.461 -0.906402 193.271 -0.877894 196.21 -0.79735C198.491 -0.700941 200.313 -0.779412 202.713 -0.643454C203.001 -0.619994 203.238 -0.654428 203.503 -0.662696C204.194 -0.706235 205.054 -0.716021 206.01 -0.691199C206.966 -0.666375 207.988 -0.607694 208.987 -0.520242C210.232 -0.759164 212.921 -0.486218 214.908 -0.461687C215.519 -0.340184 214.817 -0.361545 214.787 -0.328163C214.757 -0.294782 214.787 -0.328171 214.547 -0.347721C212.564 -0.17565 209.848 -0.13813 206.779 -0.240433C206.211 -0.240008 205.67 -0.23217 205.161 -0.216991C204.391 -0.195509 203.522 -0.197654 202.592 -0.223332C201.577 -0.242192 200.645 -0.233235 199.84 -0.196895C199.376 -0.197487 198.985 -0.179281 198.701 -0.143956C198.417 -0.10863 198.25 -0.0573272 198.216 0.00518197C198.525 0.0533713 198.868 0.0974662 199.231 0.135713C201.127 0.286732 203.018 0.349241 204.531 0.310945C207.165 0.24496 210.3 0.309351 213.101 0.286825C214.994 0.277699 217.009 0.303694 219.107 0.364321C219.107 0.364321 219.052 0.42552 219.047 0.431083C219.295 0.45758 219.556 0.47884 219.814 0.493645C219.814 0.493645 219.814 0.493645 219.839 0.465828C219.724 0.439115 219.568 0.413983 219.39 0.393345L218.766 0.342512C219.19 0.329285 219.586 0.2899 220.028 0.313962C220.958 0.35867 221.848 0.377543 222.643 0.369463C223.438 0.361383 224.121 0.32651 224.653 0.266938C225.595 0.190592 226.766 0.155873 228.091 0.165023C229.107 0.156688 230.086 0.138774 231.023 0.111369C231.023 0.111369 231.083 0.0446132 231.527 0.00913001C231.107 -0.0346326 230.668 -0.0703687 230.232 -0.0964371C228.334 -0.161565 226.431 -0.221131 224.566 -0.265659C223.879 -0.270469 223.233 -0.263009 222.641 -0.243423C221 -0.220503 219.156 -0.253032 217.217 -0.339114C217.217 -0.339114 216.834 -0.370392 216.642 -0.386033C217.186 -0.532785 219.061 -0.385868 219.82 -0.485253C220.282 -0.483445 221.095 -0.470947 221.067 -0.497111C221.004 -0.532025 220.996 -0.564462 221.045 -0.59209C221.094 -0.619719 221.197 -0.641859 221.349 -0.65692C221.5 -0.671981 221.695 -0.679595 221.92 -0.679208C222.145 -0.678822 222.395 -0.670442 222.651 -0.65468C224.786 -0.569416 226.797 -0.545706 228.561 -0.585C229.23 -0.584242 229.979 -0.55897 230.643 -0.552648C231.049 -0.545033 231.42 -0.549269 231.735 -0.565119C233.339 -0.681863 235.497 -0.690388 237.885 -0.589415C239.039 -0.553114 240.117 -0.54826 241.064 -0.5751C241.738 -0.579906 242.024 -0.496904 242.503 -0.457804L244.54 -0.37538L241.924 -0.272101C242.483 -0.0354166 242.928 0.0426266 243.842 0.0573721C245.174 0.0796398 246.472 0.0896991 247.728 0.0874894C248.657 0.0855441 249.423 0.0345715 250.68 0.125106C250.903 0.139872 251.116 0.144652 251.286 0.138642C252.758 0.0582683 254.531 0.0398215 256.484 0.0845639C257.495 -0.0659442 259.217 0.080388 260.81 0.198293C261.324 0.0849215 260.392 0.0328785 259.837 -0.0362961C261.169 -0.0292155 262.512 -0.0332588 263.887 -0.0167034C264.301 -0.0227311 264.774 -0.0124212 265.268 0.0134123C265.763 0.039245 266.267 0.0798943 266.739 0.132184C266.97 0.165971 267.247 0.191399 267.515 0.203188C267.782 0.214978 268.019 0.212228 268.176 0.195508C268.889 0.146194 270.033 0.191613 270.623 0.108316C270.832 0.0891583 271.132 0.0864841 271.468 0.10076C271.805 0.115036 272.155 0.145338 272.458 0.186235C272.127 0.198994 271.832 0.219087 271.58 0.24607C270.677 0.333726 271.009 0.480189 272.156 0.693121C273.917 0.681409 275.716 0.684737 277.349 0.644605C278.259 0.608579 279.373 0.619841 280.568 0.677126C281.763 0.734409 282.99 0.835442 284.111 0.968865C284.517 1.02017 284.979 1.0557 285.407 1.06841C285.834 1.08112 286.195 1.07007 286.418 1.03745C286.556 0.99973 286.599 0.951987 286.543 0.898363L285.392 0.804527C285.392 0.804527 285.437 0.754455 285.447 0.743328L287.102 0.734914C287.978 0.734623 288.891 0.749371 289.719 0.74517C290.935 0.717224 292.323 0.732802 293.797 0.790931C295.157 0.850536 296.494 0.895591 297.795 0.925696C299.054 0.956683 299.967 0.857897 301.166 0.84212C302.072 0.830229 303.069 0.842937 304.118 0.879747C305.931 0.945037 307.595 0.945157 308.958 0.880098C310.548 1.23062 311.32 1.28762 312.796 1.1929L313.49 1.16584L313.679 1.24102L314.209 1.22449C315.201 1.20976 316.192 1.19505 317.227 1.18979C318.665 1.22232 320.219 1.30984 321.735 1.4438C322.023 1.46726 322.415 1.54697 322.668 1.60938C322.92 1.67178 323.472 1.86004 323.876 1.9826C323.435 2.07206 322.946 2.15761 322.596 2.26046C322.561 2.27803 322.564 2.29898 322.606 2.32163C322.648 2.34428 322.727 2.368 322.836 2.39087C322.946 2.41374 323.083 2.43513 323.237 2.45333C323.391 2.47153 323.558 2.48603 323.723 2.49565C324.045 2.51639 324.364 2.53022 324.665 2.53656C326.147 2.5475 327.566 2.53937 328.909 2.51225C329.399 2.47398 330.07 2.47034 330.816 2.50192C331.562 2.5335 332.339 2.59848 333.026 2.68656C334.782 2.63368 336.824 2.6493 339.009 2.73234C341.32 2.68183 344.111 2.78396 346.271 2.67331C346.221 2.72895 346.443 2.82474 346.754 2.87992C347.246 2.96375 347.802 3.04144 348.401 3.1097L352.967 3.24297C353.137 3.3115 353.351 3.38087 353.604 3.45019C353.777 3.50494 354.079 3.55851 354.446 3.59955C354.813 3.6406 355.216 3.66589 355.569 3.67005C356.477 3.69036 357.239 3.64495 358.322 3.75714C356.654 3.86318 354.404 3.84909 351.973 3.71738C349.689 3.6172 347.492 3.56714 345.464 3.56904C344.795 3.56829 343.915 3.57414 343.706 3.63473C343.243 3.806 342.031 3.77892 340.618 3.74733C339.508 3.71275 338.494 3.71663 337.659 3.75866C336.824 3.80068 336.193 3.87965 335.817 3.98907C335.722 4.09478 335.95 4.185 336.924 4.24651L340.976 4.49316C341.573 4.46145 342.14 4.42391 342.674 4.3807C343.573 4.32332 344.683 4.30756 345.918 4.33467C347.153 4.36178 348.479 4.43103 349.793 4.53701C350.465 4.59175 351.136 4.64649 351.623 4.62048C352.05 4.59061 352.444 4.55483 352.801 4.51343C352.873 4.48568 352.902 4.45375 352.886 4.41885C353.144 4.43508 353.403 4.45617 353.654 4.48141C355.654 4.77585 357.203 4.77075 358.611 4.69438C358.992 4.67168 359.282 4.6356 359.668 4.60733C360.053 4.57906 360.19 4.54238 360.54 4.55306C363.337 4.64962 364.142 4.32709 366.499 4.34005C366.614 4.32745 366.685 4.30861 366.706 4.28527C366.727 4.26194 366.698 4.23486 366.619 4.20652C366.453 4.18093 366.26 4.15893 366.059 4.14253C365.858 4.12613 365.655 4.11587 365.468 4.11268C364.383 4.07129 363.425 4.08398 362.758 4.14859C362.286 4.17499 361.785 4.19602 361.26 4.21157L358.9 3.7445C361.186 3.78732 363.349 3.78704 365.337 3.74367C365.771 3.71931 366.505 3.76127 367.116 3.76925L371.608 3.81291C372.532 3.81652 373.318 3.7433 374.607 3.91399C374.607 3.91399 375.457 3.94151 375.684 3.9182C375.911 3.8949 376.917 3.74995 377.517 3.65553C378.213 3.68245 379.178 3.75509 379.612 3.73074C380.37 3.67092 381.026 3.59423 381.568 3.50205L384.282 3.63364C384.279 3.75054 384.18 3.86052 383.986 3.96189C383.775 4.05966 383.782 4.17702 384.007 4.30438C384.233 4.43173 384.67 4.56546 385.283 4.69465L387.962 5.37886C388.4 5.42468 388.866 5.45551 389.297 5.46719C389.729 5.47887 390.105 5.47082 390.375 5.44413C391.528 5.3649 392.819 5.30296 393.972 5.22373C395.459 5.34494 395.077 5.54072 396.158 5.71245L399.66 5.99788C400.194 6.26238 400.738 6.51576 399.114 6.60431C398.791 6.61979 399.009 6.72115 398.714 6.76279C399.977 6.96129 401.365 7.02071 402.645 7.14297C403.15 7.2309 403.572 7.32397 403.891 7.4177C404.241 7.55882 404.951 7.70298 405.868 7.81904C406.785 7.9351 407.834 8.01375 408.79 8.03801C410.394 8.11232 412.036 8.22392 413.642 8.36782C414.191 8.41786 414.755 8.45432 415.296 8.47473C415.838 8.49515 416.343 8.49906 416.78 8.48619C418.334 8.46354 419.65 8.38562 420.642 8.25752C421.622 8.14881 422.943 8.09642 424.486 8.10509C427.125 8.32014 427.657 8.64419 429.253 8.9296L426.495 8.9616C426.395 9.07287 426.578 9.21317 425.447 9.2106C424.317 9.20803 424.89 9.3145 425.257 9.42202C425.386 9.4761 425.638 9.53174 425.971 9.5795C426.303 9.62727 426.695 9.66422 427.081 9.68412L429.428 9.82174C430.261 9.87411 431.066 9.89647 431.757 9.88637C432.447 9.87627 432.996 9.8341 433.342 9.76449C433.739 9.69839 434.288 9.65367 434.953 9.63309C435.802 9.57916 436.5 9.49896 437.021 9.39552L440.335 9.54623C440.476 9.44228 440.932 9.3694 441.624 9.3399C442.317 9.3104 443.204 9.32608 444.137 9.38432L446.371 9.47682C448.854 9.57774 449.399 9.54452 450.127 9.25146L447.148 8.72799C447.581 8.59011 447.999 8.46892 448.417 8.34772C447.675 8.17527 446.685 8.01215 445.548 7.87494C444.486 7.72751 443.395 7.58472 442.277 7.44712C441.065 7.30651 439.785 7.18425 438.28 7.02574C438.017 6.97447 437.635 6.88364 437.148 6.79612C436.66 6.71107 436.15 6.6277 435.622 6.54634C435.722 6.43507 435.812 6.33493 435.62 6.20576C436.546 6.24697 437.504 6.31906 438.406 6.41552C439.308 6.51197 440.126 6.62976 440.786 6.75827C440.897 6.78106 441.033 6.80246 441.185 6.82104C441.337 6.83961 441.502 6.85493 441.668 6.86594C443.296 6.9449 444.074 7.10985 444.87 7.31211C445.406 7.4155 446.097 7.50731 446.848 7.57482C448.287 7.69212 449.696 7.84281 451.072 7.97289C451.493 8.01624 451.931 8.05192 452.367 8.07846C453.805 8.16284 455.253 8.28084 456.636 8.42645C457.088 8.46346 457.521 8.51244 457.9 8.56928C458.279 8.62613 458.592 8.68919 458.814 8.75322C458.471 8.82336 458.286 8.91191 458.27 9.0135C458.21 9.08026 459.221 9.21637 459.698 9.31501C460.176 9.41366 459.239 9.36718 458.921 9.3771C457.617 9.39618 457.375 9.43617 458.156 9.65512C458.417 9.72396 458.59 9.79285 458.665 9.85749C458.739 9.92213 458.714 9.98116 458.59 10.0309C458.405 10.2368 457.841 10.4058 457.453 10.6071C458.055 10.7397 459.06 10.8814 459.169 11.0456C459.222 11.082 459.333 11.1206 459.495 11.1586C459.657 11.1965 459.865 11.2329 460.105 11.2651C460.736 11.3346 461.31 11.4177 461.782 11.508C462.255 11.5983 462.613 11.6933 462.828 11.7857C462.899 11.824 463.069 11.8645 463.305 11.8993C463.541 11.934 463.826 11.9604 464.101 11.9731C464.431 11.9887 464.725 11.9867 464.925 11.9674C465.124 11.948 465.213 11.913 465.173 11.8694C465.181 11.7874 465.138 11.702 465.043 11.6139C465.098 11.5527 465.153 11.4915 464.935 11.3901C465.918 11.4271 466.951 11.5012 467.92 11.6045C468.889 11.7077 469.758 11.836 470.432 11.9756C471.178 12.1199 471.865 12.2715 472.692 12.4404C472.521 12.6295 472.521 12.6295 474.28 12.964L483.607 13.1271L485.519 13.3486C487.302 13.5417 487.725 13.5285 488.845 13.4286L489.599 13.3348C491.182 13.4638 493.005 13.6124 493.995 13.3706C494.317 13.5282 494.526 13.5811 494.453 13.6051C493.981 13.8376 493.16 14.0349 492.022 14.1892C491.732 14.2253 491.528 14.2803 491.19 14.3125C490.101 14.4941 489.848 14.7747 490.484 15.097C490.799 15.2396 491.258 15.3856 491.844 15.5303C490.986 15.7312 489.849 15.8976 488.463 16.0252C487.288 16.1238 486.32 16.2559 485.587 16.4177C484.929 16.5809 483.944 16.7035 482.687 16.7786C482.05 16.8105 481.585 16.8735 481.339 16.9613C481.265 17.1989 481.434 17.4533 481.841 17.7188C481.917 17.7996 482.135 17.8869 482.477 17.9738C482.818 18.0607 483.274 18.1449 483.81 18.2197C483.81 18.2197 484.067 18.2766 484.191 18.3106C484.295 18.5983 483.908 18.8519 483.058 19.0543C482.919 19.1117 482.634 19.1532 482.234 19.1742C481.834 19.1953 481.334 19.1951 480.788 19.1738C479.635 19.1395 478.557 19.1353 477.442 19.116C476.24 19.0888 475.181 19.1102 474.377 19.1782C473.572 19.2461 473.053 19.3579 472.872 19.502C472.86 19.5427 472.825 19.5818 472.767 19.6188C472.733 19.6379 472.714 19.6584 472.711 19.68L475.273 20.1516L472.375 20.3393C472.205 20.5285 473.596 20.6419 474.293 20.7824L473.862 20.8607C473.307 20.905 472.56 20.8202 471.883 20.7711L471.212 20.7163L471.131 20.8053C470.713 20.9265 469.189 20.7903 468.594 20.8791C467.999 20.968 468.423 21.0683 469.315 21.1648C469.934 21.2366 470.6 21.2938 471.261 21.3322C471.922 21.3706 472.561 21.3891 473.131 21.3864C473.472 21.3769 473.754 21.3552 473.961 21.3226C475.164 21.184 476.493 21.0648 477.938 20.966C479.046 20.8772 480.433 20.8395 482.003 20.8554C482.463 20.8487 483.019 20.8697 483.571 20.9147C484.124 20.9598 484.639 21.026 485.025 21.1017L485.837 21.1142C485.837 21.1142 486.282 21.1922 486.219 21.205C485.91 21.4362 486.269 21.7189 487.244 22.0111L486.396 22.0376C485.185 22.0105 485.953 22.1866 485.772 22.2734C484.911 22.257 483.793 22.1837 483.385 22.2938L482.774 22.2858L483.014 22.3054L483.304 22.2693L484.443 22.4338C483.903 22.4615 483.512 22.4953 483.036 22.5102C482.772 22.5231 482.563 22.546 482.419 22.5774C482.276 22.6088 482.202 22.6481 482.201 22.693C482.203 22.762 482.061 22.8201 481.789 22.8617C481.517 22.9033 481.125 22.9271 480.649 22.9307C480.081 22.9322 479.756 23.0072 479.423 23.0339L480.869 23.4862C480.869 23.4862 480.15 23.4275 480.541 23.5072L480.592 23.4516L481.468 23.5648C482.099 23.6641 482.541 23.6881 482.914 23.617C483.287 23.5459 483.202 23.6405 483.381 23.6133C483.316 23.6856 482.91 23.7361 482.562 23.7794C482.16 23.8134 481.706 23.8385 481.207 23.8541C482.105 24.1722 482.148 24.1816 480.837 24.2658C479.525 24.35 479.978 24.4765 478.88 24.4945C477.782 24.5126 479.03 24.7278 479.765 24.7697C480.31 24.7973 480.865 24.8403 481.393 24.8957C481.921 24.9511 482.409 25.0176 482.823 25.0906L482.603 25.3354C482.279 25.3152 481.956 25.2888 481.643 25.2572C480.58 25.1228 479.613 24.9962 478.667 25.0743L479.117 25.2604L475.816 25.1525C475.901 25.2919 476.404 25.4507 477.219 25.5954C477.097 25.6748 477.021 25.7585 476.994 25.8457C476.939 25.9069 476.613 25.8684 476.401 25.875C475.645 25.8853 475.024 25.9267 474.594 25.9958C474.164 26.0649 473.937 26.1594 473.933 26.2711C473.848 26.3656 475.01 26.5619 475.737 26.5554C477.551 26.5743 479.513 26.6471 481.517 26.7698C482.738 26.7857 482.911 26.537 484.92 26.7068C484.96 26.8216 484.703 26.9146 484.187 26.9717C483.671 27.0288 482.925 27.0468 482.061 27.0231C482.552 27.2782 485.273 27.3447 485.393 27.6113C484.716 27.5924 483.991 27.5481 483.292 27.4827C482.592 27.4173 481.941 27.3331 481.404 27.2383C481.288 27.215 481.142 27.1934 480.98 27.1757C480.819 27.158 480.646 27.1447 480.478 27.137C480.311 27.1293 480.153 27.1274 480.021 27.1316C479.889 27.1358 479.787 27.1459 479.723 27.161C480.099 27.2574 480.514 27.3688 480.986 27.473C481.459 27.5772 481.573 27.6224 481.914 27.6442C484.456 27.8514 485.665 28.2246 487.864 28.4696C488.44 28.5165 488.512 28.6657 488.012 28.6488C487.536 28.632 487.106 28.6342 486.769 28.6552C486.432 28.6762 486.201 28.7152 486.102 28.7679C485.733 28.8293 485.274 28.8782 484.736 28.9133C486.991 29.2963 489.681 29.6347 492.552 29.8968C493.096 29.9486 493.663 29.9801 494.17 29.9869C495.773 29.9872 497.473 30.0176 499.238 30.0774C499.863 30.0938 500.442 30.0922 500.941 30.0729C502.578 30.0272 503.879 30.1273 505.066 30.4092L507.032 30.8561C506.967 30.9284 506.637 31.009 506.383 31.1197L507.919 31.3584L519.639 30.8087L521.992 31.3409L525.365 31.3113C525.624 31.3267 525.884 31.3479 526.133 31.3739C526.815 31.531 527.349 31.682 528.089 31.8319C528.829 31.9818 530.152 32.0001 531.074 32.1767C531.996 32.3534 532.92 32.3571 534.061 32.462C534.168 32.5988 534.057 32.7219 533.735 32.8237C533.63 32.9405 533.05 33.0127 532.95 33.1239C532.961 33.2364 532.746 33.3319 532.323 33.4017C531.9 33.4715 531.284 33.5135 530.53 33.5239C528.419 33.7633 525.872 33.9338 522.968 34.0302C522.713 34.0372 522.502 34.0534 522.347 34.0778C522.192 34.1022 522.097 34.1342 522.068 34.1719C522.072 34.281 521.879 34.3754 521.502 34.4479C521.125 34.5205 520.573 34.5695 519.888 34.5914C519.706 34.5958 519.568 34.6095 519.493 34.6308C519.233 34.6445 519.044 34.6708 518.943 34.7072C518.843 34.7435 518.835 34.7886 518.92 34.8381C519.004 34.8877 519.179 34.94 519.427 34.99C519.676 35.04 519.989 35.086 520.336 35.1235C520.84 35.1841 521.355 35.242 521.879 35.2971C521.849 35.3305 521.329 35.3359 521.405 35.366C521.61 35.4619 521.658 35.5519 521.544 35.6286C521.43 35.7054 521.158 35.7668 520.749 35.8082L523.55 36.5859C525.251 36.6936 526.918 36.8763 528.237 37.0993C528.239 37.1358 528.163 37.1664 528.017 37.1881C527.871 37.2097 527.66 37.2216 527.405 37.2226C526.722 37.2385 526.076 37.2695 525.339 37.2871C524.889 37.3002 524.514 37.3291 524.237 37.3721C523.959 37.4151 523.785 37.4714 523.723 37.5376L525.368 37.8269C524.841 37.8974 524.45 37.9313 524.102 37.9745C524.299 38.0655 524.638 38.1595 525.093 38.2494C525.548 38.3393 526.106 38.4226 526.725 38.4929C526.891 38.5074 527.06 38.518 527.222 38.5241C527.385 38.5301 527.538 38.5316 527.671 38.5282C528.945 38.429 530.435 38.6042 531.882 38.7699C533.329 38.9356 534.114 39.0355 535.183 39.1644L537.227 39.1817C537.744 39.2427 538.206 39.3144 538.575 39.3912C538.944 39.4679 539.21 39.5475 539.352 39.6236C539.242 39.746 538.272 39.679 537.694 39.6916C536.324 39.7678 534.521 39.7515 532.587 39.6455C532.107 39.6064 531.615 39.638 531.148 39.6418C530.141 39.657 529.174 39.6818 528.25 39.716C527.641 39.7479 527.072 39.7873 526.547 39.834C526.407 39.9898 528.616 40.1101 527.362 40.1871C527.794 40.2223 527.955 40.2713 528.177 40.2536C529.599 40.3547 531 40.4047 532.218 40.3978C534.555 40.3763 537.209 40.4473 539.961 40.6049C542.933 40.7683 545.783 40.8368 548.277 40.805C549.227 40.8032 550.289 40.8366 551.382 40.9028C552.672 40.9945 553.953 41.0521 555.143 41.072C555.536 41.0727 555.975 41.0883 556.423 41.1176C556.871 41.1468 557.315 41.1888 557.72 41.2403C557.685 41.2792 557.299 41.3075 557.385 41.3264C558.616 41.6179 559.115 41.9213 561.009 42.2191C562.305 42.3246 563.792 42.4458 564.639 42.3059C565.486 42.1659 565.182 42.0456 563.497 41.6872C563.862 41.6821 564.303 41.6988 564.741 41.7345C565.18 41.7703 565.588 41.8227 565.895 41.8827L567.353 42.1509L568.667 42.4072C568.551 42.5352 568.461 42.6353 568.366 42.7411C568.216 42.8533 568.381 42.99 568.838 43.1319C569.114 43.2093 569.354 43.2868 569.556 43.3636C570.378 43.6707 570.615 43.961 570.243 44.2019C569.53 44.5483 568.536 44.867 567.274 45.1543C565.941 45.4338 565.212 45.7864 564.114 46.0911C563.553 46.2298 562.873 46.3541 562.08 46.4628C560.575 46.7044 558.926 46.9343 557.416 47.1815C555.906 47.4287 554.201 47.6062 552.525 47.8099C550.028 48.0517 547.33 48.2605 544.444 48.4352C542.658 48.5883 540.825 48.7374 539.173 48.9134C537.222 49.1117 534.931 49.2541 532.355 49.337C530.081 49.4363 528.048 49.5832 526.297 49.7748C526.113 49.7956 525.968 49.8219 525.866 49.8532C525.551 50.0486 524.667 50.1863 523.35 50.2453C523.43 50.3025 523.533 50.3607 523.657 50.4196C523.839 50.4898 523.878 50.5554 523.766 50.6081C523.654 50.6607 523.398 50.698 523.03 50.7149C521.977 50.7633 521.101 50.8455 520.443 50.9579C520.201 50.986 520.051 51.0271 520.006 51.0775C519.96 51.1279 520.021 51.1861 520.182 51.2472C520.325 51.31 520.336 51.3678 520.213 51.4132C520.089 51.4585 519.837 51.4892 519.49 51.5013C518.599 51.5608 517.644 51.6086 516.632 51.6446C514.479 51.7238 511.975 51.7228 509.271 51.6418C508.984 51.6183 508.694 51.6544 508.358 51.627C506.446 51.5362 504.67 51.5221 503.245 51.5865C501.575 51.6116 499.829 51.6067 498.067 51.6184C495.523 51.6105 493.176 51.6583 491.091 51.7604C488.708 51.6617 487.37 51.8333 485.358 51.8366C483.502 51.8542 481.742 51.8965 480.095 51.963C477.441 52.0512 474.797 52.1283 472.181 52.2316C469.727 52.2808 467.468 52.3749 465.441 52.5123C464.664 52.5744 463.258 52.4777 462.729 52.6077C462.2 52.7378 461.132 52.7224 460.269 52.7656L457.547 52.8722C457.079 52.8975 456.565 52.9136 456.011 52.9201C453.48 52.9288 451.728 53.1025 449.378 53.1379L449.139 53.1184C444.968 53.3765 440.195 53.5182 434.96 53.5393C431.902 53.6185 428.559 53.6147 425.314 53.6727C424.54 53.7888 422.712 53.6457 421.741 53.7517C420.77 53.8577 419.185 53.7883 417.934 53.8057C416.682 53.8231 415.459 53.8667 414.121 53.8652C412.96 53.8657 411.979 53.913 411.268 54.0029C409.646 54.1515 407.668 54.2388 405.423 54.261C402.454 54.2996 399.646 54.3873 396.625 54.368C396.668 54.4763 396.483 54.5684 396.088 54.6349C395.693 54.7014 395.103 54.7398 394.379 54.7463C391.149 54.7876 388.22 54.8953 384.948 54.9271L384.072 54.9274L374.284 54.9895C371.648 55.0015 369.107 55.0214 366.417 55.035C365.409 54.9529 365.385 55.0943 364.688 55.0673C364.494 54.9977 364.264 54.967 363.921 55.0048L363.846 55.0882L352.675 55.1989C348.302 55.2799 343.702 55.3042 338.913 55.2716C337.777 55.2798 336.717 55.3074 335.749 55.3541C334.853 55.3711 333.917 55.3787 332.949 55.3766C331.639 55.3556 330.36 55.345 329.115 55.3449C325.843 55.3767 322.408 55.3595 318.825 55.3362C315.242 55.3128 312.527 55.3543 309.337 55.3511C307.177 55.3482 305.027 55.3342 302.791 55.3013C301.724 55.2859 300.408 55.2026 299.303 55.1722C298.198 55.1418 297.837 55.1423 297.691 55.1901C297.21 55.3241 296 55.2375 295.034 55.2244C293.149 55.2021 292.881 55.1564 292.369 54.8101L294.682 54.7C295.249 54.6645 295.962 54.6583 296.752 54.6819C297.543 54.7055 298.384 54.7582 299.195 54.835C299.514 54.8678 299.847 54.8938 300.176 54.9114C300.505 54.929 300.823 54.9378 301.111 54.9374C303.445 54.9186 305.746 54.8792 307.989 54.8471L308.317 54.826L308.337 54.5172C308.041 54.4869 307.733 54.4618 307.426 54.4429L296.175 54.2425C293.594 54.1933 290.913 54.0823 288.379 54.037C285.845 53.9917 284.48 53.964 282.514 53.9172C281.684 53.8906 280.839 53.8556 279.983 53.8124C280.032 53.7827 280.061 53.751 280.068 53.7178C280.113 53.6678 280.173 53.601 279.809 53.5475C279.412 53.4719 278.882 53.4073 278.324 53.3667C277.8 53.3399 277.292 53.3247 276.82 53.3217C274.538 53.2958 271.932 53.1327 269.557 52.8671L268.728 53.0444C265.162 52.9448 261.543 52.8469 257.818 52.7522C257.072 52.7264 256.289 52.6769 255.528 52.6074C254.712 52.5409 253.962 52.4021 253.104 52.3262C252.255 52.2715 251.413 52.2289 250.592 52.1991C250.814 52.1535 251.107 52.117 251.462 52.0909C251.811 52.0817 252.065 52.0532 252.188 52.0095C252.31 51.9658 252.295 51.9092 252.144 51.8479C251.879 51.7426 251.762 51.6435 252.34 51.6309C252.873 51.6069 253.255 51.5549 253.44 51.4811C253.625 51.4073 253.606 51.3148 253.384 51.2144C253.287 51.1557 253.218 51.0982 253.178 51.0424L252.939 51.0228C252.147 50.815 250.567 50.7399 249.433 50.5699C248.898 50.5206 248.344 50.4922 247.858 50.4893C246.604 50.4527 245.382 50.4368 244.085 50.3907C243.465 50.3696 242.817 50.3309 242.179 50.2772C241.267 50.2029 241.172 50.1951 240.642 49.925C241.464 49.9297 242.116 49.8894 242.487 49.8108C242.858 49.7322 242.926 49.6202 242.679 49.4938C242 49.2175 241.284 48.9263 238.217 48.73C239.217 48.7203 240.18 48.7011 241.101 48.6724C241.369 48.6663 241.57 48.646 241.676 48.6143C241.782 48.5826 241.79 48.541 241.697 48.4951C241.604 48.4492 241.415 48.4012 241.155 48.3574C240.896 48.3137 240.579 48.2763 240.245 48.2504C238.627 48.0941 236.937 47.9895 235.368 47.9484C234.046 47.9302 232.852 47.9404 231.308 47.9399L229.485 47.7913C229.515 47.7579 229.247 47.7122 229.315 47.6939C229.779 47.5226 230.29 47.3553 230.816 47.1712C229.975 47.0718 229.247 46.9519 228.715 46.825C228.183 46.6982 227.867 46.5696 227.806 46.4541C227.76 46.4192 227.772 46.3874 227.841 46.361C227.909 46.3346 228.032 46.3142 228.201 46.3012C228.681 46.2788 229.051 46.2361 229.284 46.1764C229.516 46.1166 229.604 46.0414 229.541 45.9565L228.123 45.6439C223.855 45.4208 219.664 45.2615 215.627 45.1688L211.983 45.0987C211.543 45.015 211.679 44.9784 212.093 44.9763C212.507 44.9742 213.67 44.9973 214.483 45.0098C215.185 45.0262 215.808 45.0154 216.292 44.9785C216.776 44.9416 217.105 44.8799 217.247 44.7992L216.023 44.4426C216.084 44.3759 216.169 44.2813 216.832 44.2876C217.286 44.2799 217.62 44.2463 217.781 44.1922C217.942 44.1382 217.92 44.0668 217.719 43.9896C217.688 43.9338 217.734 43.8829 217.854 43.8394C218.836 43.8358 219.812 43.8378 220.703 43.8208C221.118 43.8151 221.468 43.7945 221.73 43.7602C221.992 43.7259 222.159 43.6787 222.221 43.622C222.253 43.5666 222.174 43.5035 221.992 43.4378C221.81 43.3721 221.528 43.3057 221.171 43.2438C219.775 43.1673 218.498 43.1663 217.62 43.2411C217.307 43.2997 216.805 43.3317 216.179 43.3329C215.553 43.3341 214.832 43.3044 214.113 43.2478C213.289 43.1825 212.467 43.1538 211.795 43.1669C211.122 43.1799 210.644 43.2339 210.444 43.319C209.599 43.286 208.849 43.2607 208.11 43.2243C207.237 43.1784 206.413 43.1648 205.725 43.1852C204.624 43.1995 203.439 43.1911 202.194 43.1602C198.608 43.0828 195.017 43.0111 191.544 42.9789C190.626 42.9697 189.831 42.9945 188.923 42.9742C188.014 42.9539 187.295 43.0087 186.159 42.8982C185.943 42.881 185.725 42.87 185.523 42.866C185.321 42.862 185.14 42.8651 184.996 42.875C183 42.9625 180.661 42.9748 178.115 42.9114C174.627 42.8958 171.011 42.8519 167.518 42.8419C166.494 42.8505 165.526 42.8735 164.625 42.9106C163.938 42.9331 163.22 42.9483 162.472 42.9562C161.9 42.9632 161.352 42.9425 161.448 43.0638C161.545 43.1852 160.687 43.1092 160.192 43.0868C158.492 43.028 156.755 42.9483 155 42.8487C153.27 42.7405 151.576 42.6775 150.017 42.6636C148.892 42.6554 147.731 42.6863 146.284 42.5205C146.34 42.4593 146.395 42.3981 146.71 42.3342C145.53 42.1584 144.183 42.0071 142.782 41.8929C141.38 41.7787 139.964 41.7048 138.651 41.6773L136.839 41.3446C136.393 41.3055 135.938 41.277 135.501 41.2609C135.064 41.2448 134.655 41.2414 134.297 41.2508C134.022 41.2557 133.685 41.2433 133.35 41.216C133.016 41.1887 132.705 41.1483 132.475 41.1023C132.131 41.0437 131.71 40.9931 131.267 40.957C130.823 40.9208 130.375 40.9006 129.98 40.8989C128.735 40.8628 127.407 40.7792 126.13 40.6568C125.799 40.5851 125.592 40.5109 125.533 40.4436C125.475 40.3762 125.569 40.3186 125.802 40.2777C126.18 40.2056 126.391 40.1137 126.425 40.0077C126.458 39.9016 126.313 39.7835 125.998 39.6606C125.836 39.5852 125.782 39.5137 125.839 39.4506C125.896 39.3875 126.062 39.3341 126.328 39.2934C127.321 39.1056 127.056 39.0004 125.431 38.6888C125.167 38.6369 124.849 38.5883 124.497 38.5462C124.145 38.5042 123.766 38.4695 123.386 38.4444C122.492 38.3937 121.611 38.3559 120.758 38.3318C120.278 38.2927 119.786 38.3242 119.234 38.3091C116.47 38.2331 116.065 38.1105 115.17 37.8465L114.518 37.656C113.308 37.5016 111.985 37.3735 110.644 37.2807C109.303 37.1879 107.978 37.1328 106.763 37.1194C106.28 37.1184 105.725 37.092 105.183 37.0443C103.418 36.8985 101.631 36.7976 99.9396 36.7483C98.8857 36.7206 97.7497 36.6488 96.668 36.5415C95.5863 36.4343 94.6048 36.2962 93.8416 36.1438C93.156 36.0065 92.259 35.8833 91.2755 35.7913C90.1242 35.6975 90.0176 35.5873 90.6605 35.5023C91.3034 35.4174 92.3802 35.308 93.336 35.2187C93.6685 35.1884 93.8746 35.139 93.9312 35.0762C93.9878 35.0133 93.8928 34.9394 93.6566 34.8627C93.505 34.7314 93.4787 34.6068 93.5784 34.492C93.6317 34.4443 93.5949 34.3896 93.4705 34.3315C93.3462 34.2735 93.1371 34.2135 92.8574 34.1557C92.5777 34.0978 92.2339 34.0433 91.8492 33.996C91.4644 33.9486 91.0477 33.9095 90.6271 33.8812C88.8522 33.7365 87.1252 33.5957 85.3153 33.49C84.5568 33.4402 83.799 33.3784 83.0606 33.3063C81.5492 33.1277 79.9323 32.9797 78.3037 32.8707C77.5308 32.822 76.7751 32.7368 76.2003 32.6336C74.3871 32.3555 72.7163 32.0631 71.2183 31.7617C70.8572 31.6682 70.3848 31.577 69.8306 31.4938C69.2764 31.4106 68.6524 31.3372 67.9978 31.2782C67.4701 31.2352 67.0406 31.1405 66.6339 31.0775C66.3384 30.9316 66.3067 30.7966 66.5421 30.6852C66.7775 30.5738 67.2722 30.4897 67.9797 30.4407C68.6505 30.3819 69.2783 30.3136 69.8582 30.2415C70.5573 30.1831 71.3883 30.1481 72.3205 30.1376C73.4245 30.1063 74.2408 30.0167 74.663 29.8806C71.6409 29.6343 68.767 29.2806 66.1179 29.3633L64.1052 29.1395C64.1854 29.0505 64.2555 28.9726 64.3207 28.9003C64.7993 28.7686 64.9488 28.6026 64.7565 28.4163C64.5979 28.3261 64.6123 28.2441 64.798 28.1785C64.9837 28.1129 65.3341 28.066 65.814 28.0426C68.6562 27.8025 71.9431 27.6404 74.6086 27.368C75.4443 27.3169 76.4226 27.2936 77.5024 27.2993C78.547 27.2829 78.5033 27.1599 77.3012 27.0082C76.6264 26.9289 75.9387 26.8529 75.2406 26.7805C72.1619 26.7684 70.9078 27.132 67.3945 27.0308L65.7662 26.5517C65.3259 26.5443 64.8985 26.5414 64.4868 26.543L58.596 26.7376C58.1054 26.7474 57.7234 26.7807 57.4936 26.8337C57.2638 26.8868 57.1953 26.9575 57.2959 27.0378C57.3358 27.136 57.2546 27.2261 57.0554 27.3048C56.9269 27.3599 57.0091 27.4332 57.2839 27.5086C57.9033 27.6785 57.1086 27.7033 56.6067 27.746C56.4784 27.7502 56.3305 27.7497 56.1715 27.7447C56.0125 27.7396 55.8456 27.7301 55.6805 27.7167C55.5154 27.7032 55.3554 27.6861 55.2097 27.6663C55.064 27.6465 54.9356 27.6244 54.8318 27.6013C53.9476 27.4397 53.1742 27.2691 52.305 27.0908C52.9221 26.9201 52.196 26.64 53.1589 26.4856C53.2666 26.4547 53.3097 26.4171 53.2856 26.3751C53.2614 26.3331 53.1705 26.2875 53.0185 26.2412C52.6264 26.1217 52.4397 26.0051 52.4771 25.9033C52.5145 25.8015 52.7748 25.7181 53.2317 25.6614L53.2868 25.6002C52.0818 25.3945 52.4011 25.2115 51.9278 24.9938L50.7686 24.8515C47.8846 24.5089 47.8796 24.5145 45.3967 24.5271C44.8962 24.3967 45.5321 24.3769 46.0089 24.362L50.0025 24.2157C52.6135 24.118 55.3005 24.0504 58.2173 24.0134C61.1341 23.9765 64.3859 23.8533 67.4008 23.7647C67.5532 23.7578 67.6698 23.7442 67.7408 23.7251C67.8118 23.7059 67.8351 23.6817 67.8088 23.6546C67.689 23.6252 67.5321 23.5969 67.3498 23.5717C67.1675 23.5465 66.9644 23.5251 66.7555 23.509C65.7961 23.4308 64.8117 23.3804 63.7893 23.315L61.8834 23.2015L61.297 23.0522C60.9154 22.9613 60.6547 22.8505 60.147 22.7852C59.7287 22.7366 59.2746 22.6996 58.832 22.6782C58.3893 22.6569 57.9744 22.6518 57.6305 22.6637C56.6769 22.6935 55.8141 22.7366 54.9034 22.7759C53.9927 22.8151 53.4908 22.8578 52.7011 22.877C51.0967 22.8858 49.5461 22.9089 48.0561 22.9463C46.8011 23.0348 45.6403 23.1397 44.581 23.2602C43.9202 23.3079 43.3022 23.365 42.1738 23.3029C41.6385 23.2466 41.1768 23.1726 40.8705 23.0941C40.5642 23.0155 40.4331 22.9375 40.5005 22.8739C40.5611 22.824 40.7325 22.7846 40.9986 22.7592C41.2646 22.7339 41.6165 22.7235 42.0211 22.7291C43.1538 22.7199 44.2011 22.6891 45.1421 22.6371C46.4518 22.543 48.0462 22.5024 49.8322 22.5178C50.4379 22.5313 50.8439 22.4808 51.3737 22.4643C51.9035 22.4477 52.3523 22.4067 52.943 22.4369C54.778 22.5148 55.6579 22.3954 56.7576 22.3179C57.1299 22.2835 57.3605 22.2279 57.4241 22.1572C57.4878 22.0865 57.382 22.0035 57.1183 21.9173C56.6108 21.7456 55.9899 21.5729 55.2654 21.402C54.8925 21.3179 54.4147 21.2381 53.8697 21.1689C53.3246 21.0996 52.7269 21.0426 52.1235 21.0025C51.7624 20.8974 51.5699 20.794 51.5631 20.7017C51.5563 20.6093 51.7357 20.5311 52.0849 20.4739C52.9748 20.3433 53.7637 20.2106 55.7576 20.2835C56.6951 20.3114 57.5774 20.3167 58.3693 20.2993C60.126 20.2755 62.1524 20.3277 64.2575 20.4508C64.8021 20.4824 65.3374 20.5039 65.8477 20.5147C69.4869 20.5904 72.9542 20.6282 76.4316 20.6548C78.2738 20.6676 80.131 20.6638 82.0541 20.7011C86.5639 20.782 90.6692 20.7404 95.0222 20.7668C97.302 20.7803 99.3426 20.7258 101.037 20.6061C101.367 20.566 101.65 20.5191 101.884 20.4661C100.761 20.327 99.5277 20.2169 98.302 20.1462C97.0764 20.0756 95.8994 20.0469 94.8839 20.0627C94.3256 20.1017 93.604 20.1088 92.7996 20.0833C91.9952 20.0578 91.1396 20.0007 90.3282 19.9183L92.6873 19.8718C94.2517 19.85 95.8539 19.8432 97.3753 19.812C99.7924 19.7581 102.033 19.672 104.536 19.6371C106.556 19.6051 108.365 19.5231 109.904 19.3939C111.016 19.2996 112.285 19.2328 113.688 19.1947C114.684 19.1744 114.684 19.1744 115.321 18.9815C114.816 18.8567 114.162 18.8392 113.546 18.8368C109.855 18.7583 106.342 18.7445 103.079 18.7958C101.433 18.8004 99.9722 18.8533 98.7676 18.952C98.4727 18.9937 97.718 18.9739 97.1123 18.9604C95.2135 18.9398 93.3987 18.9458 91.6897 18.9783C89.3268 19.0324 86.6952 19.0195 83.8971 18.9403C83.3666 18.8433 83.9773 18.8513 84.0073 18.8179C86.1745 18.7556 88.2988 18.6839 90.5089 18.6312C91.1131 18.6124 91.759 18.6031 92.4391 18.6034C94.9786 18.6361 97.0947 18.5455 98.4911 18.3442C98.5612 18.2663 99.4798 18.2755 99.8857 18.225C100.085 18.1813 100.218 18.1298 100.281 18.0721C99.6894 17.9283 99.0207 17.9276 98.506 17.9274C97.0122 17.9434 95.5752 17.9739 94.2018 18.0185C92.925 18.061 91.5118 18.0723 90.0004 18.0523C88.8849 18.033 87.9313 18.0628 86.8058 18.0546C86.1953 18.0375 85.5633 18.0101 84.9228 17.9728C85.636 17.8726 86.6055 17.811 87.763 17.7923C88.6408 17.7324 89.7383 17.7144 89.8786 17.5586C89.464 17.4472 89.0022 17.4454 88.6313 17.4569C87.8594 17.4565 87.1137 17.4635 86.3983 17.478C84.8813 17.5097 83.2388 17.5101 81.5054 17.4793C80.5926 17.4678 79.7265 17.4712 78.9215 17.4896C77.0973 17.5141 75.3489 17.5687 73.6786 17.5938C70.2571 17.6195 67.1363 17.7115 63.8487 17.76C63.117 17.772 62.4611 17.8141 61.4966 17.7415C60.5322 17.6688 60.4893 17.6594 60.3755 17.6142C60.1056 17.539 60.0238 17.466 60.1471 17.4105C60.3384 17.3586 60.711 17.3297 61.1987 17.329C64.1376 17.2465 66.9252 17.1306 69.5439 16.982C70.6964 16.9523 71.7061 16.8916 72.5379 16.8021C73.1977 16.7404 73.9802 16.6996 74.8611 16.6809C76.1423 16.6363 77.478 16.6037 78.8626 16.5831C79.5069 16.572 80.0547 16.539 80.4739 16.486C80.893 16.4329 81.175 16.361 81.3032 16.2744L79.6057 15.9867C79.339 15.9733 79.0744 15.9617 78.8131 15.952L64.7238 16.1592L63.3284 16.1649C61.7991 16.1477 61.4254 16.1053 59.9748 15.7721C63.2853 15.6937 65.8878 15.4652 67.5229 15.1093C67.13 15.0711 66.7271 15.0382 66.3237 15.0116C63.678 14.9274 61.177 14.9051 58.917 14.9454C57.5746 14.9494 56.1943 14.9384 54.8089 14.933C55.2141 14.7689 56.7663 14.8178 57.7779 14.7808C60.1951 14.723 62.3326 14.6034 64.122 14.426C64.7389 14.3569 65.5108 14.3127 66.4022 14.2954C67.2943 14.2894 68.0394 14.2476 68.5729 14.1734C69.1063 14.0993 69.4118 13.9951 69.4627 13.87C69.5467 13.7567 69.7279 13.6515 70.0033 13.5558C69.516 13.42 68.7423 13.29 67.8273 13.1901C66.9123 13.0902 65.919 13.0274 65.0337 13.0133C63.1438 12.9574 61.1835 12.8659 59.2029 12.7411C58.2162 12.6782 57.2488 12.642 56.3633 12.6351C55.5825 12.6297 54.6949 12.5843 53.836 12.5056C52.9772 12.427 52.1941 12.3195 51.6064 12.1996C50.8131 12.0513 50.0726 11.9014 49.3323 11.7514C48.5919 11.6015 47.7328 11.4121 46.8686 11.2281C46.1066 11.1994 45.3646 11.1809 44.6527 11.1729C44.0988 11.1797 43.4525 11.1596 42.79 11.1152C42.1275 11.0707 41.4765 11.0036 40.9138 10.9219C41.2439 10.8413 41.6169 10.7702 42.01 10.6768C41.4705 10.5535 41.0793 10.4278 40.8603 10.3073C40.6413 10.1868 40.599 10.074 40.7361 9.97582C40.8163 9.8868 40.2298 9.73747 40.0271 9.61943C39.7663 9.51767 39.7173 9.42271 39.8865 9.34699C40.0558 9.27127 40.4355 9.21833 40.9757 9.19511C41.6458 9.15226 42.1912 9.08773 42.5894 9.00416C42.7212 8.98247 42.7882 8.95276 42.7845 8.91775C42.7807 8.88274 42.7063 8.84355 42.568 8.80377C42.4297 8.76398 42.2319 8.72486 41.9927 8.68999C41.7535 8.65512 41.4807 8.62562 41.199 8.60417C40.3361 8.54337 39.4791 8.50396 38.6773 8.48821C37.296 8.45922 35.9736 8.44102 34.7102 8.43358C33.3129 8.42241 31.7584 8.35339 30.2046 8.23355C28.8134 8.12016 27.5662 8.01849 26.886 7.80181C26.2058 7.58512 25.1182 7.59203 24.2819 7.43428C24.7517 7.29208 25.5866 7.19329 26.7025 7.14786C27.4327 7.13164 28.0423 7.08908 28.4921 7.0229C28.9418 6.95671 29.2219 6.86837 29.3143 6.76355L26.7753 6.32369C24.7477 6.11662 23.6258 6.27599 21.435 6.19297L23.6923 6.0306C23.7377 6.01455 23.7547 5.9957 23.7424 5.97496C23.5233 5.64656 23.1746 5.57633 20.867 5.39421L19.5718 5.28864L17.522 5.16336C17.1937 5.09605 16.9666 5.02587 16.8635 4.95982C16.7603 4.89377 16.7846 4.83417 16.9341 4.78699C17.2344 4.70763 17.3257 4.60623 17.1996 4.49212C17.0008 4.41652 16.9844 4.34684 17.1532 4.29515C17.3221 4.24345 17.6655 4.21302 18.1239 4.20914C18.4897 4.20313 18.5169 4.11576 18.7159 4.06629C18.9137 3.99811 19.2521 3.94579 19.7083 3.91289C20.1644 3.87999 20.7273 3.86728 21.3591 3.87565C23.2216 3.88247 24.9712 3.85688 26.5769 3.79931L26.2891 3.77585C27.9628 3.82639 29.5275 3.83252 30.907 3.79394C32.2895 3.74539 34.0638 3.77653 35.5322 3.74693C36.7276 3.75372 37.6377 3.68652 38.0694 3.55959C38.4875 3.4384 40.0068 3.46668 41.1702 3.48985C41.8594 3.50484 42.5255 3.51119 43.1614 3.50883C44.0149 3.4814 45.082 3.50725 46.1849 3.58209C46.5158 3.60509 46.8418 3.61726 47.1314 3.61743C49.9351 3.64889 52.7337 3.6859 55.4995 3.70232C56.1379 3.69287 56.8865 3.71452 57.6573 3.76474C57.9814 3.78655 58.2967 3.79558 58.561 3.79062C62.9312 3.74074 67.8626 3.868 72.1469 3.79918C72.6662 3.78292 73.2411 3.77955 73.8553 3.78913C75.2354 3.82956 76.434 3.80354 77.2689 3.71503C77.7194 3.66795 78.2969 3.64201 78.9647 3.63885C79.6324 3.6357 80.3757 3.65541 81.1472 3.69672C82.4311 3.75142 83.6176 3.75735 84.5816 3.71389C86.4613 3.67374 88.438 3.65723 90.4962 3.66449C91.1268 3.67152 91.6812 3.65591 92.1163 3.61889C92.5515 3.58186 92.8557 3.52441 93.0055 3.45098C92.5 3.32617 91.9473 3.31099 91.4225 3.32196C89.3885 3.29352 87.3594 3.25951 85.3633 3.24611C83.5767 3.20783 81.8624 3.19612 80.2457 3.21117C79.4429 3.22815 78.4412 3.18944 77.4591 3.10348C76.2556 2.99462 75.0159 2.94054 73.9909 2.95217C73.231 2.95506 72.4288 2.94568 71.5961 2.92418C71.0631 2.89824 70.5167 2.85371 70.0131 2.79515C69.8132 2.76972 69.5957 2.74833 69.3745 2.73236C69.1532 2.7164 68.9332 2.7062 68.7282 2.70242C68.5233 2.69864 68.3379 2.70136 68.1841 2.71041C68.0303 2.71946 67.9116 2.73464 67.8352 2.75498C67.0641 2.92504 65.3401 2.83826 63.8637 2.81945C61.6514 2.53162 60.0048 2.70198 57.9371 2.53941C57.7736 2.52863 57.6124 2.5221 57.4636 2.52024C57.3148 2.51838 57.1814 2.52122 57.0714 2.52857C53.0699 2.62642 48.4062 2.54487 44.205 2.57866C43.7417 2.5836 43.2039 2.56667 42.6528 2.52978C39.0512 2.28564 35.5884 2.21632 32.9414 2.3354C32.6194 2.34612 32.253 2.34658 31.859 2.33675C30.0492 2.23972 28.3185 2.20103 26.8114 2.22392C24.4495 2.21653 22.1785 2.22252 19.7786 2.20009C18.1243 2.16818 16.673 2.20227 15.5701 2.29898C15.5351 2.33793 14.8004 2.29596 14.2377 2.2919C13.9141 2.19385 13.6335 2.1053 13.2998 2.01838C13.0015 1.91085 12.5547 1.80203 11.9898 1.69932C11.4249 1.5966 10.7551 1.50239 10.0256 1.42304C8.7784 1.32138 8.65367 1.17386 9.5264 1.11958C11.7759 0.94002 14.6045 0.866527 17.8043 0.904495C20.4791 0.907532 23.202 0.914483 25.9147 0.932556C27.497 0.948059 29.165 0.982497 30.7044 0.988528C31.2238 1.00178 31.7573 1.0213 32.2996 1.04689C32.9648 1.084 33.6108 1.10421 34.2026 1.10646C36.1029 1.07521 38.2237 1.10243 40.4637 1.18682C41.2843 1.20523 42.0721 1.21142 42.8156 1.20534C44.5746 1.18243 46.4815 1.19929 48.4859 1.25546C49.7318 1.28714 50.9397 1.30371 52.0973 1.30498C52.5062 1.30844 52.8391 1.28183 53.2329 1.30198C56.6989 1.51283 59.1531 1.36054 62.2726 1.44162C63.7887 1.46422 65.2371 1.46429 66.5976 1.44181C69.2527 1.44289 71.9817 1.46601 74.7739 1.51106C78.4661 1.58508 81.8876 1.5594 85.413 1.58996C86.109 1.59638 86.781 1.59529 87.4242 1.58668C90.5528 1.5298 93.9509 1.54186 97.5357 1.62257C98.3497 1.63423 99.0807 1.61997 99.6831 1.5807C100.286 1.54143 100.746 1.47799 101.037 1.39434C101.159 1.33693 101.08 1.26237 100.813 1.18503C100.371 1.08626 99.8711 0.989493 99.3225 0.896312L79.3679 0.583636C78.5298 0.567308 77.7125 0.558519 76.9201 0.557302C74.5896 0.554585 72.1874 0.530259 69.7254 0.48445C67.2926 0.44142 64.9685 0.449059 62.6116 0.436103C61.9173 0.431763 61.2047 0.421524 60.4767 0.405415C55.5554 0.277911 50.7568 0.200034 46.1144 0.172341C44.1613 0.168411 42.0513 0.109897 40.0602 0.09093C38.0692 0.0719638 35.3464 0.0650177 32.9844 0.0576268L25.6717 0.0587612C24.2333 0.0549886 22.8329 0.0662465 21.4375 0.0719455C19.7441 -0.334814 19.1606 -0.430158 16.901 -0.608366C16.128 -0.674102 15.3417 -0.713331 14.6343 -0.721459C12.3912 -0.689306 9.57673 -0.823159 7.44963 -0.805438C6.16611 -0.81418 5.07698 -0.768994 4.29375 -0.674502C3.61385 -0.600344 2.83637 -0.541665 1.97332 -0.499353C-0.390869 -0.847328 -0.599224 -1.07333 1.17919 -1.16128C1.66102 -1.18172 2.32471 -1.1754 2.67265 -1.2187C2.87229 -1.24507 3.14503 -1.26015 3.46911 -1.26276C3.79319 -1.26536 4.15967 -1.25543 4.53979 -1.23372C5.73948 -1.17678 6.86394 -1.16338 7.80034 -1.19489C8.6816 -1.23659 9.76182 -1.23492 10.9369 -1.19005C11.8003 -1.11967 12.5593 -1.21905 13.306 -1.24776C14.0528 -1.27647 14.6656 -1.32805 15.8319 -1.2509C16.0454 -1.23554 16.2575 -1.22632 16.4517 -1.22394C16.6459 -1.22157 16.8172 -1.22611 16.9524 -1.23721C18.205 -1.28689 19.6998 -1.28167 21.3154 -1.22197C23.7933 -1.16322 26.1182 -1.16102 28.2094 -1.21544C29.4612 -1.26305 30.5285 -1.34749 31.3696 -1.46546C31.5988 -1.50492 31.9392 -1.52858 32.3582 -1.53417C34.4623 -1.50956 36.7469 -1.41692 39.0647 -1.26224C39.9379 -1.20026 40.81 -1.15123 41.6622 -1.1162C43.414 -1.03839 45.1082 -0.994788 46.6947 -0.986685C49.0002 -0.985401 51.4005 -0.955462 53.8744 -0.897142C55.4012 -0.864668 56.8723 -0.852683 58.2703 -0.861315C59.7073 -0.865385 61.2415 -0.840614 62.8383 -0.787579C64.4261 -0.744362 65.8255 -0.769263 66.8676 -0.859269C67.2107 -0.90777 67.4872 -0.965365 67.6916 -1.03098C65.3667 -1.24448 62.9621 -1.35299 60.9622 -1.33464C60.2026 -1.34879 59.5718 -1.33451 58.7713 -1.41767L58.7463 -1.38985C58.587 -1.3718 58.3467 -1.36754 58.0711 -1.37789C57.7956 -1.38824 57.5041 -1.41246 57.2521 -1.44595C57.3473 -1.55166 57.4375 -1.6518 57.5026 -1.72413C59.0264 -1.71137 60.506 -1.7124 61.9338 -1.72724C63.1373 -1.74858 64.7711 -1.56165 65.8128 -1.63202C67.8447 -1.54403 69.1384 -1.66552 70.9605 -1.63046C72.7826 -1.59541 74.7895 -1.4796 76.6116 -1.44455C78.2016 -1.42531 79.7455 -1.42113 81.2345 -1.43202C81.7485 -1.44731 82.3411 -1.44373 82.9757 -1.42148C83.868 -1.37963 84.6979 -1.37261 85.3702 -1.40125C86.0426 -1.42988 86.5302 -1.49301 86.7774 -1.58339C86.5447 -1.66805 86.2312 -1.77721 85.8696 -1.89029C86.5348 -1.98321 87.545 -2.02233 88.7504 -2.00184L90.4538 -2.00633C90.9051 -2.00388 91.2502 -2.029 91.4175 -2.07649C91.5849 -2.12399 91.5618 -2.19022 91.353 -2.2615C88.1232 -2.62031 88.0043 -2.65986 85.6338 -2.42907L82.4864 -2.53631L82.5394 -2.53796ZM125.111 -1.55232L124.871 -1.57187L125.111 -1.55232ZM517.338 36.623L517.283 36.6842L517.343 36.6174L517.871 36.6604L517.906 36.6215L517.338 36.623ZM440.725 9.799C439.98 9.73223 439.227 9.67085 438.471 9.61522C438.273 9.6066 438.088 9.60465 437.931 9.60955C437.774 9.61444 437.65 9.62603 437.57 9.64333C437.51 9.71009 437.932 9.75642 438.315 9.78769C438.799 9.8298 439.294 9.85655 439.748 9.8652C440.201 9.87385 440.598 9.86408 440.897 9.8369L441.331 9.81254L440.725 9.799ZM56.5703 26.0709C57.0614 26.0821 57.5271 26.084 57.9558 26.0763C59.8581 26.0224 61.6794 25.9439 63.6296 25.8938C66.0903 25.7668 68.9179 25.715 72.0063 25.7405C73.2129 25.753 74.2322 25.7118 74.9454 25.6218C75.3723 25.5735 75.9233 25.5452 76.5648 25.5388L84.7295 25.3921C85.2342 25.3617 85.6705 25.319 86.0282 25.2651C85.3087 25.2064 84.829 25.1673 84.5412 25.1439C83.944 25.1373 83.4307 25.1551 83.0527 25.1957C82.6468 25.2645 81.9605 25.2917 81.1303 25.2719C80.2922 25.2556 79.4749 25.2468 78.6826 25.2456C77.1862 25.249 75.6797 25.2636 74.1784 25.2726C73.5942 25.4639 71.8701 25.3771 70.3938 25.3583L69.2533 25.3668C65.5252 25.466 61.9641 25.6024 58.5871 25.7754C57.9344 25.8047 57.3721 25.8514 56.9176 25.9141C56.7463 25.9629 56.6915 26.0239 56.7573 26.0921L56.5175 26.0725L56.5703 26.0709ZM223.05 44.3585C223.955 44.3715 224.897 44.3983 225.862 44.4384C226.606 44.4793 227.331 44.5042 228.01 44.5119C231.812 44.5548 235.775 44.6538 239.844 44.8077C240.376 44.831 240.887 44.8424 241.358 44.8415L244.689 44.8025C245.739 44.7805 245.759 44.7583 244.995 44.4631C244.36 44.4058 243.719 44.3535 243.076 44.3067C242.692 44.2754 242.069 44.2246 241.922 44.2724C241.033 44.4029 239.409 44.3184 238.044 44.2907C234.092 44.2194 230.016 44.1141 226.026 44.0277C225.182 44.0066 224.365 43.9959 223.583 43.9958C223.098 43.9914 222.655 43.9997 222.274 44.0205C222.162 44.0226 222.069 44.0288 222 44.0386C221.931 44.0484 221.888 44.0617 221.874 44.0774C221.859 44.0932 221.874 44.1112 221.917 44.1302C221.96 44.1491 222.031 44.1686 222.123 44.1874C222.45 44.2531 222.827 44.316 223.242 44.3741L223.05 44.3585ZM252.002 1.51677L255.895 1.48178C256.362 1.47802 256.758 1.43863 257.258 1.45548C259.924 1.50887 262.392 1.494 264.558 1.4115C265.295 1.37783 266.158 1.3711 267.098 1.39167C269.979 1.45264 272.696 1.45515 275.176 1.39913C276.779 1.38788 278.279 1.35012 279.654 1.2864C279.76 1.27161 279.826 1.25152 279.848 1.22752C279.869 1.20352 279.846 1.17616 279.779 1.14731C279.762 1.12908 279.715 1.10947 279.641 1.08984C279.568 1.07021 279.469 1.051 279.353 1.03357C279.236 1.01613 279.105 1.00087 278.967 0.988835C278.829 0.976796 278.688 0.968265 278.554 0.96384C276.817 0.877585 275.168 0.847538 273.742 0.876134C272.419 0.910347 270.995 0.920359 269.492 0.906012C268.054 0.902237 267.078 1.0138 265.301 0.928673C264.55 0.900642 263.887 0.90987 263.424 0.954814C262.493 1.02931 261.194 1.03345 259.758 0.966506C258.898 0.932626 258.077 0.918097 257.325 0.923473C255.5 0.947964 253.757 0.996965 252.067 1.04431C251.534 1.05527 250.963 1.05678 250.364 1.04881L241.899 0.9561C239.865 0.92766 237.836 0.893656 235.84 0.880252C234.208 0.85115 232.689 0.860265 231.336 0.907275C229.894 0.956686 228.322 0.976746 226.648 0.967074C224.049 0.994114 221.465 1.00446 218.637 1.00082C216.832 1.00306 214.985 0.995826 213.1 0.973551C212.146 0.944885 211.337 0.968231 210.827 1.03909C210.517 1.09743 209.787 1.0499 209.182 1.03636C205.951 0.90587 202.921 0.87495 200.304 0.945757C199.97 0.957295 199.603 0.961473 199.211 0.958217C196.69 0.955785 194.079 0.939969 191.659 0.939795C191.021 0.945296 190.422 0.960393 189.867 0.984889C189.927 1.02486 190.096 1.06818 190.34 1.10587C190.584 1.14355 190.884 1.17272 191.178 1.1873C193.467 1.29896 195.677 1.35795 197.715 1.36179C201.108 1.34756 204.661 1.37954 208.339 1.45739C211.193 1.53586 213.795 1.51934 215.952 1.40905C217.638 1.32675 219.831 1.35771 222.155 1.49662C223.149 1.56297 224.115 1.58949 224.919 1.57258C225.692 1.5504 226.58 1.55578 227.53 1.5884C229.533 1.65044 231.46 1.67922 233.272 1.67417C235.043 1.65134 236.695 1.58895 238.515 1.57002C240.334 1.55109 243.105 1.56194 245.348 1.52978C247.591 1.49763 249.809 1.49329 252.002 1.51677ZM90.6751 -1.73747C90.8806 -1.56545 91.6081 -1.45838 92.3907 -1.41251C95.0886 -1.20883 97.7559 -1.12216 99.9447 -1.16704C101.127 -1.22964 102.703 -1.20554 104.364 -1.09948C106.297 -0.989227 108.104 -0.970943 109.466 -1.04785C109.8 -1.06129 110.056 -1.08969 110.21 -1.13054C110.24 -1.16392 110.295 -1.22512 110.305 -1.23625C110.162 -1.26447 109.987 -1.29061 109.792 -1.31267C109.598 -1.33473 109.39 -1.35211 109.184 -1.36347L100.248 -1.56039L98.6902 -1.60372C95.8457 -1.71725 93.1353 -1.76247 90.6751 -1.73747ZM108.253 0.98527C109.648 1.26617 109.653 1.2606 110.368 1.32481C113.815 1.59154 117.26 1.73552 120.292 1.73963C120.966 1.73881 121.538 1.7117 121.96 1.66056C122.177 1.65363 122.315 1.63161 122.344 1.5993C122.373 1.56699 122.291 1.52702 122.115 1.48809L121.006 1.2902C118.992 1.20452 117.007 1.13645 115.062 1.08638C112.798 1.02727 110.792 1.02498 108.445 1.0009L108.253 0.98527ZM222.883 43.1147C224.183 43.5013 224.188 43.4957 226.364 43.5954C227.88 43.6661 229.351 43.7076 230.733 43.7186C232.421 43.7308 234.152 43.7525 235.835 43.7702C236.246 43.7826 236.595 43.7724 236.813 43.7416C237.031 43.7108 237.103 43.6616 237.015 43.6037C236.794 43.5407 236.449 43.4799 236.035 43.4309C235.621 43.382 235.162 43.3479 234.735 43.3342L233.816 43.325C232.701 43.3057 231.542 43.277 230.465 43.2728C229.765 43.2888 228.955 43.2764 228.098 43.2366C227.241 43.1967 226.359 43.1305 225.522 43.0431L222.883 43.1147ZM115.193 -1.23198C115.54 -1.16503 115.933 -1.10091 116.36 -1.04131C118.015 -0.876141 119.767 -0.78233 121.272 -0.77827C121.984 -0.768038 122.635 -0.80457 123.359 -0.751483C124.659 -0.680543 125.918 -0.642756 127.07 -0.640165C127.07 -0.640165 127.392 -0.655654 127.498 -0.658961L127.719 -0.903758C127.174 -0.960467 126.606 -1.0068 126.04 -1.04061C124.142 -1.10574 122.277 -1.15027 120.417 -1.20036C118.557 -1.25045 117.908 -1.27346 116.692 -1.29497C116.149 -1.28315 115.647 -1.26205 115.193 -1.23198ZM74.0907 29.201L76.5746 29.702C77.3783 29.7456 78.1292 29.7535 78.713 29.7245C79.2967 29.6955 79.6813 29.6313 79.8084 29.5416C80.0129 29.4996 80.0334 29.4375 79.8655 29.3681C79.6976 29.2987 79.3542 29.2276 78.9077 29.1696C78.4778 29.1008 77.9871 29.0392 77.4659 28.9885C76.9447 28.9378 76.4041 28.8991 75.8777 28.8748L74.0907 29.201ZM94.7711 26.7063C93.1465 26.6213 91.5927 26.5866 90.2284 26.6047C89.3688 26.6544 88.2041 26.6386 86.973 26.5603C84.7342 26.4045 82.576 26.3613 80.9539 26.44C80.9539 26.44 80.8937 26.5068 80.6187 26.5261C80.3438 26.5455 81.4342 26.5926 81.6741 26.6122C83.4332 26.66 85.2024 26.6967 86.7316 26.7139C87.6811 26.7131 88.6854 26.7289 89.7272 26.761C91.1607 26.8104 92.5201 26.8264 93.7524 26.8084C93.7524 26.8084 94.2292 26.7935 94.7661 26.7118L94.7711 26.7063ZM268.267 0.609018C267.491 0.514656 266.649 0.437963 265.805 0.384698C264.962 0.331434 264.137 0.302983 263.394 0.301467C262.826 0.296543 262.365 0.321457 262.086 0.372271C261.807 0.423085 261.726 0.496898 261.855 0.582038C262.43 0.628958 263.198 0.691517 263.629 0.726708C265.126 0.723265 266.402 0.678018 268.267 0.609018ZM413.52 8.56089C412.898 8.48493 412.212 8.42685 411.541 8.39329C410.87 8.35973 410.241 8.35204 409.726 8.3711C409.461 8.37936 409.641 8.46568 409.596 8.51575C409.567 8.5271 409.567 8.54122 409.597 8.55663C409.627 8.57204 409.686 8.58817 409.767 8.60333C409.848 8.61849 409.949 8.63212 410.058 8.6428C410.168 8.65347 410.282 8.6608 410.389 8.66401C411.065 8.69674 411.702 8.70648 412.245 8.69237C412.788 8.67826 413.219 8.64074 413.5 8.58315L413.52 8.56089ZM423.252 9.64679C423.156 9.60197 422.951 9.55526 422.675 9.51521C422.399 9.47516 422.07 9.44446 421.75 9.42875C421.182 9.42664 420.667 9.43907 420.223 9.46557C419.741 9.48602 420.088 9.61579 420.739 9.69279C421.015 9.72369 421.31 9.7478 421.6 9.76319C421.891 9.77858 422.168 9.78483 422.411 9.78145C422.654 9.77807 422.856 9.76513 423 9.74369C423.144 9.72225 423.227 9.69288 423.242 9.65792L423.252 9.64679ZM140.458 -0.755216C139.006 -0.915372 137.888 -0.87508 136.659 -0.939451C135.43 -1.00382 135.127 -1.01059 135.292 -0.90759C135.456 -0.804586 136.299 -0.825476 136.827 -0.782466C137.54 -0.725394 138.257 -0.692623 138.898 -0.68781C139.539 -0.682996 140.08 -0.706334 140.458 -0.755216ZM443.025 26.3435C442.256 26.3076 441.502 26.2822 440.776 26.2677C440.68 26.2826 440.62 26.3021 440.6 26.325C440.579 26.348 440.598 26.3739 440.656 26.4013C440.656 26.4013 441.148 26.4832 441.436 26.5067C442.496 26.5871 442.549 26.4719 443.025 26.3435ZM551.725 41.2652C552.245 41.3733 552.488 41.4468 552.905 41.4987C553.096 41.5167 553.294 41.5298 553.484 41.537C553.673 41.5442 553.85 41.5453 554 41.5402C554.183 41.5091 554.226 41.4614 554.12 41.4067C554.12 41.4067 553.59 41.3097 553.388 41.3052C552.812 41.2823 552.254 41.2689 551.725 41.2652ZM115.743 -1.6709C114.64 -1.76083 113.584 -1.84686 112.82 -1.74191C114.572 -1.62897 114.572 -1.62896 115.743 -1.6709ZM133.613 -0.644314C132.499 -0.836645 131.845 -0.854098 131.31 -0.832C131.196 -0.826435 131.121 -0.814028 131.096 -0.796666C131.07 -0.779305 131.096 -0.757931 131.169 -0.735774C131.243 -0.713617 131.359 -0.691888 131.501 -0.673871C131.643 -0.655853 131.804 -0.642526 131.957 -0.635911C132.538 -0.630375 133.093 -0.633187 133.613 -0.644314ZM190.952 -0.562984C190.977 -0.590802 191.007 -0.624183 190.72 -0.647643C190.644 -0.659553 190.556 -0.669795 190.463 -0.677345C190.371 -0.684895 190.277 -0.689481 190.192 -0.690647C190.192 -0.690647 190.162 -0.657265 190.142 -0.635011L190.952 -0.562984ZM230.77 45.6208L230.13 45.6462L230.417 45.6696L231.177 45.6838L230.77 45.6208ZM456.392 9.21272C456.152 9.19317 455.912 9.17362 455.877 9.21257C455.826 9.2186 455.795 9.2273 455.785 9.23795C455.776 9.2486 455.788 9.26087 455.822 9.27376C455.822 9.27376 456.158 9.30114 456.302 9.31287L456.392 9.21272ZM419.037 9.5242C418.88 9.52197 418.737 9.52458 418.619 9.53187L418.589 9.56525L419.068 9.60436L419.037 9.5242ZM93.5042 17.4779C93.3189 17.4576 93.1226 17.4416 92.9286 17.431L92.6887 17.4114C92.6887 17.4114 92.9464 17.4683 93.0903 17.48C93.2342 17.4917 93.3503 17.4773 93.5042 17.4779Z" fill="#DF6951"/>
</g>
</svg>
