<svg width="52" height="52" viewBox="0 0 52 52" fill="none" xmlns="http://www.w3.org/2000/svg">
<path d="M26.0002 47.6666C14.0337 47.6666 4.3335 37.9665 4.3335 26C4.3335 14.0335 14.0337 4.33331 26.0002 4.33331C37.9667 4.33331 47.6668 14.0335 47.6668 26C47.6668 37.9665 37.9667 47.6666 26.0002 47.6666ZM26.0002 43.3333C30.5972 43.3333 35.006 41.5071 38.2567 38.2565C41.5073 35.0059 43.3335 30.5971 43.3335 26C43.3335 21.4029 41.5073 16.9941 38.2567 13.7435C35.006 10.4928 30.5972 8.66665 26.0002 8.66665C21.4031 8.66665 16.9943 10.4928 13.7436 13.7435C10.493 16.9941 8.66683 21.4029 8.66683 26C8.66683 30.5971 10.493 35.0059 13.7436 38.2565C16.9943 41.5071 21.4031 43.3333 26.0002 43.3333ZM23.84 34.6666L14.6468 25.4735L17.7105 22.4098L23.84 28.5393L36.0947 16.2825L39.1605 19.3461L23.84 34.6666Z" fill="#3CBB00"/>
</svg>
