<svg width="25" height="25" viewBox="0 0 25 25" fill="none" xmlns="http://www.w3.org/2000/svg">
<g clip-path="url(#clip0_0_423)">
<path d="M14.5037 12.2913L11.6963 10.9813C11.4513 10.8675 11.25 10.995 11.25 11.2662V13.7338C11.25 14.005 11.4513 14.1325 11.6963 14.0188L14.5025 12.7087C14.7488 12.5938 14.7487 12.4063 14.5037 12.2913ZM12.5 0.5C5.8725 0.5 0.5 5.8725 0.5 12.5C0.5 19.1275 5.8725 24.5 12.5 24.5C19.1275 24.5 24.5 19.1275 24.5 12.5C24.5 5.8725 19.1275 0.5 12.5 0.5ZM12.5 17.375C6.3575 17.375 6.25 16.8213 6.25 12.5C6.25 8.17875 6.3575 7.625 12.5 7.625C18.6425 7.625 18.75 8.17875 18.75 12.5C18.75 16.8213 18.6425 17.375 12.5 17.375Z" fill="#185CFF"/>
</g>
<defs>
<clipPath id="clip0_0_423">
<rect width="25" height="25" fill="white"/>
</clipPath>
</defs>
</svg>
