<svg width="16" height="16" viewBox="0 0 16 16" fill="none" xmlns="http://www.w3.org/2000/svg">
<g clip-path="url(#clip0_32_1132)">
<path d="M8.00031 0.320068C3.75871 0.320068 0.320312 3.75847 0.320312 8.00007C0.320312 12.2417 3.75871 15.6801 8.00031 15.6801C12.2419 15.6801 15.6803 12.2417 15.6803 8.00007C15.6803 3.75847 12.2419 0.320068 8.00031 0.320068ZM11.1243 6.61127C11.1275 6.67687 11.1283 6.74247 11.1283 6.80647C11.1283 8.80647 9.60751 11.1113 6.82511 11.1113C6.00295 11.1126 5.19789 10.8765 4.50671 10.4313C4.62431 10.4457 4.74511 10.4513 4.86751 10.4513C5.57631 10.4513 6.22831 10.2105 6.74591 9.80407C6.43049 9.79787 6.12485 9.69343 5.8716 9.50528C5.61835 9.31714 5.43011 9.05467 5.33311 8.75447C5.55964 8.79754 5.79299 8.78852 6.01551 8.72807C5.67315 8.65884 5.36527 8.47333 5.14408 8.203C4.92289 7.93267 4.802 7.59416 4.80191 7.24487V7.22647C5.00591 7.33927 5.23951 7.40807 5.48751 7.41607C5.16655 7.20241 4.93934 6.8742 4.85235 6.49857C4.76536 6.12294 4.82515 5.72827 5.01951 5.39527C5.39948 5.86247 5.87332 6.24467 6.41037 6.51712C6.94741 6.78957 7.53569 6.9462 8.13711 6.97687C8.06065 6.65232 8.09356 6.31159 8.23072 6.00767C8.36788 5.70375 8.60161 5.45366 8.89557 5.29628C9.18953 5.1389 9.52725 5.08305 9.85623 5.13741C10.1852 5.19176 10.487 5.35329 10.7147 5.59687C11.0532 5.52989 11.3779 5.40571 11.6747 5.22967C11.5619 5.58018 11.3257 5.87781 11.0099 6.06727C11.3098 6.03115 11.6026 5.95053 11.8787 5.82807C11.6759 6.13198 11.4204 6.39722 11.1243 6.61127Z" fill="#9497A1"/>
</g>
<defs>
<clipPath id="clip0_32_1132">
<rect width="16" height="16" fill="white"/>
</clipPath>
</defs>
</svg>
