<svg width="23" height="18" viewBox="0 0 23 18" fill="none" xmlns="http://www.w3.org/2000/svg">
<path d="M20.0009 17.9996C19.5472 18.0089 19.1015 17.8791 18.7238 17.6277C18.4426 17.4439 18.114 17.3461 17.7782 17.3461C17.4423 17.3461 17.1137 17.4439 16.8326 17.6277C16.451 17.8706 16.008 17.9996 15.5557 17.9996C15.1033 17.9996 14.6603 17.8706 14.2788 17.6277C13.9976 17.4438 13.6689 17.3458 13.333 17.3458C12.997 17.3458 12.6683 17.4438 12.3872 17.6277C12.0056 17.8706 11.5626 17.9996 11.1103 17.9996C10.6579 17.9996 10.215 17.8706 9.8334 17.6277C9.55244 17.4439 9.224 17.346 8.88827 17.346C8.55254 17.346 8.2241 17.4439 7.94314 17.6277C7.59718 17.8576 7.19344 17.9854 6.77819 17.9964L6.75531 17.3426C7.06203 17.3354 7.35989 17.2383 7.61203 17.0635C7.99351 16.8206 8.43636 16.6916 8.8886 16.6916C9.34083 16.6916 9.78368 16.8206 10.1652 17.0635C10.4463 17.2473 10.7749 17.3452 11.1108 17.3452C11.4467 17.3452 11.7753 17.2473 12.0564 17.0635C12.438 16.8204 12.8811 16.6912 13.3336 16.6912C13.7861 16.6912 14.2292 16.8204 14.6109 17.0635C14.892 17.2473 15.2206 17.3452 15.5565 17.3452C15.8924 17.3452 16.221 17.2473 16.5021 17.0635C16.8837 16.8206 17.3267 16.6916 17.779 16.6916C18.2313 16.6916 18.6743 16.8206 19.0559 17.0635C19.3377 17.2477 19.6671 17.3458 20.0038 17.3458C20.3405 17.3458 20.6699 17.2477 20.9517 17.0635C21.329 16.8128 21.7739 16.6832 22.2268 16.6922V17.3459C21.8896 17.3367 21.5582 17.4353 21.2809 17.6273C20.9022 17.8791 20.4555 18.0091 20.0009 17.9996Z" fill="white"/>
<path d="M2.22268 17.9995C1.76909 18.0089 1.32352 17.8791 0.945946 17.6275C0.668666 17.4353 0.33727 17.3366 0 17.3458V16.692C0.453696 16.6826 0.899386 16.8124 1.27706 17.064C1.55419 17.2563 1.8855 17.355 2.22268 17.3458C2.56001 17.355 2.89146 17.2562 3.16862 17.0637C3.54549 16.8123 3.99045 16.6825 4.4434 16.692C4.88536 16.6821 5.32002 16.806 5.69038 17.0473L5.36058 17.6115C5.09005 17.4294 4.76936 17.3365 4.4434 17.3458C4.10746 17.3367 3.77741 17.4352 3.50137 17.6269C3.12337 17.8791 2.67702 18.0092 2.22268 17.9995Z" fill="white"/>
<path d="M20.0018 15.7112C19.5478 15.7204 19.1019 15.5906 18.7238 15.3392C18.4424 15.1553 18.1135 15.0574 17.7774 15.0574C17.4412 15.0574 17.1123 15.1553 16.8309 15.3392C16.4494 15.5821 16.0065 15.7111 15.5542 15.7111C15.1019 15.7111 14.659 15.5821 14.2775 15.3392C13.9964 15.1554 13.6679 15.0575 13.3322 15.0575C12.9964 15.0575 12.6679 15.1554 12.3869 15.3392C12.0053 15.5821 11.5624 15.7112 11.1101 15.7112C10.6578 15.7112 10.2149 15.5821 9.8334 15.3392C9.55238 15.1554 9.22388 15.0575 8.8881 15.0575C8.55233 15.0575 8.22383 15.1554 7.94281 15.3392C7.56526 15.5908 7.11967 15.7206 6.66608 15.7112C6.21248 15.7206 5.7669 15.5908 5.38935 15.3392C5.11232 15.1469 4.78112 15.0482 4.44405 15.0574C4.10709 15.0483 3.77601 15.147 3.49909 15.3392C3.12213 15.5905 2.67726 15.7203 2.22431 15.7112C1.77062 15.7206 1.32493 15.5908 0.947254 15.3392C0.669671 15.1466 0.337732 15.0478 0 15.0574V14.4037C0.453588 14.3943 0.89916 14.5241 1.27673 14.7757C1.55401 14.9679 1.88541 15.0666 2.22268 15.0574C2.55964 15.0666 2.89072 14.9679 3.16765 14.7757C3.5446 14.5244 3.98948 14.3946 4.44242 14.4037C4.89635 14.3941 5.34231 14.5239 5.72013 14.7757C5.99726 14.968 6.32857 15.0667 6.66575 15.0574C7.00293 15.0667 7.33424 14.968 7.61137 14.7757C7.99287 14.5327 8.43579 14.4036 8.8881 14.4036C9.34042 14.4036 9.78334 14.5327 10.1648 14.7757C10.4459 14.9595 10.7745 15.0574 11.1103 15.0574C11.4461 15.0574 11.7747 14.9595 12.0558 14.7757C12.4373 14.5327 12.8802 14.4036 13.3325 14.4036C13.7848 14.4036 14.2277 14.5327 14.6092 14.7757C14.8903 14.9595 15.2188 15.0574 15.5547 15.0574C15.8905 15.0574 16.2191 14.9595 16.5001 14.7757C16.882 14.5328 17.3252 14.4038 17.7778 14.4038C18.2304 14.4038 18.6737 14.5328 19.0556 14.7757C19.3371 14.9594 19.6661 15.0573 20.0023 15.0573C20.3386 15.0573 20.6675 14.9594 20.9491 14.7757C21.3271 14.5243 21.7729 14.3945 22.2268 14.4037V15.0574C21.8889 15.0479 21.5567 15.1466 21.2789 15.3392C20.9011 15.5904 20.4555 15.7202 20.0018 15.7112Z" fill="white"/>
<path d="M20.0009 13.4235C19.5472 13.4328 19.1015 13.303 18.7238 13.0515C18.4465 12.8593 18.1151 12.7606 17.7778 12.7698C17.5303 12.7613 17.2845 12.814 17.0623 12.9234L16.774 12.335C17.0861 12.1821 17.4304 12.1066 17.7778 12.115C18.2321 12.1058 18.6782 12.236 19.0562 12.488C19.338 12.6722 19.6674 12.7703 20.0041 12.7703C20.3408 12.7703 20.6702 12.6722 20.952 12.488C21.3292 12.2371 21.7739 12.1073 22.2268 12.116V12.7698C21.8896 12.7605 21.5582 12.8591 21.2809 13.0512C20.9022 13.303 20.4555 13.4329 20.0009 13.4235Z" fill="white"/>
<path d="M15.5522 13.4233C15.0993 13.4329 14.6543 13.3031 14.2774 13.0517C13.9963 12.8678 13.6676 12.7699 13.3317 12.7699C12.9957 12.7699 12.667 12.8678 12.3859 13.0517C12.0043 13.2946 11.5613 13.4237 11.109 13.4237C10.6566 13.4237 10.2137 13.2946 9.83209 13.0517C9.55095 12.8679 9.22235 12.77 8.88647 12.77C8.55059 12.77 8.22199 12.8679 7.94085 13.0517C7.56335 13.3028 7.11808 13.4325 6.66477 13.4233C6.21118 13.4327 5.76561 13.3029 5.38804 13.0514C5.11076 12.8591 4.77936 12.7604 4.44209 12.7696C4.10615 12.7606 3.77611 12.859 3.50007 13.0507C3.12243 13.3027 2.67657 13.4328 2.22268 13.4233C1.76909 13.4327 1.32352 13.3029 0.945946 13.0514C0.668667 12.8591 0.33727 12.7604 0 12.7696V12.1159C0.453696 12.1065 0.899386 12.2363 1.27706 12.4879C1.55419 12.6801 1.8855 12.7789 2.22268 12.7696C2.56001 12.7789 2.89147 12.68 3.16863 12.4875C3.5455 12.2361 3.99045 12.1064 4.4434 12.1159C4.89698 12.1065 5.34255 12.2363 5.72013 12.4879C5.99726 12.6801 6.32857 12.7789 6.66575 12.7696C7.00302 12.7788 7.33442 12.6801 7.6117 12.4879C7.99328 12.2449 8.43624 12.1159 8.88859 12.1159C9.34095 12.1159 9.78391 12.2449 10.1655 12.4879C10.4466 12.6716 10.7752 12.7695 11.1111 12.7695C11.447 12.7695 11.7756 12.6716 12.0567 12.4879C12.4384 12.2448 12.8815 12.1156 13.334 12.1156C13.7864 12.1156 14.2295 12.2448 14.6112 12.4879C14.8991 12.6815 15.2406 12.78 15.5875 12.7693C15.6127 12.7696 15.638 12.7683 15.663 12.7654L15.75 13.4132C15.6843 13.4209 15.6183 13.4243 15.5522 13.4233Z" fill="white"/>
<path d="M20.0018 11.1351C19.5478 11.1443 19.1019 11.0145 18.7238 10.7631C18.4424 10.5792 18.1135 10.4813 17.7774 10.4813C17.4412 10.4813 17.1123 10.5792 16.8309 10.7631C16.4494 11.006 16.0065 11.135 15.5542 11.135C15.1019 11.135 14.659 11.006 14.2775 10.7631C13.9964 10.5793 13.6679 10.4814 13.3322 10.4814C12.9964 10.4814 12.6679 10.5793 12.3869 10.7631C12.0053 11.006 11.5624 11.1351 11.1101 11.1351C10.6578 11.1351 10.2149 11.006 9.8334 10.7631C9.55238 10.5793 9.22388 10.4814 8.8881 10.4814C8.55233 10.4814 8.22383 10.5793 7.94281 10.7631C7.56526 11.0147 7.11967 11.1445 6.66608 11.1351C6.21248 11.1445 5.7669 11.0147 5.38935 10.7631C5.11232 10.5709 4.78112 10.4721 4.44405 10.4813C4.10709 10.4722 3.77601 10.5709 3.49909 10.7631C3.12213 11.0144 2.67726 11.1442 2.22431 11.1351C1.77062 11.1445 1.32493 11.0147 0.947254 10.7631C0.669671 10.5705 0.337732 10.4717 0 10.4813V9.82761C0.453588 9.81823 0.89916 9.94805 1.27673 10.1996C1.55401 10.3918 1.88541 10.4905 2.22268 10.4813C2.55964 10.4905 2.89072 10.3918 3.16765 10.1996C3.5446 9.9483 3.98948 9.81849 4.44242 9.82761C4.89635 9.81797 5.34231 9.9478 5.72013 10.1996C5.99726 10.3919 6.32857 10.4906 6.66575 10.4813C7.00293 10.4906 7.33424 10.3919 7.61137 10.1996C7.99287 9.9566 8.43579 9.82753 8.8881 9.82753C9.34042 9.82753 9.78334 9.9566 10.1648 10.1996C10.4459 10.3834 10.7745 10.4813 11.1103 10.4813C11.4461 10.4813 11.7747 10.3834 12.0558 10.1996C12.4373 9.9566 12.8802 9.82753 13.3325 9.82753C13.7848 9.82753 14.2277 9.9566 14.6092 10.1996C14.8903 10.3834 15.2188 10.4813 15.5547 10.4813C15.8905 10.4813 16.2191 10.3834 16.5001 10.1996C16.882 9.95669 17.3252 9.82769 17.7778 9.82769C18.2304 9.82769 18.6737 9.95669 19.0556 10.1996C19.3371 10.3833 19.6661 10.4812 20.0023 10.4812C20.3386 10.4812 20.6675 10.3833 20.9491 10.1996C21.3271 9.9482 21.7729 9.81841 22.2268 9.82761V10.4813C21.8889 10.4718 21.5567 10.5705 21.2789 10.7631C20.9011 11.0143 20.4555 11.1441 20.0018 11.1351Z" fill="white"/>
<path d="M15.344 10.8579L14.7272 10.6415C14.8861 10.1851 14.951 9.70127 14.918 9.21914C14.885 8.73701 14.7549 8.26653 14.5353 7.83601L12.2901 3.43935C12.2679 3.39594 12.2558 3.34811 12.2545 3.29938C12.2532 3.25064 12.2628 3.20224 12.2826 3.15771C12.3025 3.11317 12.332 3.07364 12.3691 3.04201C12.4062 3.01037 12.4499 2.98744 12.497 2.97488L16.9715 1.78182C17.1173 1.74369 17.2421 1.64952 17.3189 1.5198C17.3956 1.39009 17.418 1.23531 17.3812 1.08916C17.3444 0.943008 17.2514 0.817297 17.1224 0.739379C16.9934 0.661462 16.8388 0.637641 16.6923 0.673099L11.2768 1.96748C11.1611 1.99484 11.0531 2.04848 10.9614 2.12425C10.8697 2.20002 10.7967 2.29588 10.748 2.40441C10.6993 2.51294 10.6762 2.63123 10.6806 2.75011C10.6849 2.86898 10.7166 2.98526 10.7731 3.08994L12.3813 6.07748C12.4221 6.15341 12.4312 6.24238 12.4068 6.32502C12.3823 6.40766 12.3261 6.47729 12.2506 6.51874L10.175 7.66277L9.85955 7.0901L11.6514 6.10232L10.1982 3.3998C10.0942 3.20688 10.036 2.99263 10.0281 2.77362C10.0202 2.55461 10.0627 2.33671 10.1524 2.13677C10.2422 1.93683 10.3767 1.7602 10.5456 1.62055C10.7145 1.4809 10.9132 1.38197 11.1265 1.3314L16.5394 0.0373475C16.8545 -0.0422772 17.1883 0.00653958 17.4674 0.173058C17.7466 0.339577 17.9481 0.610157 18.0277 0.925275C18.1074 1.24039 18.0585 1.57423 17.892 1.85336C17.7255 2.13248 17.4549 2.33403 17.1398 2.41365L13.056 3.50211L15.1178 7.53824C15.3774 8.04771 15.5313 8.60444 15.5702 9.17493C15.6091 9.74543 15.5321 10.3179 15.344 10.8579Z" fill="white"/>
<path d="M8.71704 7.72496L4.74491 9.91372L5.06025 10.486L9.03238 8.29724L8.71704 7.72496Z" fill="white"/>
<path d="M18.3044 8.68357C17.8196 8.68357 17.3456 8.53979 16.9425 8.27042C16.5393 8.00105 16.2251 7.61818 16.0395 7.17023C15.854 6.72228 15.8055 6.22937 15.9 5.75383C15.9946 5.27829 16.2281 4.84147 16.571 4.49863C16.9138 4.15578 17.3506 3.9223 17.8262 3.82771C18.3017 3.73312 18.7946 3.78166 19.2426 3.96721C19.6905 4.15276 20.0734 4.46697 20.3428 4.87012C20.6121 5.27326 20.7559 5.74723 20.7559 6.23209C20.7552 6.88205 20.4967 7.50519 20.0371 7.96478C19.5775 8.42438 18.9544 8.68288 18.3044 8.68357ZM18.3044 4.43433C17.9489 4.43433 17.6013 4.53977 17.3056 4.73731C17.01 4.93485 16.7796 5.21562 16.6435 5.54412C16.5074 5.87261 16.4718 6.23408 16.5412 6.58281C16.6106 6.93154 16.7818 7.25187 17.0332 7.50329C17.2846 7.75471 17.605 7.92593 17.9537 7.9953C18.3024 8.06467 18.6639 8.02906 18.9924 7.893C19.3209 7.75693 19.6017 7.52651 19.7992 7.23087C19.9967 6.93523 20.1022 6.58765 20.1022 6.23209C20.1016 5.75548 19.912 5.29856 19.575 4.96155C19.2379 4.62454 18.781 4.43494 18.3044 4.43433Z" fill="white"/>
</svg>
