<svg width="28" height="29" viewBox="0 0 28 29" fill="none" xmlns="http://www.w3.org/2000/svg">
<path d="M27.2081 17.5303L26.6617 24.3607C26.4568 26.4508 26.2928 28.0491 22.5907 28.0491H5.4054C1.70331 28.0491 1.53938 26.4508 1.33446 24.3607L0.788031 17.5303C0.678744 16.3964 1.03393 15.3445 1.67599 14.5386C1.68965 14.5249 1.68965 14.5249 1.70331 14.5112C2.45465 13.596 3.5885 13.0222 4.85896 13.0222H23.1372C24.4076 13.0222 25.5278 13.596 26.2655 14.4839C26.2792 14.4976 26.2928 14.5112 26.2928 14.5249C26.9622 15.3309 27.331 16.3828 27.2081 17.5303Z" stroke="#546FFF" stroke-width="1.5" stroke-miterlimit="10"/>
<path d="M2.38635 13.6096V6.57428C2.38635 1.92959 3.54752 0.768422 8.19221 0.768422H9.92714C11.6621 0.768422 12.0582 1.28753 12.7139 2.16183L14.4489 4.48417C14.886 5.05793 15.1456 5.41311 16.3067 5.41311H19.7903C24.435 5.41311 25.5961 6.57428 25.5961 11.219V13.6643" stroke="#546FFF" stroke-width="1.5" stroke-miterlimit="10" stroke-linecap="round" stroke-linejoin="round"/>
<path d="M10.4872 21.2187H17.5089" stroke="#546FFF" stroke-width="1.5" stroke-miterlimit="10" stroke-linecap="round" stroke-linejoin="round"/>
</svg>
