<svg width="24" height="24" viewBox="0 0 24 24" fill="none" xmlns="http://www.w3.org/2000/svg">
<path d="M4.29279 15.7068C4.48031 15.8943 4.73462 15.9996 4.99979 15.9996C5.26495 15.9996 5.51926 15.8943 5.70679 15.7068L11.9998 9.41379L18.2928 15.7068C18.4814 15.8889 18.734 15.9897 18.9962 15.9875C19.2584 15.9852 19.5092 15.88 19.6946 15.6946C19.88 15.5092 19.9852 15.2584 19.9875 14.9962C19.9897 14.734 19.8889 14.4814 19.7068 14.2928L12.7068 7.29279C12.5193 7.10532 12.265 7 11.9998 7C11.7346 7 11.4803 7.10532 11.2928 7.29279L4.29279 14.2928C4.10532 14.4803 4 14.7346 4 14.9998C4 15.265 4.10532 15.5193 4.29279 15.7068Z" fill="#292D33"/>
</svg>
