<svg width="60" height="60" viewBox="0 0 60 60" fill="none" xmlns="http://www.w3.org/2000/svg">
<path d="M25.625 10.625C26.1223 10.625 26.5992 10.8225 26.9508 11.1742C27.3025 11.5258 27.5 12.0027 27.5 12.5V32.5H47.5C47.9531 32.5 48.3909 32.6641 48.7323 32.9619C49.0738 33.2597 49.2959 33.6711 49.3575 34.12L49.375 34.375C49.375 46.8 39.3 55.625 26.875 55.625C20.9076 55.625 15.1847 53.2545 10.9651 49.0349C6.74553 44.8153 4.375 39.0924 4.375 33.125C4.375 20.7 13.2 10.625 25.625 10.625ZM33.125 4.375C39.0924 4.375 44.8153 6.74553 49.0349 10.9651C53.2545 15.1847 55.625 20.9076 55.625 26.875C55.625 27.3723 55.4275 27.8492 55.0758 28.2008C54.7242 28.5525 54.2473 28.75 53.75 28.75H33.125C32.6277 28.75 32.1508 28.5525 31.7992 28.2008C31.4475 27.8492 31.25 27.3723 31.25 26.875V6.25C31.25 5.75272 31.4475 5.27581 31.7992 4.92417C32.1508 4.57254 32.6277 4.375 33.125 4.375Z" fill="#185CFF"/>
</svg>
